<svg width="56" height="56" viewBox="0 0 56 56" fill="none" xmlns="http://www.w3.org/2000/svg">
<path opacity="0.2" d="M47.2356 16.1226L28.8606 5.7368C28.5979 5.5883 28.3013 5.51025 27.9995 5.51025C27.6977 5.51025 27.4011 5.5883 27.1384 5.7368L8.7634 16.1226C8.49362 16.2751 8.26917 16.4965 8.11299 16.7642C7.95682 17.0319 7.87452 17.3362 7.87451 17.6461V38.354C7.87452 38.6639 7.95682 38.9682 8.11299 39.2359C8.26917 39.5036 8.49362 39.725 8.7634 39.8775L27.1384 50.2633C27.4011 50.4118 27.6977 50.4899 27.9995 50.4899C28.3013 50.4899 28.5979 50.4118 28.8606 50.2633L47.2356 39.8775C47.5054 39.725 47.7299 39.5036 47.886 39.2359C48.0422 38.9682 48.1245 38.6639 48.1245 38.354V17.6461C48.1245 17.3362 48.0422 17.0319 47.886 16.7642C47.7299 16.4965 47.5054 16.2751 47.2356 16.1226V16.1226ZM27.9995 35.8751C26.442 35.8751 24.9194 35.4132 23.6244 34.5479C22.3294 33.6826 21.32 32.4527 20.724 31.0137C20.1279 29.5747 19.972 27.9913 20.2758 26.4637C20.5797 24.9361 21.3297 23.5329 22.431 22.4316C23.5324 21.3303 24.9356 20.5802 26.4632 20.2764C27.9908 19.9725 29.5742 20.1285 31.0131 20.7245C32.4521 21.3205 33.682 22.3299 34.5473 23.6249C35.4126 24.92 35.8745 26.4425 35.8745 28.0001C35.8745 29.0342 35.6708 30.0583 35.2751 31.0137C34.8793 31.9691 34.2992 32.8373 33.568 33.5685C32.8367 34.2998 31.9686 34.8799 31.0131 35.2756C30.0577 35.6714 29.0337 35.8751 27.9995 35.8751V35.8751Z" fill="#0B63E5"/>
<path d="M48.1245 38.354V17.6461C48.1245 17.3362 48.0422 17.0319 47.886 16.7642C47.7299 16.4965 47.5054 16.2751 47.2356 16.1226L28.8606 5.73677C28.5979 5.58828 28.3013 5.51025 27.9995 5.51025C27.6978 5.51025 27.4011 5.58828 27.1384 5.73677L8.76341 16.1226C8.49362 16.2751 8.26916 16.4965 8.11299 16.7642C7.95681 17.0319 7.87451 17.3362 7.87451 17.6461V38.354C7.87451 38.6639 7.95681 38.9682 8.11299 39.2359C8.26916 39.5036 8.49362 39.725 8.76341 39.8775L27.1384 50.2634C27.4011 50.4118 27.6978 50.4899 27.9995 50.4899C28.3013 50.4899 28.5979 50.4118 28.8606 50.2634L47.2356 39.8775C47.5054 39.725 47.7299 39.5036 47.886 39.2359C48.0422 38.9682 48.1245 38.6639 48.1245 38.354V38.354Z" stroke="#0B63E5" stroke-width="3" stroke-linecap="round" stroke-linejoin="round"/>
<path d="M27.9995 35.875C32.3488 35.875 35.8745 32.3492 35.8745 28C35.8745 23.6508 32.3488 20.125 27.9995 20.125C23.6503 20.125 20.1245 23.6508 20.1245 28C20.1245 32.3492 23.6503 35.875 27.9995 35.875Z" stroke="#0B63E5" stroke-width="3" stroke-linecap="round" stroke-linejoin="round"/>
</svg>
