<svg width="56" height="56" viewBox="0 0 56 56" fill="none" xmlns="http://www.w3.org/2000/svg">
<path d="M32.7402 42.8495L29.5006 48.2489C29.3451 48.508 29.1252 48.7225 28.8622 48.8714C28.5992 49.0202 28.3022 49.0985 28 49.0985C27.6978 49.0985 27.4008 49.0202 27.1378 48.8714C26.8748 48.7225 26.6549 48.508 26.4994 48.2489L23.2598 42.8495C23.1043 42.5904 22.8844 42.3759 22.6214 42.227C22.3584 42.0782 22.0614 41.9999 21.7592 41.9999H8.75C8.28587 41.9999 7.84075 41.8155 7.51256 41.4873C7.18437 41.1591 7 40.714 7 40.2499V12.25C7 11.7859 7.18437 11.3408 7.51256 11.0126C7.84075 10.6844 8.28587 10.5 8.75 10.5H47.25C47.7141 10.5 48.1592 10.6844 48.4874 11.0126C48.8156 11.3408 49 11.7859 49 12.25V40.25C49 40.7141 48.8156 41.1592 48.4874 41.4874C48.1592 41.8156 47.7141 42 47.25 42L34.2409 41.9999C33.9386 41.9999 33.6416 42.0782 33.3786 42.2271C33.1156 42.3759 32.8957 42.5904 32.7402 42.8495V42.8495Z" fill="#CFEBD1" stroke="#0F9918" stroke-width="3" stroke-linecap="round" stroke-linejoin="round"/>
<path d="M21 22.75H35" stroke="#0F9918" stroke-width="3" stroke-linecap="round" stroke-linejoin="round"/>
<path d="M21 29.75H35" stroke="#0F9918" stroke-width="3" stroke-linecap="round" stroke-linejoin="round"/>
</svg>
