<svg width="56" height="56" viewBox="0 0 56 56" fill="none" xmlns="http://www.w3.org/2000/svg">
<path d="M9.93754 38.7183C7.32844 34.32 6.4147 29.1205 7.36793 24.0961C8.32115 19.0718 11.0758 14.5682 15.1145 11.4311C19.1532 8.29402 24.1983 6.73919 29.3023 7.05858C34.4063 7.37798 39.2181 9.54963 42.8342 13.1657C46.4504 16.7819 48.622 21.5937 48.9415 26.6977C49.2609 31.8017 47.7061 36.8467 44.569 40.8855C41.4319 44.9242 36.9284 47.6789 31.904 48.6321C26.8797 49.5854 21.6801 48.6717 17.2818 46.0626L17.2819 46.0623L10.0289 48.1346C9.72877 48.2204 9.41122 48.2243 9.10911 48.146C8.807 48.0677 8.53132 47.9101 8.31064 47.6894C8.08996 47.4687 7.93231 47.193 7.85403 46.8909C7.77574 46.5888 7.77968 46.2713 7.86541 45.9712L9.9377 38.7182L9.93754 38.7183Z" fill="#FCDBF4" stroke="#F249C8" stroke-width="3" stroke-linecap="round" stroke-linejoin="round"/>
</svg>
