<svg width="56" height="56" viewBox="0 0 56 56" fill="none" xmlns="http://www.w3.org/2000/svg">
<path d="M32.7401 42.8495L29.5005 48.2489C29.345 48.508 29.1251 48.7225 28.8621 48.8714C28.5991 49.0202 28.3021 49.0985 27.9999 49.0985C27.6977 49.0985 27.4006 49.0202 27.1377 48.8714C26.8747 48.7225 26.6548 48.508 26.4993 48.2489L23.2597 42.8495C23.1042 42.5904 22.8843 42.3759 22.6213 42.227C22.3583 42.0782 22.0613 41.9999 21.7591 41.9999H8.74989C8.28576 41.9999 7.84064 41.8155 7.51246 41.4873C7.18427 41.1591 6.99989 40.714 6.99989 40.2499V12.25C6.99989 11.7859 7.18427 11.3408 7.51246 11.0126C7.84064 10.6844 8.28576 10.5 8.74989 10.5H47.2499C47.714 10.5 48.1591 10.6844 48.4873 11.0126C48.8155 11.3408 48.9999 11.7859 48.9999 12.25V40.25C48.9999 40.7141 48.8155 41.1592 48.4873 41.4874C48.1591 41.8156 47.714 42 47.2499 42L34.2407 41.9999C33.9385 41.9999 33.6415 42.0782 33.3785 42.2271C33.1155 42.3759 32.8956 42.5904 32.7401 42.8495V42.8495Z" fill="#C8AEFF" stroke="#7534FF" stroke-width="3" stroke-linecap="round" stroke-linejoin="round"/>
<path d="M21.0001 22.75H35.0001" stroke="#7534FF" stroke-width="3" stroke-linecap="round" stroke-linejoin="round"/>
<path d="M21.0001 29.75H35.0001" stroke="#7534FF" stroke-width="3" stroke-linecap="round" stroke-linejoin="round"/>
</svg>
