<svg width="56" height="56" viewBox="0 0 56 56" fill="none" xmlns="http://www.w3.org/2000/svg">
<path opacity="0.2" d="M49 19.25V43.9444C49 44.357 48.8361 44.7527 48.5444 45.0444C48.2527 45.3361 47.857 45.5 47.4444 45.5H8.75C8.28587 45.5 7.84075 45.3156 7.51256 44.9874C7.18437 44.6592 7 44.2141 7 43.75V14C7 13.5359 7.18437 13.0908 7.51256 12.7626C7.84075 12.4344 8.28587 12.25 8.75 12.25H20.4167C20.7953 12.25 21.1637 12.3728 21.4667 12.6L27.5333 17.15C27.8363 17.3772 28.2047 17.5 28.5833 17.5H47.25C47.7141 17.5 48.1592 17.6844 48.4874 18.0126C48.8156 18.3408 49 18.7859 49 19.25Z" fill="#0F9918"/>
<path d="M49 19.25V43.9444C49 44.357 48.8361 44.7527 48.5444 45.0444C48.2527 45.3361 47.857 45.5 47.4444 45.5H8.75C8.28587 45.5 7.84075 45.3156 7.51256 44.9874C7.18437 44.6592 7 44.2141 7 43.75V14C7 13.5359 7.18437 13.0908 7.51256 12.7626C7.84075 12.4344 8.28587 12.25 8.75 12.25H20.4167C20.7953 12.25 21.1637 12.3728 21.4667 12.6L27.5333 17.15C27.8363 17.3772 28.2047 17.5 28.5833 17.5H47.25C47.7141 17.5 48.1592 17.6844 48.4874 18.0126C48.8156 18.3408 49 18.7859 49 19.25Z" stroke="#0F9918" stroke-width="3" stroke-linecap="round" stroke-linejoin="round"/>
<path d="M22.7489 31.5H33.2489" stroke="#0F9918" stroke-width="3" stroke-linecap="round" stroke-linejoin="round"/>
<path d="M27.9989 26.25V36.75" stroke="#0F9918" stroke-width="3" stroke-linecap="round" stroke-linejoin="round"/>
</svg>
