<svg width="56" height="56" viewBox="0 0 56 56" fill="none" xmlns="http://www.w3.org/2000/svg">
<path d="M13.7424 33.896C12.1735 33.896 10.9019 34.9074 10.9019 37.2715C10.9019 39.6364 12.1736 40.647 13.7424 40.647C15.3112 40.647 16.5828 39.7338 16.5828 37.2715C16.5828 34.8419 15.3112 33.896 13.7424 33.896ZM13.7424 39.2289C13.1961 39.2289 12.7525 38.6422 12.7525 37.2715C12.7525 35.9008 13.1961 35.3141 13.7424 35.3141C14.2886 35.3141 14.7314 35.8629 14.7314 37.2715C14.7314 38.6991 14.2885 39.2289 13.7424 39.2289Z" fill="#F249C8"/>
<path d="M9.87382 34.5431V34.7467C9.77327 34.7419 9.67408 34.7403 9.57768 34.7403C8.63443 34.7403 7.91939 35.3489 7.59231 36.1949C7.60985 35.8996 7.63368 35.6061 7.66369 35.3146C8.15226 34.8259 8.84414 34.5322 9.6302 34.5322C9.71308 34.5322 9.79433 34.5359 9.87382 34.5431ZM7.57439 38.3009C7.89269 39.1718 8.61657 39.804 9.57776 39.804C9.67659 39.804 9.77586 39.7975 9.87391 39.7861V40.0004C9.79441 40.0075 9.71316 40.0112 9.63028 40.0112C8.82736 40.0112 8.12229 39.7048 7.63163 39.1975C7.60625 38.9003 7.58709 38.6014 7.57439 38.3009Z" fill="#353535" stroke="#F249C8" stroke-width="1.32719"/>
<path d="M45.0608 34.7467C44.9604 34.7419 44.8614 34.7403 44.7655 34.7403C43.454 34.7403 42.5839 35.9166 42.5839 37.2716C42.5839 38.6264 43.4537 39.8039 44.7655 39.8039C44.8639 39.8039 44.9629 39.7974 45.0608 39.7861V40.0004C44.9816 40.0075 44.9007 40.0111 44.8181 40.0111C43.2873 40.0111 42.0786 38.9023 42.0786 37.2717C42.0786 35.6419 43.2874 34.5322 44.8181 34.5322C44.9007 34.5322 44.9816 34.5359 45.0608 34.543V34.7467Z" fill="#353535" stroke="#F249C8" stroke-width="1.32719"/>
<path d="M23.4912 39.8133H23.1999L22.8074 36.0031L21.5283 35.9073L21.7787 34.7114H22.8309L23.4912 39.8133ZM17.4754 39.8133L18.1356 34.7114H19.188L19.4384 35.9073L18.1592 36.0031L17.7667 39.8133H17.4754ZM20.4682 39.8133L19.9486 37.7955H21.018L20.4984 39.8133H20.4833H20.4682Z" fill="#353535" stroke="#F249C8" stroke-width="1.32719"/>
<path d="M31.3474 39.8133H31.0561L30.6635 36.003L29.3844 35.9073L29.6348 34.7114H30.6872L31.3474 39.8133ZM25.3316 39.8133L25.9919 34.7114H27.0441L27.2946 35.9073L26.0154 36.003L25.6229 39.8133H25.3316ZM28.3244 39.8133L27.8048 37.7955H28.8742L28.3546 39.8133H28.3395H28.3244Z" fill="#353535" stroke="#F249C8" stroke-width="1.32719"/>
<path d="M36.1968 35.4092V34.0479H34.4193H33.5684H32.6797V40.4769H33.5684H34.4193H36.1968V39.1154H34.4193V37.9431H35.951V36.5816H34.4193V35.4092H36.1968Z" fill="#F249C8"/>
<path d="M47.9945 37.9429V39.1154H49.0413C49.0051 39.5738 48.9534 40.0278 48.8879 40.4766H46.2542V34.0479H48.8379C48.9111 34.4967 48.9688 34.9508 49.0119 35.409H47.9945V36.5816H49.0913C49.1025 36.8616 49.1077 37.1433 49.1077 37.4259C49.1077 37.5991 49.106 37.7714 49.1017 37.9428L47.9945 37.9429Z" fill="#F249C8"/>
<path d="M40.3044 37.5758C40.886 37.3148 41.359 36.8392 41.359 35.9578C41.359 34.4829 39.8651 34.0479 38.8063 34.0479H36.6886V40.4766H38.428V37.5267L39.8651 40.4766H41.6993L40.3044 37.5758ZM38.428 36.7797C38.409 36.7797 38.3901 36.7797 38.3711 36.7789V35.2876C38.3901 35.2868 38.409 35.2868 38.428 35.2868C39.069 35.2868 39.5885 35.4849 39.5885 36.0337C39.5885 36.6195 39.069 36.7797 38.428 36.7797Z" fill="#F249C8"/>
<path d="M26.6323 28.3947L26.5149 28.3257H26.3787H11.3712C9.65552 28.3257 8.25385 26.9156 8.25385 25.1628V13.1399C8.25385 11.3872 9.6553 9.97705 11.3712 9.97705H42.9057C44.6215 9.97705 46.0232 11.3871 46.0231 13.1399V25.1628C46.0231 26.9155 44.6216 28.3257 42.9057 28.3257H31.7016H31.0039L31.2282 28.9864L32.1241 31.6256L26.6323 28.3947Z" fill="#FAB6E9" stroke="#F249C8"/>
<path d="M15.2029 26.1076C15.1982 26.1076 15.1937 26.1076 15.1891 26.1075C14.8141 26.103 14.4651 25.9156 14.2543 25.6056C13.9212 25.1158 13.433 23.9866 12.6072 19.5653C12.1645 17.1956 11.8318 14.9639 11.8285 14.9417C11.7354 14.315 12.1679 13.7316 12.7947 13.6384C13.4209 13.5451 14.0048 13.9777 14.098 14.6045C14.1011 14.6263 14.4264 16.8069 14.8592 19.1266C15.1092 20.4666 15.3231 21.4662 15.5007 22.2099C16.5824 20.2164 17.9028 17.5357 18.484 16.325C18.6968 15.8818 19.1682 15.6235 19.6567 15.6829C20.145 15.7422 20.5408 16.1061 20.6412 16.5875C20.8312 17.4962 21.3234 19.3884 22.0226 21.1058C22.2805 18.664 22.7796 15.5652 23.731 13.6147C24.0087 13.0453 24.6956 12.8088 25.265 13.0866C25.8344 13.3644 26.0709 14.0512 25.7931 14.6206C24.2802 17.722 24.0537 24.787 24.0515 24.8581C24.0379 25.3157 23.7536 25.7214 23.3281 25.8901C22.9025 26.059 22.4174 25.9588 22.0937 25.6351C21.0659 24.6073 20.129 22.8361 19.3088 20.3707C19.2734 20.264 19.2389 20.1585 19.2053 20.0542C18.1997 22.0556 16.8778 24.5913 16.1357 25.6284C15.92 25.9292 15.5726 26.1076 15.2029 26.1076Z" fill="#F249C8"/>
<path d="M33.0114 16.4266C32.5336 15.4564 31.7131 14.7855 30.6411 14.4872C29.4183 14.1478 28.0937 14.5992 27.0971 15.6963C25.9143 16.9957 25.0514 19.4311 26.176 22.366C26.9463 24.3774 28.1578 24.7465 28.9405 24.7465C29.0251 24.7465 29.104 24.7419 29.1771 24.7352C31.2605 24.5374 33.0103 21.7808 33.3474 19.8906C33.5896 18.5364 33.4765 17.3706 33.0114 16.4266ZM31.0891 19.4871C30.9828 20.078 30.6137 20.8597 30.1463 21.478C29.6662 22.1145 29.1954 22.4289 28.9611 22.4505C28.8183 22.4642 28.5531 22.158 28.3189 21.5454C27.848 20.318 27.6903 18.4528 28.7943 17.2391C29.1234 16.8768 29.5063 16.6722 29.8355 16.6722C29.9017 16.6722 29.9657 16.6802 30.0263 16.6973C31.2548 17.0391 31.2822 18.4026 31.0891 19.4871Z" fill="#F249C8"/>
<path d="M41.5337 16.4266C41.2937 15.9421 40.9691 15.5306 40.5714 15.2049C40.1714 14.8792 39.6982 14.6369 39.1622 14.4872C37.9405 14.1478 36.616 14.5992 35.6182 15.6963C34.4365 16.9957 33.5737 19.4311 34.6971 22.366C35.4674 24.3774 36.6788 24.7465 37.4616 24.7465C37.5462 24.7465 37.6262 24.7419 37.6993 24.7352C39.7816 24.5374 41.5313 21.7808 41.8685 19.8906C42.1108 18.5364 41.9976 17.3706 41.5337 16.4266ZM39.6102 19.4871C39.5051 20.078 39.1347 20.8597 38.6685 21.478C38.1873 22.1145 37.7165 22.4289 37.4822 22.4505C37.3404 22.4642 37.0742 22.158 36.8399 21.5454C36.3702 20.318 36.2126 18.4528 37.3154 17.2391C37.6457 16.8768 38.0285 16.6722 38.3565 16.6722C38.4228 16.6722 38.4868 16.6802 38.5485 16.6973C39.7771 17.0391 39.8034 18.4026 39.6102 19.4871Z" fill="#F249C8"/>
</svg>
