<svg width="156" height="88" viewBox="0 0 156 88" fill="none" xmlns="http://www.w3.org/2000/svg">
<rect x="0.5" width="155" height="88" rx="8" fill="white"/>
<path d="M110.837 37.0402C113.261 41.394 115.688 45.7448 118.111 50.0985C117.277 50.0985 116.397 50.0583 115.562 50.0985C114.978 49.1301 114.474 48.1243 113.932 47.1558C111.8 47.0754 109.627 47.1558 107.492 47.1156C106.991 48.1243 106.404 49.0899 105.861 50.0583H103.354C105.778 45.7046 108.243 41.3537 110.837 37.0402ZM108.535 45.3023C109.999 45.3023 111.463 45.3023 112.924 45.3425C112.173 44.0119 111.544 42.6814 110.751 41.394C109.979 42.6791 109.241 43.9822 108.535 45.3023ZM119.489 37C123.126 40.0634 126.805 43.1268 130.4 46.2276C130.484 43.4056 130.4 40.6267 130.484 37.8047C131.277 37.8047 132.031 37.8449 132.824 37.8449C132.782 42.1584 132.824 46.5092 132.824 50.8227C130.442 48.8887 128.099 46.8742 125.758 44.8999C124.42 43.8108 123.126 42.7245 121.871 41.5549C121.829 44.4171 121.871 47.2363 121.829 50.0985H119.489C119.489 45.7046 119.447 41.3537 119.489 37ZM42.2287 50.0583C44.736 45.7046 47.2045 41.3135 49.7952 37C52.219 41.3537 54.604 45.7046 57.0695 50.0583H54.4788C53.9381 49.0898 53.4222 48.1086 52.9315 47.1156C50.7581 47.0754 48.6265 47.1156 46.4502 47.1156C45.9076 48.084 45.362 49.0899 44.7777 50.0583C43.9012 50.0985 43.0635 50.0985 42.2287 50.0583ZM47.4966 45.3023H51.9268C51.1755 43.9717 50.5465 42.6412 49.7535 41.3537C48.9604 42.6814 48.2479 43.9717 47.4966 45.3023ZM78.183 38.1696C79.4381 37.5661 80.8602 37.5259 82.1958 37.7673C83.3674 38.0087 84.2857 38.8162 84.9982 39.6611C84.3721 39.983 83.7431 40.2646 83.117 40.5893C82.2823 39.3392 80.3146 38.9369 79.1042 39.9054C78.4781 40.3479 78.5199 41.4371 79.2294 41.7589C80.8602 42.6038 82.8249 42.8078 84.2469 43.9746C85.7107 45.1844 85.669 47.561 84.2887 48.8111C82.8249 50.2221 80.5263 50.544 78.6034 50.0209C76.9726 49.6186 75.7592 48.2076 75.5505 46.6357C76.3435 46.4747 77.1395 46.354 77.9326 46.2334C78.016 46.9575 78.3082 47.8053 79.0625 48.1674C80.1924 48.7709 81.8649 48.6099 82.6579 47.5237C83.2005 46.7995 83.0335 45.6701 82.2823 45.1471C80.6932 44.1384 78.6034 44.0579 77.1395 42.7705C76.3883 42.167 76.0931 41.1181 76.3465 40.1899C76.5522 39.2559 77.3482 38.5719 78.183 38.1696ZM57.8238 37.888C58.7003 37.7673 59.6215 37.8075 60.501 37.8075C61.4639 39.1783 62.4239 40.5491 63.3451 41.917C64.3498 40.5462 65.3098 39.1754 66.3145 37.8478C67.2357 37.8075 68.1539 37.8075 69.0752 37.8478C67.6114 39.7818 66.1475 41.7158 64.7285 43.6901C66.1923 45.8655 67.823 47.9202 69.2868 50.1388H66.6544C65.5245 48.6071 64.4393 47.0351 63.3511 45.5034C62.2212 47.0351 61.0525 48.5668 59.9226 50.1388H57.2901C58.8374 47.9633 60.4265 45.8684 62.0572 43.7303C60.6232 41.7561 59.2041 39.822 57.8238 37.888ZM71.2426 37.8449C72.0221 37.8046 72.8033 37.8046 73.5829 37.8449V50.0957H71.2008C71.2426 45.9862 71.2008 41.917 71.2426 37.8449ZM94.1955 37.8047C96.2019 37.8851 98.3752 37.523 100.256 38.4886C102.054 39.4168 102.472 42.1957 100.799 43.4458C101.845 43.8481 102.889 44.6154 103.139 45.7017C103.598 47.0725 102.805 48.564 101.55 49.2881C99.2935 50.498 96.658 49.9319 94.1925 50.0928C94.1537 46.0264 94.1955 41.917 94.1955 37.8047ZM96.5388 39.5806V43.0866C97.4153 43.0464 98.3782 43.0866 99.1295 42.5636C99.8808 41.9199 99.8808 40.5491 99.0043 39.983C98.2947 39.5375 97.3735 39.5806 96.5388 39.5806ZM96.5388 44.6959V48.2823C97.7104 48.2421 98.9626 48.4433 100.051 47.88C101.014 47.4375 101.181 45.946 100.301 45.3425C99.2547 44.4947 97.8326 44.6959 96.5388 44.6959ZM135.588 37.8047H137.928V42.6412C139.851 40.9888 141.816 39.4168 143.78 37.7644H147C144.701 39.5778 142.4 41.4313 140.101 43.3251C142.358 45.6212 144.66 47.7995 146.958 50.0152C145.912 50.0152 144.827 50.0957 143.78 49.975C141.941 48.2019 140.143 46.3885 138.345 44.5752L137.97 45.058C137.928 46.7104 137.97 48.3628 137.928 50.0152H135.546C135.546 45.9862 135.546 41.917 135.588 37.8047Z" fill="#AE285D"/>
<path d="M26.0316 31C27.6789 33.6642 29.3261 36.2985 30.9123 38.9627C28.3138 43.3028 25.7153 47.6748 23.0219 51.9849C21.9757 53.6308 20.9928 55.3088 19.9489 56.9547C16.6228 56.9846 13.2945 56.9846 10 56.9547C10.0949 56.7455 10.1898 56.5363 10.3163 56.3271C15.5744 47.884 20.8346 39.473 26.0316 31ZM26.0316 47.1667C29.3577 47.1667 32.6861 47.1368 36.0121 47.1966C38.0073 50.4607 40.0364 53.6927 42 56.9867C38.6739 57.0166 35.3456 56.9867 32.0195 56.9867C30.0559 53.6927 27.9952 50.4585 26.0316 47.1667Z" fill="#AE285D"/>
</svg>
