<svg width="24" height="24" viewBox="0 0 24 24" fill="none" xmlns="http://www.w3.org/2000/svg">
<path d="M7.8051 6.36V3.79999C7.8051 3.23999 8.2451 2.79999 8.8051 2.79999C9.3651 2.79999 9.8051 3.23999 9.8051 3.79999V6.36C9.8051 6.92 9.3651 7.36 8.8051 7.36C8.2451 7.36 7.8051 6.92 7.8051 6.36ZM15.2051 7.36C15.7651 7.36 16.2051 6.92 16.2051 6.36V3.79999C16.2051 3.23999 15.7651 2.79999 15.2051 2.79999C14.6451 2.79999 14.2051 3.23999 14.2051 3.79999V6.36C14.2051 6.92 14.6451 7.36 15.2051 7.36ZM8.4451 10.8H15.5451C15.9851 10.8 16.3451 10.44 16.3451 9.99999C16.3451 9.55999 15.9851 9.19999 15.5451 9.19999H8.4451C8.0051 9.19999 7.6451 9.55999 7.6451 9.99999C7.6451 10.44 8.0051 10.8 8.4451 10.8ZM19.6051 4.19999H17.9451C17.5051 4.19999 17.1451 4.55999 17.1451 4.99999C17.1451 5.43999 17.5051 5.79999 17.9451 5.79999H18.8051V19.4H5.2051V5.79999H6.0651C6.5051 5.79999 6.8651 5.43999 6.8651 4.99999C6.8651 4.55999 6.5051 4.19999 6.0651 4.19999H4.4051C3.9651 4.19999 3.6051 4.63997 3.6051 5.07997V20.2C3.6051 20.64 3.9651 21 4.4051 21H19.6051C20.0451 21 20.4051 20.64 20.4051 20.2V5.07997C20.4051 4.63997 20.0451 4.19999 19.6051 4.19999ZM11.3451 5.79999H12.6651C13.1051 5.79999 13.4651 5.43999 13.4651 4.99999C13.4651 4.55999 13.1051 4.19999 12.6651 4.19999H11.3451C10.9051 4.19999 10.5451 4.55999 10.5451 4.99999C10.5451 5.43999 10.9051 5.79999 11.3451 5.79999ZM8.4451 14.4H15.5451C15.9851 14.4 16.3451 14.04 16.3451 13.6C16.3451 13.16 15.9851 12.8 15.5451 12.8H8.4451C8.0051 12.8 7.6451 13.16 7.6451 13.6C7.6451 14.04 8.0051 14.4 8.4451 14.4Z" fill="#0B63E5"/>
</svg>
