<svg width="24" height="24" viewBox="0 0 24 24" fill="none" xmlns="http://www.w3.org/2000/svg">
<path d="M3 6C3 4.34315 4.34315 3 6 3H12.5C14.1569 3 15.5 4.34315 15.5 6V18C15.5 19.6569 14.1569 21 12.5 21H6C4.34315 21 3 19.6569 3 18V6Z" fill="#3448FF"/>
<path fill-rule="evenodd" clip-rule="evenodd" d="M5 10.25C5 9.83579 5.33579 9.5 5.75 9.5H10.25C10.6642 9.5 11 9.83579 11 10.25C11 10.6642 10.6642 11 10.25 11H5.75C5.33579 11 5 10.6642 5 10.25Z" fill="white"/>
<path fill-rule="evenodd" clip-rule="evenodd" d="M5 13.75C5 13.3358 5.33579 13 5.75 13H12.25C12.6642 13 13 13.3358 13 13.75C13 14.1642 12.6642 14.5 12.25 14.5H5.75C5.33579 14.5 5 14.1642 5 13.75Z" fill="white"/>
<path d="M17.5 4.5C17.5 3.94772 17.9477 3.5 18.5 3.5H20C20.5523 3.5 21 3.94772 21 4.5V18.1848C21 18.3899 20.9369 18.5902 20.8192 18.7582L19.7415 20.2978C19.5027 20.639 18.9973 20.639 18.7585 20.2978L17.6808 18.7582C17.5631 18.5902 17.5 18.3899 17.5 18.1848V4.5Z" fill="#52B9F3"/>
</svg>
