<svg width="453" height="445" viewBox="0 0 453 445" fill="none" xmlns="http://www.w3.org/2000/svg">
<g opacity="0.5">
<path d="M226 215V9" stroke="#0B63E5"/>
<path d="M226 215L421.918 151.343" stroke="#0B63E5"/>
<path d="M226 215L347.084 381.657" stroke="#0B63E5"/>
<path d="M226 215L104.916 381.657" stroke="#0B63E5"/>
<path d="M226 215L30.0825 151.343" stroke="#0B63E5"/>
<path d="M226 421C339.771 421 432 328.771 432 215C432 101.229 339.771 9 226 9C112.229 9 20 101.229 20 215C20 328.771 112.229 421 226 421Z" stroke="#0B63E5"/>
<path d="M226 379.8C317.017 379.8 390.8 306.017 390.8 215C390.8 123.984 317.017 50.2002 226 50.2002C134.984 50.2002 61.2002 123.984 61.2002 215C61.2002 306.017 134.984 379.8 226 379.8Z" stroke="#0B63E5"/>
<path d="M226 338.6C294.262 338.6 349.6 283.262 349.6 215C349.6 146.738 294.262 91.3999 226 91.3999C157.738 91.3999 102.4 146.738 102.4 215C102.4 283.262 157.738 338.6 226 338.6Z" stroke="#0B63E5"/>
<path d="M226 297.4C271.508 297.4 308.4 260.508 308.4 215C308.4 169.492 271.508 132.6 226 132.6C180.492 132.6 143.6 169.492 143.6 215C143.6 260.508 180.492 297.4 226 297.4Z" stroke="#0B63E5"/>
<path d="M226 256.2C248.754 256.2 267.2 237.754 267.2 215C267.2 192.246 248.754 173.8 226 173.8C203.246 173.8 184.8 192.246 184.8 215C184.8 237.754 203.246 256.2 226 256.2Z" stroke="#0B63E5"/>
<g style="mix-blend-mode:multiply">
<path d="M225.854 120.673L396.075 160.789L298.116 314.259L150.323 319.161L90.5864 171.001L225.854 120.673Z" fill="#CEE0FA"/>
<path d="M225.854 120.673L396.075 160.789L298.116 314.259L150.323 319.161L90.5864 171.001L225.854 120.673Z" stroke="#0B63E5" stroke-width="2"/>
</g>
<g style="mix-blend-mode:multiply">
<path d="M226 62.0146L349.889 174.746L278.529 287.3L201.071 249.312L67.5371 163.512L226 62.0146Z" fill="#CEE0FA"/>
<path d="M226 62.0146L349.889 174.746L278.529 287.3L201.071 249.312L67.5371 163.512L226 62.0146Z" stroke="#0B63E5" stroke-width="2"/>
</g>
</g>
<g filter="url(#filter0_dd_5402_3951)">
<rect x="5" y="207" width="34" height="34" rx="17" fill="white"/>
<path d="M30.6668 217V230C30.6668 230.442 30.4912 230.866 30.1787 231.178C29.8661 231.491 29.4422 231.667 29.0002 231.667H15.0002C14.5581 231.667 14.1342 231.491 13.8217 231.178C13.5091 230.866 13.3335 230.442 13.3335 230V217L13.6668 216.667H30.3335L30.6668 217Z" fill="#2A2A49"/>
<path d="M30.6668 216V217H13.3335V216C13.3335 215.558 13.5091 215.134 13.8217 214.822C14.1342 214.509 14.5581 214.333 15.0002 214.333H29.0002C29.219 214.333 29.4358 214.377 29.638 214.46C29.8402 214.544 30.0239 214.667 30.1787 214.822C30.3334 214.976 30.4562 215.16 30.54 215.362C30.6237 215.565 30.6668 215.781 30.6668 216Z" fill="#444477"/>
<path d="M20.6238 229.667H19.9998V233C19.9993 233.177 19.9289 233.346 19.8039 233.471C19.679 233.596 19.5098 233.666 19.3331 233.667H17.3331C17.1565 233.666 16.9872 233.596 16.8623 233.471C16.7374 233.346 16.667 233.177 16.6665 233V229.667H16.0425C15.904 229.665 15.7691 229.623 15.6539 229.546C15.5387 229.469 15.448 229.361 15.3928 229.234C15.3375 229.107 15.3201 228.967 15.3425 228.83C15.3649 228.694 15.4262 228.566 15.5191 228.464L17.8098 225.904C17.8751 225.829 17.9555 225.77 18.0458 225.729C18.1361 225.688 18.234 225.667 18.3331 225.667C18.4322 225.667 18.5302 225.688 18.6204 225.729C18.7107 225.77 18.7912 225.829 18.8565 225.904L21.1471 228.464C21.24 228.566 21.3013 228.694 21.3237 228.83C21.3461 228.967 21.3287 229.107 21.2735 229.234C21.2182 229.361 21.1276 229.469 21.0124 229.546C20.8971 229.623 20.7622 229.665 20.6238 229.667Z" fill="#25E572"/>
<path d="M23.3758 229.667H23.9998V226.333C24.0003 226.157 24.0707 225.987 24.1956 225.862C24.3205 225.737 24.4898 225.667 24.6665 225.667H26.6665C26.8431 225.667 27.0124 225.737 27.1373 225.862C27.2622 225.987 27.3326 226.157 27.3331 226.333V229.667H27.9568C28.0952 229.669 28.2301 229.71 28.3454 229.787C28.4606 229.864 28.5512 229.972 28.6065 230.099C28.6617 230.226 28.6792 230.366 28.6567 230.503C28.6343 230.64 28.573 230.767 28.4801 230.87L26.1895 233.43C26.1242 233.504 26.0437 233.564 25.9534 233.605C25.8632 233.646 25.7652 233.667 25.6661 233.667C25.567 233.667 25.4691 233.646 25.3788 233.605C25.2886 233.564 25.2081 233.504 25.1428 233.43L22.8521 230.87C22.7592 230.767 22.6979 230.64 22.6755 230.503C22.6531 230.366 22.6706 230.226 22.7259 230.099C22.7811 229.972 22.8718 229.864 22.9871 229.787C23.1024 229.71 23.2373 229.668 23.3758 229.667Z" fill="#FF4D4D"/>
<path d="M25.9998 222.667H25.3332V220H25.9998C26.0882 220 26.173 219.965 26.2355 219.903C26.2981 219.84 26.3332 219.755 26.3332 219.667C26.3332 219.578 26.2981 219.494 26.2355 219.431C26.173 219.369 26.0882 219.333 25.9998 219.333H23.9998C23.9114 219.333 23.8266 219.369 23.7641 219.431C23.7016 219.494 23.6665 219.578 23.6665 219.667C23.6665 219.755 23.7016 219.84 23.7641 219.903C23.8266 219.965 23.9114 220 23.9998 220H24.6665V222.667H23.9998C23.9114 222.667 23.8266 222.702 23.7641 222.764C23.7016 222.827 23.6665 222.912 23.6665 223C23.6665 223.089 23.7016 223.173 23.7641 223.236C23.8266 223.298 23.9114 223.333 23.9998 223.333H25.9998C26.0882 223.333 26.173 223.298 26.2355 223.236C26.2981 223.173 26.3332 223.089 26.3332 223C26.3332 222.912 26.2981 222.827 26.2355 222.764C26.173 222.702 26.0882 222.667 25.9998 222.667Z" fill="white"/>
<path d="M19.1667 219.333C18.8572 219.333 18.5605 219.456 18.3417 219.675C18.1229 219.894 18 220.191 18 220.5V223C18 223.089 18.0351 223.173 18.0976 223.236C18.1601 223.298 18.2449 223.333 18.3333 223.333C18.4217 223.333 18.5065 223.298 18.569 223.236C18.6315 223.173 18.6667 223.089 18.6667 223V221.667H19.6667V223C19.6667 223.089 19.7018 223.173 19.7643 223.236C19.8268 223.298 19.9116 223.333 20 223.333C20.0884 223.333 20.1732 223.298 20.2357 223.236C20.2982 223.173 20.3333 223.089 20.3333 223V220.5C20.3333 220.191 20.2104 219.894 19.9916 219.675C19.7728 219.456 19.4761 219.333 19.1667 219.333ZM18.6667 221V220.5C18.6667 220.368 18.7193 220.24 18.8131 220.147C18.9069 220.053 19.0341 220 19.1667 220C19.2993 220 19.4265 220.053 19.5202 220.147C19.614 220.24 19.6667 220.368 19.6667 220.5V221H18.6667Z" fill="white"/>
<path d="M22.1667 219.333H21.3333C21.2449 219.333 21.1601 219.369 21.0976 219.431C21.0351 219.494 21 219.578 21 219.667V223C21 223.089 21.0351 223.173 21.0976 223.236C21.1601 223.298 21.2449 223.333 21.3333 223.333C21.4217 223.333 21.5065 223.298 21.569 223.236C21.6315 223.173 21.6667 223.089 21.6667 223V221.667H22.1667C22.4761 221.667 22.7728 221.544 22.9916 221.325C23.2104 221.106 23.3333 220.81 23.3333 220.5C23.3333 220.191 23.2104 219.894 22.9916 219.675C22.7728 219.456 22.4761 219.333 22.1667 219.333ZM22.1667 221H21.6667V220H22.1667C22.2993 220 22.4265 220.053 22.5202 220.147C22.614 220.24 22.6667 220.368 22.6667 220.5C22.6667 220.633 22.614 220.76 22.5202 220.854C22.4265 220.947 22.2993 221 22.1667 221Z" fill="white"/>
<path d="M15.3332 216H14.9998C14.9114 216 14.8266 215.965 14.7641 215.903C14.7016 215.84 14.6665 215.755 14.6665 215.667C14.6665 215.578 14.7016 215.494 14.7641 215.431C14.8266 215.369 14.9114 215.333 14.9998 215.333H15.3332C15.4216 215.333 15.5064 215.369 15.5689 215.431C15.6314 215.494 15.6665 215.578 15.6665 215.667C15.6665 215.755 15.6314 215.84 15.5689 215.903C15.5064 215.965 15.4216 216 15.3332 216Z" fill="#FF4D4D"/>
<path d="M17.0002 216H16.6668C16.5784 216 16.4936 215.965 16.4311 215.903C16.3686 215.84 16.3335 215.755 16.3335 215.667C16.3335 215.578 16.3686 215.494 16.4311 215.431C16.4936 215.369 16.5784 215.333 16.6668 215.333H17.0002C17.0886 215.333 17.1734 215.369 17.2359 215.431C17.2984 215.494 17.3335 215.578 17.3335 215.667C17.3335 215.755 17.2984 215.84 17.2359 215.903C17.1734 215.965 17.0886 216 17.0002 216Z" fill="#F7BB26"/>
<path d="M18.6667 216H18.3333C18.2449 216 18.1601 215.965 18.0976 215.903C18.0351 215.84 18 215.755 18 215.667C18 215.578 18.0351 215.494 18.0976 215.431C18.1601 215.369 18.2449 215.333 18.3333 215.333H18.6667C18.7551 215.333 18.8399 215.369 18.9024 215.431C18.9649 215.494 19 215.578 19 215.667C19 215.755 18.9649 215.84 18.9024 215.903C18.8399 215.965 18.7551 216 18.6667 216Z" fill="#25E572"/>
<path d="M27.3332 216H21.9998C21.9114 216 21.8266 215.965 21.7641 215.903C21.7016 215.84 21.6665 215.755 21.6665 215.667C21.6665 215.578 21.7016 215.494 21.7641 215.431C21.8266 215.369 21.9114 215.333 21.9998 215.333H27.3332C27.4216 215.333 27.5064 215.369 27.5689 215.431C27.6314 215.494 27.6665 215.578 27.6665 215.667C27.6665 215.755 27.6314 215.84 27.5689 215.903C27.5064 215.965 27.4216 216 27.3332 216Z" fill="#2A2A49"/>
</g>
<g filter="url(#filter1_dd_5402_3951)">
<rect x="28" y="62" width="58" height="59" rx="29" fill="white"/>
<path d="M58.8164 78.3164H55.1836C47.9138 78.3164 42 84.2302 42 91.5C42 94.7281 43.1518 97.7777 45.2616 100.181L42.2575 103.183C42.0069 103.435 41.9313 103.812 42.0669 104.141C42.2026 104.469 42.5236 104.684 42.8789 104.684H58.8164C66.0863 104.684 72 98.7698 72 91.5C72 84.2302 66.0863 78.3164 58.8164 78.3164Z" fill="url(#paint0_linear_5402_3951)"/>
<path d="M58.9604 87.1287C58.5536 87.0386 58.1535 87.2265 57.9716 87.5913L57 89.5345L56.0284 87.5913C55.8465 87.2265 55.4447 87.0385 55.0396 87.1286C54.6431 87.2222 54.3633 87.5767 54.3633 87.9844V95.0156C54.3633 95.5014 54.7564 95.8945 55.2422 95.8945C55.728 95.8945 56.1211 95.5014 56.1211 95.0156V91.7077L56.2138 91.8931C56.5125 92.4888 57.4875 92.4888 57.7862 91.8931L57.8789 91.7077V95.0156C57.8789 95.5014 58.272 95.8945 58.7578 95.8945C59.2436 95.8945 59.6367 95.5014 59.6367 95.0156V87.9844C59.6367 87.5767 59.3569 87.2222 58.9604 87.1287ZM64.0312 90.6211C63.5471 90.6211 63.1523 90.2271 63.1523 89.7422C63.1523 89.0221 64.1463 88.6127 64.6509 89.1199C64.9942 89.465 65.5522 89.4632 65.8955 89.1216C66.2388 88.7791 66.2388 88.2221 65.8972 87.8788C65.3994 87.3802 64.7368 87.1055 64.0312 87.1055C62.5773 87.1055 61.3945 88.2882 61.3945 89.7422C61.3945 91.1961 62.5773 92.3789 64.0312 92.3789C64.5154 92.3789 64.9102 92.7729 64.9102 93.2578C64.9102 93.9779 63.9162 94.3873 63.4116 93.8801C63.0683 93.535 62.5103 93.5368 62.167 93.8784C61.8237 94.2209 61.8237 94.7779 62.1653 95.1212C62.6631 95.6198 63.3257 95.8945 64.0312 95.8945C65.4852 95.8945 66.668 94.7118 66.668 93.2578C66.668 91.8039 65.4852 90.6211 64.0312 90.6211ZM49.9688 90.6211C49.4846 90.6211 49.0898 90.2271 49.0898 89.7422C49.0898 89.0221 50.0838 88.6127 50.5884 89.1199C50.9317 89.465 51.4897 89.4632 51.833 89.1216C52.1763 88.7791 52.1763 88.2221 51.8347 87.8788C51.3369 87.3802 50.6743 87.1055 49.9688 87.1055C48.5148 87.1055 47.332 88.2882 47.332 89.7422C47.332 91.1961 48.5148 92.3789 49.9688 92.3789C50.4529 92.3789 50.8477 92.7729 50.8477 93.2578C50.8477 93.9779 49.8537 94.3873 49.3491 93.8801C49.0058 93.535 48.4478 93.5368 48.1045 93.8784C47.7612 94.2209 47.7612 94.7779 48.1028 95.1212C48.6006 95.6198 49.2632 95.8945 49.9688 95.8945C51.4227 95.8945 52.6055 94.7118 52.6055 93.2578C52.6055 91.8039 51.4227 90.6211 49.9688 90.6211Z" fill="url(#paint1_linear_5402_3951)"/>
</g>
<g filter="url(#filter2_dd_5402_3951)">
<rect x="258" y="362" width="33" height="33" rx="16.5" fill="white"/>
<g clip-path="url(#clip0_5402_3951)">
<path d="M274.5 388.809C279.772 388.809 284.045 384.536 284.045 379.264C284.045 373.992 279.772 369.718 274.5 369.718C269.228 369.718 264.955 373.992 264.955 379.264C264.955 384.536 269.228 388.809 274.5 388.809Z" fill="#E7EFFF"/>
<path d="M264.764 371.436C265.08 371.436 265.336 371.18 265.336 370.864C265.336 370.547 265.08 370.291 264.764 370.291C264.447 370.291 264.191 370.547 264.191 370.864C264.191 371.18 264.447 371.436 264.764 371.436Z" fill="#FFA100"/>
<path d="M282.327 369.336C282.643 369.336 282.9 369.08 282.9 368.764C282.9 368.447 282.643 368.191 282.327 368.191C282.011 368.191 281.754 368.447 281.754 368.764C281.754 369.08 282.011 369.336 282.327 369.336Z" fill="#00C99F"/>
<path d="M284.236 388.045C284.553 388.045 284.809 387.789 284.809 387.473C284.809 387.156 284.553 386.9 284.236 386.9C283.92 386.9 283.664 387.156 283.664 387.473C283.664 387.789 283.92 388.045 284.236 388.045Z" fill="#FF4D69"/>
<path d="M266.1 387.664C266.416 387.664 266.673 387.407 266.673 387.091C266.673 386.774 266.416 386.518 266.1 386.518C265.784 386.518 265.527 386.774 265.527 387.091C265.527 387.407 265.784 387.664 266.1 387.664Z" fill="#00C99F"/>
<path d="M277.555 372.2V384.418C277.555 385.127 277.273 385.807 276.772 386.308C276.271 386.809 275.591 387.091 274.882 387.091C269.132 387.091 269.346 387.118 268.945 387.024C268.19 386.486 267.519 385.839 266.953 385.106C266.827 384.636 266.864 385.531 266.864 372.2C266.864 371.491 267.145 370.811 267.647 370.31C268.148 369.809 268.828 369.527 269.536 369.527H274.882C275.591 369.527 276.271 369.809 276.772 370.31C277.273 370.811 277.555 371.491 277.555 372.2Z" fill="#A5BCED"/>
<path d="M275.073 370.673H269.346C268.608 370.673 268.009 371.271 268.009 372.009V384.609C268.009 385.347 268.608 385.946 269.346 385.946H275.073C275.811 385.946 276.409 385.347 276.409 384.609V372.009C276.409 371.271 275.811 370.673 275.073 370.673Z" fill="white"/>
<path d="M269.918 370.482H274.5V371.055C274.5 371.257 274.419 371.451 274.276 371.595C274.133 371.738 273.939 371.818 273.736 371.818H270.682C270.479 371.818 270.285 371.738 270.142 371.595C269.998 371.451 269.918 371.257 269.918 371.055V370.482Z" fill="#A5BCED"/>
<path d="M271.827 371.246H271.063C270.962 371.246 270.865 371.205 270.793 371.134C270.722 371.062 270.682 370.965 270.682 370.864C270.682 370.762 270.722 370.665 270.793 370.594C270.865 370.522 270.962 370.482 271.063 370.482H271.827C271.928 370.482 272.025 370.522 272.097 370.594C272.169 370.665 272.209 370.762 272.209 370.864C272.209 370.965 272.169 371.062 272.097 371.134C272.025 371.205 271.928 371.246 271.827 371.246Z" fill="#7F96D1"/>
<path d="M273.354 371.246C273.565 371.246 273.736 371.075 273.736 370.864C273.736 370.653 273.565 370.482 273.354 370.482C273.144 370.482 272.973 370.653 272.973 370.864C272.973 371.075 273.144 371.246 273.354 371.246Z" fill="#7F96D1"/>
<path d="M281.182 374.491H271.254C271.052 374.491 270.858 374.571 270.714 374.714C270.571 374.858 270.491 375.052 270.491 375.254V381.745C270.491 381.948 270.571 382.142 270.714 382.285C270.858 382.428 271.052 382.509 271.254 382.509H271.445V383.463C271.445 383.514 271.465 383.563 271.501 383.598C271.537 383.634 271.586 383.654 271.636 383.654C271.728 383.654 271.636 383.704 273.226 382.509H281.182C281.384 382.509 281.578 382.428 281.722 382.285C281.865 382.142 281.945 381.948 281.945 381.745V375.254C281.945 375.052 281.865 374.858 281.722 374.714C281.578 374.571 281.384 374.491 281.182 374.491Z" fill="#4E6AFF"/>
<path d="M272.782 377.354H273.545C273.647 377.354 273.744 377.314 273.815 377.243C273.887 377.171 273.927 377.074 273.927 376.973C273.927 376.871 273.887 376.774 273.815 376.703C273.744 376.631 273.647 376.591 273.545 376.591H272.782C272.478 376.591 272.187 376.712 271.972 376.926C271.757 377.141 271.636 377.432 271.636 377.736C271.636 378.04 271.757 378.331 271.972 378.546C272.187 378.761 272.478 378.882 272.782 378.882C272.883 378.882 272.98 378.922 273.052 378.994C273.123 379.065 273.164 379.162 273.164 379.264C273.164 379.365 273.123 379.462 273.052 379.534C272.98 379.605 272.883 379.645 272.782 379.645H272.018C271.917 379.645 271.82 379.686 271.748 379.757C271.676 379.829 271.636 379.926 271.636 380.027C271.636 380.128 271.676 380.226 271.748 380.297C271.82 380.369 271.917 380.409 272.018 380.409H272.782C273.085 380.409 273.377 380.288 273.592 380.074C273.806 379.859 273.927 379.567 273.927 379.264C273.927 378.96 273.806 378.668 273.592 378.454C273.377 378.239 273.085 378.118 272.782 378.118C272.68 378.118 272.583 378.078 272.512 378.006C272.44 377.935 272.4 377.838 272.4 377.736C272.4 377.635 272.44 377.538 272.512 377.466C272.583 377.395 272.68 377.354 272.782 377.354Z" fill="white"/>
<path d="M279.654 378.118C279.553 378.118 279.456 378.078 279.384 378.006C279.313 377.935 279.272 377.838 279.272 377.736C279.272 377.635 279.313 377.538 279.384 377.466C279.456 377.395 279.553 377.354 279.654 377.354H280.418C280.519 377.354 280.616 377.314 280.688 377.243C280.759 377.171 280.8 377.074 280.8 376.973C280.8 376.871 280.759 376.774 280.688 376.703C280.616 376.631 280.519 376.591 280.418 376.591H279.654C279.35 376.591 279.059 376.712 278.844 376.926C278.629 377.141 278.509 377.432 278.509 377.736C278.509 378.04 278.629 378.331 278.844 378.546C279.059 378.761 279.35 378.882 279.654 378.882C279.756 378.882 279.853 378.922 279.924 378.994C279.996 379.065 280.036 379.162 280.036 379.264C280.036 379.365 279.996 379.462 279.924 379.534C279.853 379.605 279.756 379.645 279.654 379.645H278.891C278.789 379.645 278.692 379.686 278.621 379.757C278.549 379.829 278.509 379.926 278.509 380.027C278.509 380.128 278.549 380.226 278.621 380.297C278.692 380.369 278.789 380.409 278.891 380.409H279.654C279.958 380.409 280.249 380.288 280.464 380.074C280.679 379.859 280.8 379.567 280.8 379.264C280.8 378.96 280.679 378.668 280.464 378.454C280.249 378.239 279.958 378.118 279.654 378.118Z" fill="white"/>
<path d="M277.058 376.744L276.218 377.864L275.378 376.744C275.33 376.679 275.263 376.632 275.187 376.608C275.11 376.584 275.028 376.585 274.952 376.61C274.876 376.636 274.81 376.684 274.763 376.749C274.716 376.814 274.691 376.893 274.691 376.973V380.027C274.691 380.128 274.731 380.226 274.803 380.297C274.874 380.369 274.971 380.409 275.073 380.409C275.174 380.409 275.271 380.369 275.343 380.297C275.414 380.226 275.455 380.128 275.455 380.027V378.118L275.913 378.729C275.948 378.776 275.994 378.815 276.047 378.841C276.1 378.868 276.159 378.882 276.218 378.882C276.277 378.882 276.336 378.868 276.389 378.841C276.442 378.815 276.488 378.776 276.524 378.729L276.982 378.118V380.027C276.982 380.128 277.022 380.226 277.094 380.297C277.165 380.369 277.262 380.409 277.364 380.409C277.465 380.409 277.562 380.369 277.634 380.297C277.705 380.226 277.745 380.128 277.745 380.027V376.973C277.745 376.893 277.72 376.814 277.673 376.749C277.627 376.684 277.56 376.636 277.484 376.61C277.408 376.585 277.326 376.584 277.25 376.608C277.173 376.632 277.106 376.679 277.058 376.744Z" fill="white"/>
<path d="M281.945 376.4C283 376.4 283.854 375.545 283.854 374.491C283.854 373.437 283 372.582 281.945 372.582C280.891 372.582 280.036 373.437 280.036 374.491C280.036 375.545 280.891 376.4 281.945 376.4Z" fill="#FF4D69"/>
<path d="M281.946 375.446C281.895 375.446 281.846 375.426 281.811 375.39C281.775 375.354 281.755 375.305 281.755 375.255V374.037L281.65 374.088C281.627 374.102 281.602 374.111 281.576 374.114C281.55 374.117 281.524 374.115 281.498 374.108C281.473 374.101 281.45 374.088 281.43 374.072C281.409 374.055 281.393 374.034 281.381 374.011C281.369 373.987 281.362 373.962 281.361 373.936C281.359 373.909 281.363 373.883 281.372 373.858C281.381 373.834 281.395 373.811 281.414 373.792C281.432 373.774 281.454 373.759 281.478 373.748L281.86 373.558C281.889 373.543 281.921 373.536 281.954 373.537C281.986 373.539 282.018 373.548 282.045 373.565C282.073 373.582 282.096 373.606 282.112 373.635C282.128 373.663 282.136 373.695 282.137 373.727V375.255C282.137 375.305 282.116 375.354 282.081 375.39C282.045 375.426 281.996 375.446 281.946 375.446Z" fill="white"/>
<path d="M266.482 372.773H266.864V374.109H266.482C266.431 374.109 266.383 374.089 266.347 374.053C266.311 374.018 266.291 373.969 266.291 373.918V372.964C266.291 372.913 266.311 372.865 266.347 372.829C266.383 372.793 266.431 372.773 266.482 372.773Z" fill="#7F96D1"/>
<path d="M266.482 374.873H266.864V376.209H266.482C266.431 376.209 266.383 376.189 266.347 376.153C266.311 376.117 266.291 376.069 266.291 376.018V375.063C266.291 375.013 266.311 374.964 266.347 374.928C266.383 374.893 266.431 374.873 266.482 374.873Z" fill="#7F96D1"/>
<path d="M274.5 385.182H269.918C269.817 385.182 269.72 385.141 269.648 385.07C269.576 384.998 269.536 384.901 269.536 384.8C269.536 384.699 269.576 384.601 269.648 384.53C269.72 384.458 269.817 384.418 269.918 384.418H274.5C274.601 384.418 274.698 384.458 274.77 384.53C274.841 384.601 274.882 384.699 274.882 384.8C274.882 384.901 274.841 384.998 274.77 385.07C274.698 385.141 274.601 385.182 274.5 385.182Z" fill="#7F96D1"/>
<path d="M279.273 373.727H278.509C278.459 373.727 278.41 373.707 278.374 373.671C278.338 373.635 278.318 373.587 278.318 373.536C278.318 373.485 278.338 373.437 278.374 373.401C278.41 373.365 278.459 373.345 278.509 373.345H279.273C279.324 373.345 279.372 373.365 279.408 373.401C279.444 373.437 279.464 373.485 279.464 373.536C279.464 373.587 279.444 373.635 279.408 373.671C279.372 373.707 279.324 373.727 279.273 373.727Z" fill="#8FA2FF"/>
<path d="M279.655 372.773H278.509C278.459 372.773 278.41 372.753 278.374 372.717C278.338 372.681 278.318 372.633 278.318 372.582C278.318 372.531 278.338 372.483 278.374 372.447C278.41 372.411 278.459 372.391 278.509 372.391H279.655C279.705 372.391 279.754 372.411 279.79 372.447C279.826 372.483 279.846 372.531 279.846 372.582C279.846 372.633 279.826 372.681 279.79 372.717C279.754 372.753 279.705 372.773 279.655 372.773Z" fill="#8FA2FF"/>
</g>
</g>
<g filter="url(#filter3_dd_5402_3951)">
<rect x="353" y="152" width="59" height="59" rx="29.5" fill="white"/>
<g clip-path="url(#clip1_5402_3951)">
<path d="M393.047 165.68H388.828H384.609C380.539 165.68 377.156 168.992 377.156 173.062C377.156 176.776 379.982 179.857 383.555 180.37V183.609C383.555 184.036 383.811 184.421 384.206 184.584C384.595 184.746 385.051 184.659 385.355 184.355L388.828 180.882L389.265 180.445H393.047C397.117 180.445 400.5 177.133 400.5 173.062C400.5 168.992 397.117 165.68 393.047 165.68Z" fill="#FED843"/>
<path d="M393.047 180.445C397.117 180.445 400.5 177.133 400.5 173.062C400.5 168.992 397.117 165.68 393.047 165.68H388.828V180.882L389.265 180.445H393.047Z" fill="#FABE2C"/>
<path d="M391.359 189.938V194.156C391.359 195.991 389.861 197.32 388.21 197.32C382.134 197.32 376.207 194.448 371.798 190.057C367.39 185.666 364.5 179.756 364.5 173.681C364.5 171.935 365.92 170.531 367.664 170.531H371.883C372.337 170.531 372.74 170.822 372.883 171.252L374.992 177.565C375.095 177.875 375.05 178.214 374.87 178.484L373.081 181.168C373.759 182.59 374.958 184.144 376.343 185.512C377.729 186.88 379.301 188.062 380.722 188.739L383.406 186.951C383.678 186.771 384.016 186.724 384.325 186.828L390.653 188.938C391.084 189.08 391.359 189.483 391.359 189.938Z" fill="#FF641A"/>
<path d="M391.359 189.938V194.156C391.359 195.992 389.861 197.32 388.21 197.32C382.134 197.32 376.207 194.448 371.798 190.057L376.343 185.512C377.729 186.88 379.301 188.062 380.722 188.74L383.406 186.951C383.678 186.772 384.016 186.724 384.325 186.828L390.653 188.938C391.084 189.081 391.359 189.483 391.359 189.938Z" fill="#F03800"/>
<path d="M384.609 174.117C385.192 174.117 385.664 173.645 385.664 173.062C385.664 172.48 385.192 172.008 384.609 172.008C384.027 172.008 383.555 172.48 383.555 173.062C383.555 173.645 384.027 174.117 384.609 174.117Z" fill="#613D5C"/>
<path d="M388.828 174.117C389.411 174.117 389.883 173.645 389.883 173.062C389.883 172.48 389.411 172.008 388.828 172.008C388.246 172.008 387.773 172.48 387.773 173.062C387.773 173.645 388.246 174.117 388.828 174.117Z" fill="#613D5C"/>
<path d="M389.883 173.062C389.883 172.48 389.411 172.008 388.828 172.008V174.117C389.411 174.117 389.883 173.645 389.883 173.062Z" fill="#4B2746"/>
<path d="M393.047 174.117C393.629 174.117 394.102 173.645 394.102 173.062C394.102 172.48 393.629 172.008 393.047 172.008C392.464 172.008 391.992 172.48 391.992 173.062C391.992 173.645 392.464 174.117 393.047 174.117Z" fill="#4B2746"/>
</g>
</g>
<g filter="url(#filter4_dd_5402_3951)">
<rect x="342" y="101" width="24" height="24" rx="12" fill="white"/>
<rect x="340.5" y="99.5" width="27" height="27" rx="13.5" stroke="white" stroke-width="3"/>
<path fill-rule="evenodd" clip-rule="evenodd" d="M354 122.75C359.385 122.75 363.75 118.385 363.75 113C363.75 107.615 359.385 103.25 354 103.25C348.615 103.25 344.25 107.615 344.25 113C344.25 118.385 348.615 122.75 354 122.75Z" fill="#35CADD"/>
<mask id="mask0_5402_3951" style="mask-type:alpha" maskUnits="userSpaceOnUse" x="344" y="103" width="20" height="20">
<path fill-rule="evenodd" clip-rule="evenodd" d="M354 122.75C359.385 122.75 363.75 118.385 363.75 113C363.75 107.615 359.385 103.25 354 103.25C348.615 103.25 344.25 107.615 344.25 113C344.25 118.385 348.615 122.75 354 122.75Z" fill="white"/>
</mask>
<g mask="url(#mask0_5402_3951)">
<path fill-rule="evenodd" clip-rule="evenodd" d="M346.909 116.767L354 123.526L360.648 121.975L365.08 116.546L364.415 113.665L360.503 109.989L356.216 109.676L354.332 107.682L353.225 111.228L350.898 109.012L346.909 116.767Z" fill="url(#paint2_linear_5402_3951)"/>
</g>
<path fill-rule="evenodd" clip-rule="evenodd" d="M346.909 109.012H350.898V116.767H346.909V109.012ZM357.989 116.754C360.073 116.754 361.762 115.018 361.762 112.876C361.762 110.735 360.073 108.998 357.989 108.998C355.905 108.998 354.216 110.735 354.216 112.876C354.216 115.018 355.905 116.754 357.989 116.754ZM353.668 107.669H354.332L351.895 118.306H351.23L353.668 107.669Z" fill="white"/>
</g>
<g filter="url(#filter5_dd_5402_3951)">
<rect x="248" y="85" width="45" height="45" rx="22.5" fill="white"/>
<g clip-path="url(#clip2_5402_3951)">
<path d="M275.647 108.688L270.951 109.91C270.661 109.985 270.356 109.987 270.065 109.914L265.111 108.679C264.326 108.483 263.774 107.777 263.774 106.967V101.555C263.774 98.2109 266.485 95.5 269.829 95.5H270.912C274.256 95.5 276.967 98.2109 276.967 101.555V106.982C276.967 107.785 276.424 108.486 275.647 108.688Z" fill="#FD9727"/>
<path d="M270.912 95.5H269.829C269.557 95.5 269.289 95.5182 269.027 95.553C271.992 95.9455 274.28 98.4828 274.28 101.555V106.982C274.28 107.785 273.737 108.486 272.96 108.688L269.137 109.683L270.065 109.914C270.356 109.987 270.661 109.985 270.951 109.91L275.647 108.688C276.424 108.486 276.967 107.785 276.967 106.981V101.555C276.967 98.2109 274.256 95.5 270.912 95.5Z" fill="#FF6D3A"/>
<path d="M264.055 105.335H265.339V102.198H264.055C263.677 102.198 263.371 102.504 263.371 102.882V104.652C263.371 105.029 263.677 105.335 264.055 105.335Z" fill="#3D6687"/>
<path d="M276.945 105.335H275.661V102.198H276.945C277.323 102.198 277.629 102.504 277.629 102.882V104.652C277.629 105.029 277.323 105.335 276.945 105.335Z" fill="#3D6687"/>
<path d="M273.401 110.808C272.952 110.718 272.628 110.323 272.628 109.865V107.696H270.5H268.371V109.865C268.371 110.323 268.048 110.718 267.599 110.808L267.08 110.912V114.396H270.5H273.92V110.912L273.401 110.808Z" fill="#FED9A8"/>
<path d="M277.833 111.978L273.564 110.647C273.431 110.605 273.286 110.639 273.186 110.734L270.5 113.28L267.814 110.735C267.713 110.639 267.569 110.605 267.436 110.647L263.167 111.978C261.274 112.535 259.975 114.273 259.975 116.246V119.09C259.975 119.316 260.158 119.5 260.385 119.5H280.615C280.842 119.5 281.025 119.316 281.025 119.09V116.246C281.025 114.273 279.726 112.535 277.833 111.978Z" fill="#FF4C4C"/>
<path d="M277.833 111.978L273.563 110.647C273.431 110.605 273.286 110.639 273.186 110.734L272.684 111.21L275.146 111.978C277.038 112.535 278.338 114.273 278.338 116.246V119.5H280.615C280.842 119.5 281.025 119.316 281.025 119.09V116.246C281.025 114.273 279.726 112.535 277.833 111.978Z" fill="#EF2929"/>
<path d="M270.5 109.499C267.57 109.499 265.194 107.124 265.194 104.194V102.703C265.194 99.7724 267.57 97.397 270.5 97.397C273.43 97.397 275.806 99.7724 275.806 102.703V104.194C275.806 107.124 273.43 109.499 270.5 109.499Z" fill="#FED9A8"/>
<path d="M273.118 98.0874V104.194C273.118 106.66 271.436 108.733 269.156 109.327C269.585 109.439 270.036 109.499 270.5 109.499C273.43 109.499 275.805 107.124 275.805 104.194V102.703C275.805 100.725 274.723 98.9998 273.118 98.0874Z" fill="#F4C892"/>
<path d="M267.814 110.734L270.5 113.28L268.844 113.844C268.438 113.982 267.989 113.862 267.706 113.54L265.657 111.201L267.436 110.647C267.569 110.605 267.713 110.639 267.814 110.734Z" fill="#D4145A"/>
<path d="M273.186 110.734L270.5 113.28L272.001 113.791C272.501 113.961 273.054 113.813 273.402 113.416L275.343 111.201L273.564 110.647C273.431 110.605 273.287 110.639 273.186 110.734Z" fill="#D4145A"/>
<path d="M267.331 117.395H264.6C264.448 117.395 264.325 117.272 264.325 117.12V115.911C264.325 115.759 264.448 115.636 264.6 115.636H267.331C267.482 115.636 267.605 115.759 267.605 115.911V117.12C267.605 117.272 267.482 117.395 267.331 117.395Z" fill="#EDA558"/>
<path d="M276.967 102.673C276.967 102.673 274.678 102.492 273.895 100.386C273.895 100.386 268.361 104.816 263.774 102.673V101.555C263.774 98.2109 266.485 95.5 269.829 95.5H270.912C274.256 95.5 276.967 98.2109 276.967 101.555V102.673Z" fill="#FD9727"/>
<path d="M270.912 95.5H269.829C269.557 95.5 269.289 95.5182 269.027 95.553C271.846 95.9261 274.053 98.2386 274.263 101.106C275.228 102.535 276.967 102.673 276.967 102.673V101.555C276.967 98.2109 274.256 95.5 270.912 95.5Z" fill="#FF6D3A"/>
<path d="M278.295 115.461C278.094 115.461 277.932 115.623 277.932 115.823V119.5H278.657V115.823C278.657 115.623 278.495 115.461 278.295 115.461Z" fill="#D4145A"/>
<path d="M262.705 115.461C262.505 115.461 262.343 115.623 262.343 115.823V119.5H263.068V115.823C263.068 115.623 262.906 115.461 262.705 115.461Z" fill="#D4145A"/>
<path d="M275.953 105.335V105.996C275.953 106.566 275.546 107.05 274.984 107.146L271.336 107.772C271.139 107.806 271.006 107.993 271.04 108.19C271.07 108.366 271.223 108.491 271.396 108.491C271.417 108.491 271.437 108.489 271.458 108.486L275.106 107.86C276.017 107.704 276.678 106.92 276.678 105.996V105.335H275.953Z" fill="#3D6687"/>
<path d="M271.446 108.84C271.111 108.84 270.814 108.599 270.756 108.258C270.69 107.876 270.947 107.514 271.328 107.448L272.51 107.246C272.891 107.18 273.254 107.436 273.319 107.818C273.385 108.199 273.128 108.562 272.747 108.627L271.565 108.83C271.525 108.837 271.485 108.84 271.446 108.84Z" fill="#D4145A"/>
</g>
</g>
<g filter="url(#filter6_dd_5402_3951)">
<rect x="166" y="9" width="24" height="24" rx="12" fill="white"/>
<rect x="164.5" y="7.5" width="27" height="27" rx="13.5" stroke="white" stroke-width="3"/>
<path d="M186.212 14.7002H169.787C169.353 14.7002 169 15.0528 169 15.4877V26.5127C169 26.9476 169.353 27.3002 169.787 27.3002H186.212C186.647 27.3002 187 26.9476 187 26.5127V15.4877C187 15.0528 186.647 14.7002 186.212 14.7002Z" fill="#5AC4FE"/>
<mask id="mask1_5402_3951" style="mask-type:alpha" maskUnits="userSpaceOnUse" x="169" y="14" width="18" height="14">
<path d="M186.212 14.7002H169.787C169.353 14.7002 169 15.0528 169 15.4877V26.5127C169 26.9476 169.353 27.3002 169.787 27.3002H186.212C186.647 27.3002 187 26.9476 187 26.5127V15.4877C187 15.0528 186.647 14.7002 186.212 14.7002Z" fill="white"/>
</mask>
<g mask="url(#mask1_5402_3951)">
<path fill-rule="evenodd" clip-rule="evenodd" d="M167.991 28.5226L177.973 18.8813L187.955 28.5226H167.991Z" fill="#5B95FF"/>
<path fill-rule="evenodd" clip-rule="evenodd" d="M168.743 14.627L177.996 25.6599L187.305 14.627H168.743Z" fill="url(#paint3_linear_5402_3951)"/>
<path fill-rule="evenodd" clip-rule="evenodd" d="M168.918 14.8714L178.007 23.5783L187.991 14.0576L169.084 14.162L168.918 14.8714Z" fill="url(#paint4_linear_5402_3951)"/>
</g>
</g>
<g filter="url(#filter7_dd_5402_3951)">
<rect x="121" y="380" width="56" height="56" rx="28" fill="white"/>
<g clip-path="url(#clip3_5402_3951)">
<path d="M161.777 395.223C161.561 395.008 161.238 394.941 160.955 395.055L136.479 404.845C136.199 404.957 136.011 405.224 136 405.525C135.99 405.827 136.158 406.106 136.429 406.238L146.081 410.919L150.762 420.571C150.89 420.834 151.157 421 151.447 421C151.456 421 151.466 421 151.475 420.999C151.776 420.989 152.043 420.801 152.155 420.521L161.946 396.045C162.059 395.762 161.992 395.439 161.777 395.223Z" fill="#4DBBEB"/>
<path d="M161.777 395.223L146.081 410.919L150.762 420.571C150.89 420.834 151.156 421 151.447 421C151.456 421 151.465 421 151.475 420.999C151.776 420.989 152.043 420.801 152.155 420.521L161.945 396.045C162.059 395.762 161.992 395.439 161.777 395.223Z" fill="#2488FF"/>
</g>
</g>
<g filter="url(#filter8_d_5402_3951)">
<rect x="188" y="268" width="55" height="55" rx="27.5" fill="white" shape-rendering="crispEdges"/>
<g clip-path="url(#clip4_5402_3951)">
<path d="M223.863 282.5H203.785C203.075 282.5 202.5 283.075 202.5 283.785V296.734C202.5 297.444 203.075 298.019 203.785 298.019H223.863C224.573 298.019 225.148 297.444 225.148 296.734V283.785C225.148 283.075 224.573 282.5 223.863 282.5Z" fill="#E57E25"/>
<path d="M224.627 297.745C224.79 297.621 224.921 297.461 225.011 297.278C225.102 297.095 225.149 296.894 225.149 296.69V283.829C225.149 283.477 225.008 283.139 224.759 282.889C224.51 282.64 224.172 282.5 223.819 282.5H210.956L224.6 297.735L224.627 297.745Z" fill="#F29C1F"/>
<path d="M216.693 282.5H203.829C203.477 282.5 203.139 282.64 202.889 282.889C202.64 283.139 202.5 283.477 202.5 283.829V296.69C202.5 296.888 202.544 297.083 202.629 297.262C202.714 297.441 202.839 297.598 202.993 297.723L203.048 297.735L216.693 282.5Z" fill="#F29C1F"/>
<path d="M223.819 282.5H203.829C203.477 282.5 203.139 282.64 202.889 282.889C202.64 283.139 202.5 283.477 202.5 283.829V284.34L212.093 290.951C212.602 291.302 213.206 291.49 213.824 291.49C214.442 291.49 215.046 291.302 215.555 290.951L225.148 284.34V283.829C225.148 283.477 225.008 283.139 224.759 282.889C224.51 282.64 224.172 282.5 223.819 282.5Z" fill="#F0C419"/>
<path d="M208.397 308.5C208.314 308.5 208.233 308.474 208.164 308.426C208.096 308.379 208.044 308.311 208.015 308.233C207.987 308.155 207.983 308.069 208.004 307.989C208.026 307.908 208.072 307.836 208.135 307.783L213.751 303.115C213.792 303.08 213.839 303.053 213.89 303.035C213.941 303.018 213.996 303.012 214.049 303.016C214.103 303.02 214.156 303.035 214.204 303.059C214.252 303.084 214.295 303.118 214.329 303.159C214.364 303.2 214.39 303.248 214.406 303.3C214.422 303.351 214.428 303.406 214.423 303.459C214.418 303.513 214.402 303.565 214.377 303.613C214.351 303.66 214.316 303.702 214.274 303.736L208.659 308.404C208.586 308.466 208.493 308.5 208.397 308.5Z" fill="#FF5364"/>
<path d="M213.16 307.616C213.078 307.616 212.997 307.59 212.929 307.543C212.861 307.496 212.809 307.43 212.78 307.352C212.751 307.275 212.746 307.191 212.766 307.11C212.786 307.03 212.83 306.958 212.892 306.904L214.275 305.641C214.315 305.605 214.362 305.578 214.412 305.561C214.463 305.544 214.516 305.536 214.57 305.54C214.623 305.543 214.675 305.557 214.723 305.581C214.771 305.605 214.814 305.637 214.849 305.678C214.885 305.718 214.912 305.765 214.929 305.815C214.946 305.866 214.953 305.92 214.949 305.973C214.945 306.026 214.931 306.078 214.907 306.126C214.884 306.174 214.851 306.217 214.81 306.252L213.428 307.515C213.354 307.58 213.259 307.616 213.16 307.616Z" fill="#35ACEF"/>
<path d="M214.667 299.58L217.23 305.719L221.912 298.695L228.495 292.423L214.667 299.58Z" fill="#285680"/>
<path d="M228.495 292.378L214.986 300.258L211.011 299.227L228.495 292.378Z" fill="#7ED0FC"/>
<path d="M223.738 297.589L217.23 305.719L217.998 301.063L223.738 297.589Z" fill="#35ACEF"/>
<path d="M228.495 292.423C228.499 292.411 228.504 292.403 228.495 292.411L217.998 301.063L224.501 302.833L228.495 292.423Z" fill="#7ED0FC"/>
</g>
</g>
<g filter="url(#filter9_dd_5402_3951)">
<rect x="147" y="136" width="57" height="58" rx="28.5" fill="white"/>
<g clip-path="url(#clip5_5402_3951)">
<path d="M175.5 150C176.402 154.737 177.305 159.474 178.207 164.211C177.305 169.474 176.402 174.737 175.5 180C175.275 180 175.05 179.914 174.878 179.743L171.41 176.274H165.618C162.796 176.274 160.5 173.978 160.5 171.156V155.118C160.5 152.296 162.796 150 165.618 150H175.5Z" fill="#FFCC66"/>
<path d="M190.5 155.118V171.156C190.5 173.978 188.204 176.274 185.382 176.274H179.59L176.122 179.743C175.95 179.914 175.725 180 175.5 180V150H185.382C188.204 150 190.5 152.296 190.5 155.118Z" fill="#FFBB33"/>
<path d="M180.785 161.273C180.391 161.273 180.032 161.007 179.933 160.607C179.818 160.146 179.578 159.724 179.24 159.385C178.901 159.047 178.479 158.807 178.018 158.692C177.547 158.575 177.26 158.098 177.378 157.627C177.495 157.156 177.972 156.869 178.444 156.987C179.214 157.179 179.919 157.579 180.483 158.143C181.046 158.706 181.446 159.411 181.638 160.181C181.756 160.652 181.469 161.13 180.998 161.247C180.927 161.265 180.855 161.273 180.785 161.273Z" fill="#6699FF"/>
<path d="M184.195 160.418C183.801 160.418 183.443 160.151 183.343 159.752C183.074 158.676 182.515 157.689 181.725 156.899C180.936 156.11 179.949 155.55 178.873 155.282C178.402 155.164 178.115 154.687 178.233 154.216C178.35 153.745 178.827 153.459 179.299 153.576C180.684 153.922 181.953 154.642 182.968 155.657C183.983 156.672 184.703 157.94 185.049 159.326C185.166 159.797 184.88 160.274 184.409 160.392C184.337 160.41 184.266 160.418 184.195 160.418Z" fill="#6699FF"/>
<path d="M175.5 165.939C176.009 167.206 176.518 168.473 177.027 169.74C176.518 170.37 176.009 171 175.5 171.629C175.127 171.4 174.776 171.124 174.453 170.801L167.824 164.172C165.58 161.928 165.58 158.289 167.824 156.045L168.538 155.33C168.882 154.987 169.438 154.987 169.781 155.33L172.655 158.204C172.999 158.547 172.999 159.104 172.655 159.446L171.846 160.256C171.846 160.256 171.976 162.861 173.87 164.755C174.383 165.268 174.949 165.652 175.5 165.939Z" fill="#624D8C"/>
<path d="M183.295 170.087L182.581 170.801C180.659 172.722 177.715 172.999 175.5 171.629V165.939C176.984 166.71 178.369 166.78 178.369 166.78L179.179 165.97C179.521 165.627 180.078 165.627 180.421 165.97L183.295 168.844C183.638 169.187 183.638 169.743 183.295 170.087Z" fill="#493373"/>
</g>
</g>
<g filter="url(#filter10_dd_5402_3951)">
<rect x="310" y="18" width="45" height="45" rx="22.5" fill="white"/>
<path fill-rule="evenodd" clip-rule="evenodd" d="M332.5 54.9141C329.588 54.9141 326.878 54.0497 324.612 52.5647C322.165 53.8347 320.914 54.2257 318.311 54.2402C318.238 54.2407 318.176 54.1996 318.147 54.1324C318.119 54.0653 318.133 53.9917 318.184 53.9395C320.013 52.0671 320.395 50.5687 320.435 48.3883C318.95 46.122 318.086 43.4121 318.086 40.5C318.086 32.5393 324.539 26.0859 332.5 26.0859C340.461 26.0859 346.914 32.5393 346.914 40.5C346.914 48.4607 340.461 54.9141 332.5 54.9141Z" fill="#A2E19F"/>
<path fill-rule="evenodd" clip-rule="evenodd" d="M324.775 41.1968H326.785L327.511 46.6565C327.548 46.9389 327.362 47.2005 327.084 47.2608L326.215 47.449C326.06 47.4825 325.914 47.4529 325.784 47.3615C325.654 47.2701 325.578 47.1423 325.557 46.985L324.775 41.1968Z" fill="#F2F2F2"/>
<path fill-rule="evenodd" clip-rule="evenodd" d="M336.146 33.4019C336.855 33.4019 337.435 33.9817 337.435 34.6904V45.2622C337.435 45.9709 336.855 46.5508 336.146 46.5508C335.485 46.5508 334.936 46.0459 334.865 45.4024L334.865 45.4023C333.062 43.9605 330.212 42.8225 327.011 42.4722V42.7408H324.509C322.988 42.7408 321.744 41.4968 321.744 39.9763V39.9762C321.744 38.4557 322.988 37.2116 324.509 37.2116H327.011V37.4802C330.212 37.13 333.06 36.007 334.863 34.5652L334.864 34.5651C334.927 33.9147 335.479 33.4019 336.146 33.4019Z" fill="#F2F2F2"/>
<path fill-rule="evenodd" clip-rule="evenodd" d="M337.308 38.4879V41.465C337.415 41.4887 337.526 41.5013 337.64 41.5013C338.482 41.5013 339.165 40.8186 339.165 39.9765C339.165 39.1343 338.482 38.4517 337.64 38.4517C337.526 38.4516 337.415 38.4642 337.308 38.4879Z" fill="#F2F2F2"/>
<path fill-rule="evenodd" clip-rule="evenodd" d="M327.011 37.2119H324.509C322.988 37.2119 321.744 38.456 321.744 39.9765V39.9765C321.744 41.4971 322.988 42.7412 324.509 42.7412H327.011V37.2119Z" fill="#EB745E"/>
<path fill-rule="evenodd" clip-rule="evenodd" d="M336.146 33.4019C336.855 33.4019 337.435 33.9817 337.435 34.6904V45.2623C337.435 45.971 336.855 46.5508 336.146 46.5508C335.437 46.5508 334.857 45.971 334.857 45.2623V34.6904C334.857 33.9817 335.437 33.4019 336.146 33.4019Z" fill="#EB745E"/>
<path fill-rule="evenodd" clip-rule="evenodd" d="M339.817 43.2669L341.505 44.2414C341.775 44.3973 342.12 44.3029 342.276 44.033C342.431 43.7626 342.337 43.4174 342.067 43.2617L340.379 42.2872C340.109 42.1313 339.763 42.2257 339.608 42.4957C339.453 42.7659 339.547 43.1112 339.817 43.2669ZM340.379 37.6657L342.067 36.6912C342.337 36.5354 342.431 36.1902 342.276 35.9199C342.12 35.65 341.775 35.5556 341.505 35.7115L339.817 36.686C339.547 36.8417 339.453 37.187 339.608 37.4573C339.763 37.7272 340.109 37.8216 340.379 37.6657ZM341.321 40.5443H343.169C343.482 40.5443 343.737 40.2901 343.737 39.9764C343.737 39.6627 343.482 39.4085 343.169 39.4085H341.321C341.007 39.4085 340.753 39.6628 340.753 39.9764C340.753 40.2901 341.007 40.5443 341.321 40.5443Z" fill="#EB745E"/>
</g>
<g filter="url(#filter11_dd_5402_3951)">
<rect x="410" y="243" width="38" height="38" rx="19" fill="white"/>
<g clip-path="url(#clip6_5402_3951)">
<path fill-rule="evenodd" clip-rule="evenodd" d="M419.234 254.273V263.377H438.766V254.273C438.766 253.851 438.414 253.512 437.992 253.512H419.996C419.574 253.512 419.234 253.851 419.234 254.273Z" fill="#ECEAEC"/>
<path fill-rule="evenodd" clip-rule="evenodd" d="M431.127 268.989C430.998 268.989 430.892 268.884 430.892 268.755H427.108C427.108 268.884 427.002 268.989 426.873 268.989C426.733 268.989 426.639 268.884 426.639 268.755V266.529C426.639 266.4 426.733 266.294 426.873 266.294C426.979 266.294 430.049 266.412 430.892 266.529C430.892 266.4 430.998 266.294 431.127 266.294C431.255 266.294 431.361 266.4 431.361 266.529V268.755C431.361 268.884 431.255 268.989 431.127 268.989Z" fill="#3C58A0"/>
<path fill-rule="evenodd" clip-rule="evenodd" d="M437.781 266.763H420.219C419.539 266.763 419 266.212 419 265.544V264.865V254.379C419 253.711 419.539 253.16 420.219 253.16H437.781C438.449 253.16 439 253.711 439 254.379V265.544C439 266.212 438.449 266.763 437.781 266.763ZM419.469 263.26H438.531V254.379C438.531 253.969 438.192 253.629 437.781 253.629H420.219C419.808 253.629 419.469 253.969 419.469 254.379V263.26Z" fill="#1C2E7A"/>
<path fill-rule="evenodd" clip-rule="evenodd" d="M433.716 270.829H424.284C424.155 270.829 424.05 270.723 424.05 270.594V269.68C424.05 269.048 424.565 268.532 425.198 268.532H432.802C433.435 268.532 433.95 269.048 433.95 269.68V270.594C433.95 270.723 433.845 270.829 433.716 270.829Z" fill="#1C2E7A"/>
<path fill-rule="evenodd" clip-rule="evenodd" d="M433.845 265.791C433.411 265.791 433.06 265.439 433.06 265.006C433.06 264.572 433.411 264.221 433.845 264.221C434.278 264.221 434.63 264.572 434.63 265.006C434.63 265.439 434.278 265.791 433.845 265.791ZM436.364 265.791C435.93 265.791 435.579 265.439 435.579 265.006C435.579 264.572 435.93 264.221 436.364 264.221C436.797 264.221 437.149 264.572 437.149 265.006C437.149 265.439 436.797 265.791 436.364 265.791Z" fill="#FFB500"/>
<path fill-rule="evenodd" clip-rule="evenodd" d="M424.143 261.737H423.382C423.089 261.737 422.866 261.502 422.866 261.221V260.916C422.784 260.893 422.714 260.858 422.632 260.823L422.421 261.045C422.234 261.233 421.894 261.233 421.695 261.045L421.156 260.506C420.956 260.295 420.956 259.979 421.156 259.768L421.367 259.557C421.343 259.487 421.308 259.417 421.285 259.335H420.98C420.699 259.335 420.464 259.1 420.464 258.819V258.058C420.464 257.776 420.699 257.542 420.98 257.542H421.285C421.308 257.472 421.343 257.39 421.367 257.319L421.156 257.109C420.956 256.909 420.956 256.581 421.156 256.382L421.695 255.843C421.894 255.644 422.234 255.644 422.421 255.843L422.632 256.054C422.714 256.019 422.784 255.995 422.866 255.96V255.656C422.866 255.374 423.089 255.14 423.382 255.14H424.143C424.425 255.14 424.647 255.374 424.647 255.656V255.96C424.729 255.995 424.799 256.019 424.881 256.054L425.092 255.843C425.28 255.644 425.62 255.644 425.819 255.843L426.358 256.382C426.557 256.581 426.557 256.909 426.358 257.109L426.147 257.319C426.182 257.39 426.205 257.472 426.241 257.542H426.533C426.826 257.542 427.049 257.776 427.049 258.058V258.819C427.049 259.1 426.826 259.335 426.533 259.335H426.241C426.205 259.417 426.182 259.487 426.147 259.557L426.358 259.768C426.557 259.979 426.557 260.295 426.358 260.506L425.819 261.045C425.62 261.233 425.28 261.233 425.092 261.045L424.881 260.823C424.799 260.858 424.729 260.893 424.647 260.916V261.221C424.647 261.502 424.425 261.737 424.143 261.737Z" fill="#FF4155"/>
<path fill-rule="evenodd" clip-rule="evenodd" d="M423.757 260.061C422.867 260.061 422.14 259.335 422.14 258.445C422.14 257.542 422.867 256.816 423.757 256.816C424.647 256.816 425.386 257.542 425.386 258.445C425.386 259.335 424.647 260.061 423.757 260.061Z" fill="#E6E6E6"/>
<path fill-rule="evenodd" clip-rule="evenodd" d="M430.998 260.846C430.939 260.846 430.88 260.823 430.834 260.776L428.666 258.608C428.572 258.515 428.572 258.374 428.666 258.28L430.834 256.113C430.927 256.019 431.068 256.019 431.162 256.113C431.255 256.195 431.255 256.347 431.162 256.441L429.158 258.444L431.162 260.448C431.255 260.542 431.255 260.682 431.162 260.776C431.126 260.823 431.056 260.846 430.998 260.846Z" fill="#1C2E7A"/>
<path fill-rule="evenodd" clip-rule="evenodd" d="M435.122 260.846C435.063 260.846 435.004 260.823 434.958 260.776C434.875 260.682 434.875 260.542 434.958 260.448L436.961 258.444L434.958 256.441C434.875 256.347 434.875 256.195 434.958 256.101C435.051 256.019 435.204 256.019 435.297 256.101L437.465 258.28C437.559 258.362 437.559 258.515 437.465 258.608L435.297 260.776C435.25 260.823 435.192 260.846 435.122 260.846Z" fill="#1C2E7A"/>
<path fill-rule="evenodd" clip-rule="evenodd" d="M432.134 262.147C432.111 262.147 432.099 262.147 432.075 262.135C431.947 262.111 431.876 261.983 431.911 261.854L433.763 254.906C433.798 254.789 433.927 254.718 434.055 254.742C434.184 254.777 434.255 254.906 434.22 255.035L432.357 261.971C432.333 262.076 432.239 262.147 432.134 262.147Z" fill="#1C2E7A"/>
</g>
</g>
<g filter="url(#filter12_dd_5402_3951)">
<rect x="60" y="271" width="48" height="48" rx="24" fill="white"/>
<g clip-path="url(#clip7_5402_3951)">
<path fill-rule="evenodd" clip-rule="evenodd" d="M81.3101 285.59V284.241C81.3101 283.556 81.8658 283 82.5514 283C83.237 283 83.7928 283.556 83.7928 284.241V285.59H81.3101Z" fill="#F29C1F"/>
<path fill-rule="evenodd" clip-rule="evenodd" d="M90.1159 297.479C90.1573 297.855 90.2111 298.236 90.2814 298.613L90.8276 301.621H74.2759L74.8221 298.613C75.0088 297.586 75.103 296.544 75.1035 295.501V292.931C75.1027 290.003 76.8186 287.346 79.4883 286.141C82.1579 284.937 85.2854 285.41 87.48 287.349L90.1159 297.479Z" fill="#F0C419"/>
<path fill-rule="evenodd" clip-rule="evenodd" d="M76.7585 293.345C76.53 293.345 76.3447 293.16 76.3447 292.931C76.341 291.027 77.2159 289.227 78.7158 288.054C78.832 287.963 78.9882 287.94 79.1255 287.995C79.2629 288.05 79.3605 288.174 79.3816 288.32C79.4028 288.467 79.3442 288.613 79.228 288.705C77.9279 289.721 77.1694 291.281 77.1723 292.931C77.1723 293.16 76.9871 293.345 76.7585 293.345Z" fill="#F3D55B"/>
<path d="M90.8275 301.621H74.2758C73.3617 301.621 72.6206 302.362 72.6206 303.276C72.6206 304.19 73.3617 304.931 74.2758 304.931H90.8275C91.7416 304.931 92.4827 304.19 92.4827 303.276C92.4827 302.362 91.7416 301.621 90.8275 301.621Z" fill="#F3D55B"/>
<path fill-rule="evenodd" clip-rule="evenodd" d="M80.4829 304.931H84.6208C84.6208 306.074 83.6945 307 82.5519 307C81.4092 307 80.4829 306.074 80.4829 304.931Z" fill="#F29C1F"/>
<path d="M89.9999 297.483C92.9708 297.483 95.3792 295.074 95.3792 292.103C95.3792 289.133 92.9708 286.724 89.9999 286.724C87.029 286.724 84.6206 289.133 84.6206 292.103C84.6206 295.074 87.029 297.483 89.9999 297.483Z" fill="#E64C3C"/>
<path fill-rule="evenodd" clip-rule="evenodd" d="M90.8273 294.586H90.4135V289.207C90.4134 289.039 90.3126 288.889 90.158 288.824C90.0034 288.76 89.8255 288.796 89.7071 288.914L88.8795 289.742C88.7227 289.904 88.725 290.162 88.8846 290.322C89.0442 290.481 89.3023 290.484 89.4646 290.327L89.5859 290.206V294.586H89.1721C88.9436 294.586 88.7583 294.771 88.7583 295C88.7583 295.228 88.9436 295.414 89.1721 295.414H90.8273C91.0558 295.414 91.2411 295.228 91.2411 295C91.2411 294.771 91.0558 294.586 90.8273 294.586Z" fill="#ECF0F1"/>
</g>
</g>
<g filter="url(#filter13_dd_5402_3951)">
<rect x="350" y="309" width="24" height="24" rx="12" fill="white"/>
<rect x="348.5" y="307.5" width="27" height="27" rx="13.5" stroke="white" stroke-width="3"/>
<path fill-rule="evenodd" clip-rule="evenodd" d="M362 331C367.523 331 372 326.523 372 321C372 315.477 367.523 311 362 311C356.477 311 352 315.477 352 321C352 326.523 356.477 331 362 331Z" fill="url(#paint5_linear_5402_3951)"/>
<path fill-rule="evenodd" clip-rule="evenodd" d="M355.4 325.9L357.3 327.1L359.7 323L363.2 325.1L366.3 319.5L368.5 320.8L367.7 315L362.3 317.2L364.4 318.4L362.4 322L358.9 319.9L355.4 325.9Z" fill="white"/>
</g>
<defs>
<filter id="filter0_dd_5402_3951" x="0.5" y="204.75" width="43" height="44.5" filterUnits="userSpaceOnUse" color-interpolation-filters="sRGB">
<feFlood flood-opacity="0" result="BackgroundImageFix"/>
<feColorMatrix in="SourceAlpha" type="matrix" values="0 0 0 0 0 0 0 0 0 0 0 0 0 0 0 0 0 0 127 0" result="hardAlpha"/>
<feOffset/>
<feGaussianBlur stdDeviation="1.125"/>
<feColorMatrix type="matrix" values="0 0 0 0 0 0 0 0 0 0 0 0 0 0 0 0 0 0 0.07 0"/>
<feBlend mode="normal" in2="BackgroundImageFix" result="effect1_dropShadow_5402_3951"/>
<feColorMatrix in="SourceAlpha" type="matrix" values="0 0 0 0 0 0 0 0 0 0 0 0 0 0 0 0 0 0 127 0" result="hardAlpha"/>
<feMorphology radius="1.125" operator="erode" in="SourceAlpha" result="effect2_dropShadow_5402_3951"/>
<feOffset dy="3.75"/>
<feGaussianBlur stdDeviation="2.8125"/>
<feColorMatrix type="matrix" values="0 0 0 0 0 0 0 0 0 0 0 0 0 0 0 0 0 0 0.1 0"/>
<feBlend mode="normal" in2="effect1_dropShadow_5402_3951" result="effect2_dropShadow_5402_3951"/>
<feBlend mode="normal" in="SourceGraphic" in2="effect2_dropShadow_5402_3951" result="shape"/>
</filter>
<filter id="filter1_dd_5402_3951" x="23.5" y="59.75" width="67" height="69.5" filterUnits="userSpaceOnUse" color-interpolation-filters="sRGB">
<feFlood flood-opacity="0" result="BackgroundImageFix"/>
<feColorMatrix in="SourceAlpha" type="matrix" values="0 0 0 0 0 0 0 0 0 0 0 0 0 0 0 0 0 0 127 0" result="hardAlpha"/>
<feOffset/>
<feGaussianBlur stdDeviation="1.125"/>
<feColorMatrix type="matrix" values="0 0 0 0 0 0 0 0 0 0 0 0 0 0 0 0 0 0 0.07 0"/>
<feBlend mode="normal" in2="BackgroundImageFix" result="effect1_dropShadow_5402_3951"/>
<feColorMatrix in="SourceAlpha" type="matrix" values="0 0 0 0 0 0 0 0 0 0 0 0 0 0 0 0 0 0 127 0" result="hardAlpha"/>
<feMorphology radius="1.125" operator="erode" in="SourceAlpha" result="effect2_dropShadow_5402_3951"/>
<feOffset dy="3.75"/>
<feGaussianBlur stdDeviation="2.8125"/>
<feColorMatrix type="matrix" values="0 0 0 0 0 0 0 0 0 0 0 0 0 0 0 0 0 0 0.1 0"/>
<feBlend mode="normal" in2="effect1_dropShadow_5402_3951" result="effect2_dropShadow_5402_3951"/>
<feBlend mode="normal" in="SourceGraphic" in2="effect2_dropShadow_5402_3951" result="shape"/>
</filter>
<filter id="filter2_dd_5402_3951" x="253.5" y="359.75" width="42" height="43.5" filterUnits="userSpaceOnUse" color-interpolation-filters="sRGB">
<feFlood flood-opacity="0" result="BackgroundImageFix"/>
<feColorMatrix in="SourceAlpha" type="matrix" values="0 0 0 0 0 0 0 0 0 0 0 0 0 0 0 0 0 0 127 0" result="hardAlpha"/>
<feOffset/>
<feGaussianBlur stdDeviation="1.125"/>
<feColorMatrix type="matrix" values="0 0 0 0 0 0 0 0 0 0 0 0 0 0 0 0 0 0 0.07 0"/>
<feBlend mode="normal" in2="BackgroundImageFix" result="effect1_dropShadow_5402_3951"/>
<feColorMatrix in="SourceAlpha" type="matrix" values="0 0 0 0 0 0 0 0 0 0 0 0 0 0 0 0 0 0 127 0" result="hardAlpha"/>
<feMorphology radius="1.125" operator="erode" in="SourceAlpha" result="effect2_dropShadow_5402_3951"/>
<feOffset dy="3.75"/>
<feGaussianBlur stdDeviation="2.8125"/>
<feColorMatrix type="matrix" values="0 0 0 0 0 0 0 0 0 0 0 0 0 0 0 0 0 0 0.1 0"/>
<feBlend mode="normal" in2="effect1_dropShadow_5402_3951" result="effect2_dropShadow_5402_3951"/>
<feBlend mode="normal" in="SourceGraphic" in2="effect2_dropShadow_5402_3951" result="shape"/>
</filter>
<filter id="filter3_dd_5402_3951" x="348.5" y="149.75" width="68" height="69.5" filterUnits="userSpaceOnUse" color-interpolation-filters="sRGB">
<feFlood flood-opacity="0" result="BackgroundImageFix"/>
<feColorMatrix in="SourceAlpha" type="matrix" values="0 0 0 0 0 0 0 0 0 0 0 0 0 0 0 0 0 0 127 0" result="hardAlpha"/>
<feOffset/>
<feGaussianBlur stdDeviation="1.125"/>
<feColorMatrix type="matrix" values="0 0 0 0 0 0 0 0 0 0 0 0 0 0 0 0 0 0 0.07 0"/>
<feBlend mode="normal" in2="BackgroundImageFix" result="effect1_dropShadow_5402_3951"/>
<feColorMatrix in="SourceAlpha" type="matrix" values="0 0 0 0 0 0 0 0 0 0 0 0 0 0 0 0 0 0 127 0" result="hardAlpha"/>
<feMorphology radius="1.125" operator="erode" in="SourceAlpha" result="effect2_dropShadow_5402_3951"/>
<feOffset dy="3.75"/>
<feGaussianBlur stdDeviation="2.8125"/>
<feColorMatrix type="matrix" values="0 0 0 0 0 0 0 0 0 0 0 0 0 0 0 0 0 0 0.1 0"/>
<feBlend mode="normal" in2="effect1_dropShadow_5402_3951" result="effect2_dropShadow_5402_3951"/>
<feBlend mode="normal" in="SourceGraphic" in2="effect2_dropShadow_5402_3951" result="shape"/>
</filter>
<filter id="filter4_dd_5402_3951" x="327" y="92" width="54" height="58" filterUnits="userSpaceOnUse" color-interpolation-filters="sRGB">
<feFlood flood-opacity="0" result="BackgroundImageFix"/>
<feColorMatrix in="SourceAlpha" type="matrix" values="0 0 0 0 0 0 0 0 0 0 0 0 0 0 0 0 0 0 127 0" result="hardAlpha"/>
<feOffset/>
<feGaussianBlur stdDeviation="3"/>
<feColorMatrix type="matrix" values="0 0 0 0 0 0 0 0 0 0 0 0 0 0 0 0 0 0 0.07 0"/>
<feBlend mode="normal" in2="BackgroundImageFix" result="effect1_dropShadow_5402_3951"/>
<feColorMatrix in="SourceAlpha" type="matrix" values="0 0 0 0 0 0 0 0 0 0 0 0 0 0 0 0 0 0 127 0" result="hardAlpha"/>
<feMorphology radius="3" operator="erode" in="SourceAlpha" result="effect2_dropShadow_5402_3951"/>
<feOffset dy="10"/>
<feGaussianBlur stdDeviation="7.5"/>
<feColorMatrix type="matrix" values="0 0 0 0 0 0 0 0 0 0 0 0 0 0 0 0 0 0 0.1 0"/>
<feBlend mode="normal" in2="effect1_dropShadow_5402_3951" result="effect2_dropShadow_5402_3951"/>
<feBlend mode="normal" in="SourceGraphic" in2="effect2_dropShadow_5402_3951" result="shape"/>
</filter>
<filter id="filter5_dd_5402_3951" x="243.5" y="82.75" width="54" height="55.5" filterUnits="userSpaceOnUse" color-interpolation-filters="sRGB">
<feFlood flood-opacity="0" result="BackgroundImageFix"/>
<feColorMatrix in="SourceAlpha" type="matrix" values="0 0 0 0 0 0 0 0 0 0 0 0 0 0 0 0 0 0 127 0" result="hardAlpha"/>
<feOffset/>
<feGaussianBlur stdDeviation="1.125"/>
<feColorMatrix type="matrix" values="0 0 0 0 0 0 0 0 0 0 0 0 0 0 0 0 0 0 0.07 0"/>
<feBlend mode="normal" in2="BackgroundImageFix" result="effect1_dropShadow_5402_3951"/>
<feColorMatrix in="SourceAlpha" type="matrix" values="0 0 0 0 0 0 0 0 0 0 0 0 0 0 0 0 0 0 127 0" result="hardAlpha"/>
<feMorphology radius="1.125" operator="erode" in="SourceAlpha" result="effect2_dropShadow_5402_3951"/>
<feOffset dy="3.75"/>
<feGaussianBlur stdDeviation="2.8125"/>
<feColorMatrix type="matrix" values="0 0 0 0 0 0 0 0 0 0 0 0 0 0 0 0 0 0 0.1 0"/>
<feBlend mode="normal" in2="effect1_dropShadow_5402_3951" result="effect2_dropShadow_5402_3951"/>
<feBlend mode="normal" in="SourceGraphic" in2="effect2_dropShadow_5402_3951" result="shape"/>
</filter>
<filter id="filter6_dd_5402_3951" x="151" y="0" width="54" height="58" filterUnits="userSpaceOnUse" color-interpolation-filters="sRGB">
<feFlood flood-opacity="0" result="BackgroundImageFix"/>
<feColorMatrix in="SourceAlpha" type="matrix" values="0 0 0 0 0 0 0 0 0 0 0 0 0 0 0 0 0 0 127 0" result="hardAlpha"/>
<feOffset/>
<feGaussianBlur stdDeviation="3"/>
<feColorMatrix type="matrix" values="0 0 0 0 0 0 0 0 0 0 0 0 0 0 0 0 0 0 0.07 0"/>
<feBlend mode="normal" in2="BackgroundImageFix" result="effect1_dropShadow_5402_3951"/>
<feColorMatrix in="SourceAlpha" type="matrix" values="0 0 0 0 0 0 0 0 0 0 0 0 0 0 0 0 0 0 127 0" result="hardAlpha"/>
<feMorphology radius="3" operator="erode" in="SourceAlpha" result="effect2_dropShadow_5402_3951"/>
<feOffset dy="10"/>
<feGaussianBlur stdDeviation="7.5"/>
<feColorMatrix type="matrix" values="0 0 0 0 0 0 0 0 0 0 0 0 0 0 0 0 0 0 0.1 0"/>
<feBlend mode="normal" in2="effect1_dropShadow_5402_3951" result="effect2_dropShadow_5402_3951"/>
<feBlend mode="normal" in="SourceGraphic" in2="effect2_dropShadow_5402_3951" result="shape"/>
</filter>
<filter id="filter7_dd_5402_3951" x="116.5" y="377.75" width="65" height="66.5" filterUnits="userSpaceOnUse" color-interpolation-filters="sRGB">
<feFlood flood-opacity="0" result="BackgroundImageFix"/>
<feColorMatrix in="SourceAlpha" type="matrix" values="0 0 0 0 0 0 0 0 0 0 0 0 0 0 0 0 0 0 127 0" result="hardAlpha"/>
<feOffset/>
<feGaussianBlur stdDeviation="1.125"/>
<feColorMatrix type="matrix" values="0 0 0 0 0 0 0 0 0 0 0 0 0 0 0 0 0 0 0.07 0"/>
<feBlend mode="normal" in2="BackgroundImageFix" result="effect1_dropShadow_5402_3951"/>
<feColorMatrix in="SourceAlpha" type="matrix" values="0 0 0 0 0 0 0 0 0 0 0 0 0 0 0 0 0 0 127 0" result="hardAlpha"/>
<feMorphology radius="1.125" operator="erode" in="SourceAlpha" result="effect2_dropShadow_5402_3951"/>
<feOffset dy="3.75"/>
<feGaussianBlur stdDeviation="2.8125"/>
<feColorMatrix type="matrix" values="0 0 0 0 0 0 0 0 0 0 0 0 0 0 0 0 0 0 0.1 0"/>
<feBlend mode="normal" in2="effect1_dropShadow_5402_3951" result="effect2_dropShadow_5402_3951"/>
<feBlend mode="normal" in="SourceGraphic" in2="effect2_dropShadow_5402_3951" result="shape"/>
</filter>
<filter id="filter8_d_5402_3951" x="147.863" y="227.863" width="135.274" height="135.274" filterUnits="userSpaceOnUse" color-interpolation-filters="sRGB">
<feFlood flood-opacity="0" result="BackgroundImageFix"/>
<feColorMatrix in="SourceAlpha" type="matrix" values="0 0 0 0 0 0 0 0 0 0 0 0 0 0 0 0 0 0 127 0" result="hardAlpha"/>
<feOffset/>
<feGaussianBlur stdDeviation="20.0685"/>
<feComposite in2="hardAlpha" operator="out"/>
<feColorMatrix type="matrix" values="0 0 0 0 0.0235294 0 0 0 0 0.109804 0 0 0 0 0.239216 0 0 0 0.1 0"/>
<feBlend mode="normal" in2="BackgroundImageFix" result="effect1_dropShadow_5402_3951"/>
<feBlend mode="normal" in="SourceGraphic" in2="effect1_dropShadow_5402_3951" result="shape"/>
</filter>
<filter id="filter9_dd_5402_3951" x="142.5" y="133.75" width="66" height="68.5" filterUnits="userSpaceOnUse" color-interpolation-filters="sRGB">
<feFlood flood-opacity="0" result="BackgroundImageFix"/>
<feColorMatrix in="SourceAlpha" type="matrix" values="0 0 0 0 0 0 0 0 0 0 0 0 0 0 0 0 0 0 127 0" result="hardAlpha"/>
<feOffset/>
<feGaussianBlur stdDeviation="1.125"/>
<feColorMatrix type="matrix" values="0 0 0 0 0 0 0 0 0 0 0 0 0 0 0 0 0 0 0.07 0"/>
<feBlend mode="normal" in2="BackgroundImageFix" result="effect1_dropShadow_5402_3951"/>
<feColorMatrix in="SourceAlpha" type="matrix" values="0 0 0 0 0 0 0 0 0 0 0 0 0 0 0 0 0 0 127 0" result="hardAlpha"/>
<feMorphology radius="1.125" operator="erode" in="SourceAlpha" result="effect2_dropShadow_5402_3951"/>
<feOffset dy="3.75"/>
<feGaussianBlur stdDeviation="2.8125"/>
<feColorMatrix type="matrix" values="0 0 0 0 0 0 0 0 0 0 0 0 0 0 0 0 0 0 0.1 0"/>
<feBlend mode="normal" in2="effect1_dropShadow_5402_3951" result="effect2_dropShadow_5402_3951"/>
<feBlend mode="normal" in="SourceGraphic" in2="effect2_dropShadow_5402_3951" result="shape"/>
</filter>
<filter id="filter10_dd_5402_3951" x="305.5" y="15.75" width="54" height="55.5" filterUnits="userSpaceOnUse" color-interpolation-filters="sRGB">
<feFlood flood-opacity="0" result="BackgroundImageFix"/>
<feColorMatrix in="SourceAlpha" type="matrix" values="0 0 0 0 0 0 0 0 0 0 0 0 0 0 0 0 0 0 127 0" result="hardAlpha"/>
<feOffset/>
<feGaussianBlur stdDeviation="1.125"/>
<feColorMatrix type="matrix" values="0 0 0 0 0 0 0 0 0 0 0 0 0 0 0 0 0 0 0.07 0"/>
<feBlend mode="normal" in2="BackgroundImageFix" result="effect1_dropShadow_5402_3951"/>
<feColorMatrix in="SourceAlpha" type="matrix" values="0 0 0 0 0 0 0 0 0 0 0 0 0 0 0 0 0 0 127 0" result="hardAlpha"/>
<feMorphology radius="1.125" operator="erode" in="SourceAlpha" result="effect2_dropShadow_5402_3951"/>
<feOffset dy="3.75"/>
<feGaussianBlur stdDeviation="2.8125"/>
<feColorMatrix type="matrix" values="0 0 0 0 0 0 0 0 0 0 0 0 0 0 0 0 0 0 0.1 0"/>
<feBlend mode="normal" in2="effect1_dropShadow_5402_3951" result="effect2_dropShadow_5402_3951"/>
<feBlend mode="normal" in="SourceGraphic" in2="effect2_dropShadow_5402_3951" result="shape"/>
</filter>
<filter id="filter11_dd_5402_3951" x="405.5" y="240.75" width="47" height="48.5" filterUnits="userSpaceOnUse" color-interpolation-filters="sRGB">
<feFlood flood-opacity="0" result="BackgroundImageFix"/>
<feColorMatrix in="SourceAlpha" type="matrix" values="0 0 0 0 0 0 0 0 0 0 0 0 0 0 0 0 0 0 127 0" result="hardAlpha"/>
<feOffset/>
<feGaussianBlur stdDeviation="1.125"/>
<feColorMatrix type="matrix" values="0 0 0 0 0 0 0 0 0 0 0 0 0 0 0 0 0 0 0.07 0"/>
<feBlend mode="normal" in2="BackgroundImageFix" result="effect1_dropShadow_5402_3951"/>
<feColorMatrix in="SourceAlpha" type="matrix" values="0 0 0 0 0 0 0 0 0 0 0 0 0 0 0 0 0 0 127 0" result="hardAlpha"/>
<feMorphology radius="1.125" operator="erode" in="SourceAlpha" result="effect2_dropShadow_5402_3951"/>
<feOffset dy="3.75"/>
<feGaussianBlur stdDeviation="2.8125"/>
<feColorMatrix type="matrix" values="0 0 0 0 0 0 0 0 0 0 0 0 0 0 0 0 0 0 0.1 0"/>
<feBlend mode="normal" in2="effect1_dropShadow_5402_3951" result="effect2_dropShadow_5402_3951"/>
<feBlend mode="normal" in="SourceGraphic" in2="effect2_dropShadow_5402_3951" result="shape"/>
</filter>
<filter id="filter12_dd_5402_3951" x="55.5" y="268.75" width="57" height="58.5" filterUnits="userSpaceOnUse" color-interpolation-filters="sRGB">
<feFlood flood-opacity="0" result="BackgroundImageFix"/>
<feColorMatrix in="SourceAlpha" type="matrix" values="0 0 0 0 0 0 0 0 0 0 0 0 0 0 0 0 0 0 127 0" result="hardAlpha"/>
<feOffset/>
<feGaussianBlur stdDeviation="1.125"/>
<feColorMatrix type="matrix" values="0 0 0 0 0 0 0 0 0 0 0 0 0 0 0 0 0 0 0.07 0"/>
<feBlend mode="normal" in2="BackgroundImageFix" result="effect1_dropShadow_5402_3951"/>
<feColorMatrix in="SourceAlpha" type="matrix" values="0 0 0 0 0 0 0 0 0 0 0 0 0 0 0 0 0 0 127 0" result="hardAlpha"/>
<feMorphology radius="1.125" operator="erode" in="SourceAlpha" result="effect2_dropShadow_5402_3951"/>
<feOffset dy="3.75"/>
<feGaussianBlur stdDeviation="2.8125"/>
<feColorMatrix type="matrix" values="0 0 0 0 0 0 0 0 0 0 0 0 0 0 0 0 0 0 0.1 0"/>
<feBlend mode="normal" in2="effect1_dropShadow_5402_3951" result="effect2_dropShadow_5402_3951"/>
<feBlend mode="normal" in="SourceGraphic" in2="effect2_dropShadow_5402_3951" result="shape"/>
</filter>
<filter id="filter13_dd_5402_3951" x="335" y="300" width="54" height="58" filterUnits="userSpaceOnUse" color-interpolation-filters="sRGB">
<feFlood flood-opacity="0" result="BackgroundImageFix"/>
<feColorMatrix in="SourceAlpha" type="matrix" values="0 0 0 0 0 0 0 0 0 0 0 0 0 0 0 0 0 0 127 0" result="hardAlpha"/>
<feOffset/>
<feGaussianBlur stdDeviation="3"/>
<feColorMatrix type="matrix" values="0 0 0 0 0 0 0 0 0 0 0 0 0 0 0 0 0 0 0.07 0"/>
<feBlend mode="normal" in2="BackgroundImageFix" result="effect1_dropShadow_5402_3951"/>
<feColorMatrix in="SourceAlpha" type="matrix" values="0 0 0 0 0 0 0 0 0 0 0 0 0 0 0 0 0 0 127 0" result="hardAlpha"/>
<feMorphology radius="3" operator="erode" in="SourceAlpha" result="effect2_dropShadow_5402_3951"/>
<feOffset dy="10"/>
<feGaussianBlur stdDeviation="7.5"/>
<feColorMatrix type="matrix" values="0 0 0 0 0 0 0 0 0 0 0 0 0 0 0 0 0 0 0.1 0"/>
<feBlend mode="normal" in2="effect1_dropShadow_5402_3951" result="effect2_dropShadow_5402_3951"/>
<feBlend mode="normal" in="SourceGraphic" in2="effect2_dropShadow_5402_3951" result="shape"/>
</filter>
<linearGradient id="paint0_linear_5402_3951" x1="57" y1="104.684" x2="57" y2="78.3164" gradientUnits="userSpaceOnUse">
<stop stop-color="#A93AFF"/>
<stop offset="1" stop-color="#FF81FF"/>
</linearGradient>
<linearGradient id="paint1_linear_5402_3951" x1="57" y1="95.8945" x2="57" y2="87.1055" gradientUnits="userSpaceOnUse">
<stop stop-color="#FFBEF9"/>
<stop offset="1" stop-color="#FFF1FF"/>
</linearGradient>
<linearGradient id="paint2_linear_5402_3951" x1="345.677" y1="116.63" x2="354.121" y2="129.055" gradientUnits="userSpaceOnUse">
<stop stop-color="#35B7C8"/>
<stop offset="1" stop-color="#35CADD"/>
</linearGradient>
<linearGradient id="paint3_linear_5402_3951" x1="168.743" y1="14.627" x2="168.743" y2="25.6599" gradientUnits="userSpaceOnUse">
<stop stop-opacity="0.194973"/>
<stop offset="1" stop-opacity="0.194973"/>
</linearGradient>
<linearGradient id="paint4_linear_5402_3951" x1="169.684" y1="14.8219" x2="169.684" y2="23.5783" gradientUnits="userSpaceOnUse">
<stop stop-color="#94F0FF"/>
<stop offset="1" stop-color="#94F0FF"/>
</linearGradient>
<linearGradient id="paint5_linear_5402_3951" x1="352" y1="311" x2="352" y2="331" gradientUnits="userSpaceOnUse">
<stop stop-color="#E8016A"/>
<stop offset="1" stop-color="#EE3224"/>
</linearGradient>
<clipPath id="clip0_5402_3951">
<rect width="21" height="21" fill="white" transform="translate(264 368)"/>
</clipPath>
<clipPath id="clip1_5402_3951">
<rect width="36" height="36" fill="white" transform="translate(364.5 163.5)"/>
</clipPath>
<clipPath id="clip2_5402_3951">
<rect width="24" height="24" fill="white" transform="translate(258.5 95.5)"/>
</clipPath>
<clipPath id="clip3_5402_3951">
<rect width="26" height="26" fill="white" transform="translate(136 395)"/>
</clipPath>
<clipPath id="clip4_5402_3951">
<rect width="26" height="26" fill="white" transform="translate(202.5 282.5)"/>
</clipPath>
<clipPath id="clip5_5402_3951">
<rect width="30" height="30" fill="white" transform="translate(160.5 150)"/>
</clipPath>
<clipPath id="clip6_5402_3951">
<rect width="20" height="20" fill="white" transform="translate(419 252)"/>
</clipPath>
<clipPath id="clip7_5402_3951">
<rect width="24" height="24" fill="white" transform="translate(72 283)"/>
</clipPath>
</defs>
</svg>
