<svg width="36" height="36" viewBox="0 0 36 36" fill="none" xmlns="http://www.w3.org/2000/svg">
<path opacity="0.2" d="M4.5 19.125V27C4.5 27.5967 4.73705 28.169 5.15901 28.591C5.58097 29.0129 6.15326 29.25 6.75 29.25H9C9.59674 29.25 10.169 29.0129 10.591 28.591C11.0129 28.169 11.25 27.5967 11.25 27V21.375C11.25 20.7783 11.0129 20.206 10.591 19.784C10.169 19.3621 9.59674 19.125 9 19.125H4.5Z" fill="#0B63E5"/>
<path opacity="0.2" d="M27.2046 20.375H30.4546V27C30.4546 27.2652 30.3492 27.5196 30.1617 27.7071C29.9742 27.8946 29.7198 28 29.4546 28H27.2046C26.9394 28 26.685 27.8946 26.4975 27.7071C26.3099 27.5196 26.2046 27.2652 26.2046 27V21.375C26.2046 21.1098 26.3099 20.8554 26.4975 20.6679C26.685 20.4804 26.9394 20.375 27.2046 20.375Z" fill="#0B63E5" stroke="#0B63E5" stroke-width="2.5"/>
<path d="M31.7047 19.125H27.2047C26.608 19.125 26.0357 19.3621 25.6137 19.784C25.1918 20.206 24.9547 20.7783 24.9547 21.375V27C24.9547 27.5967 25.1918 28.169 25.6137 28.591C26.0357 29.013 26.608 29.25 27.2047 29.25H29.4547C30.0515 29.25 30.6238 29.013 31.0457 28.591C31.4677 28.169 31.7047 27.5967 31.7047 27V19.125ZM31.7047 19.125C31.7047 17.3435 31.3521 15.5797 30.6673 13.9351C29.9824 12.2906 28.9789 10.7978 27.7144 9.54294C26.45 8.28805 24.9496 7.29582 23.2999 6.62345C21.6502 5.95109 19.8838 5.61188 18.1024 5.62539C16.321 5.61188 14.5545 5.95109 12.9048 6.62345C11.2551 7.29582 9.75477 8.28805 8.49032 9.54294C7.22587 10.7978 6.2223 12.2906 5.53744 13.9351C4.85259 15.5797 4.5 17.3435 4.5 19.125V27C4.5 27.5967 4.73705 28.169 5.15901 28.591C5.58097 29.013 6.15326 29.25 6.75 29.25H9C9.59674 29.25 10.169 29.013 10.591 28.591C11.0129 28.169 11.25 27.5967 11.25 27V21.375C11.25 20.7783 11.0129 20.206 10.591 19.784C10.169 19.3621 9.59674 19.125 9 19.125H4.5" stroke="#0B63E5" stroke-width="2.5" stroke-linecap="round" stroke-linejoin="round"/>
</svg>
