<svg width="80" height="80" viewBox="0 0 80 80" fill="none" xmlns="http://www.w3.org/2000/svg">
<rect width="80" height="80" rx="8" fill="#FCECEC"/>
<path opacity="0.2" d="M34.6967 48.8388C32.929 54.1421 25.8579 54.1421 25.8579 54.1421C25.8579 54.1421 25.8579 47.071 31.1612 45.3032L34.6967 48.8388Z" fill="#E64545"/>
<path opacity="0.2" d="M41.3569 47.4821L47.5888 41.2502L47.5888 48.3213L42.5354 53.3747L41.3569 47.4821Z" fill="#E64545" stroke="#E64545" stroke-width="2.5"/>
<path opacity="0.2" d="M31.6789 32.4111H38.75L32.518 38.643L26.6255 37.4645L31.6789 32.4111Z" fill="#E64545" stroke="#E64545" stroke-width="2.5"/>
<path d="M34.6967 48.8388C32.929 54.1421 25.8579 54.1421 25.8579 54.1421C25.8579 54.1421 25.8579 47.071 31.1612 45.3032" stroke="#E64545" stroke-width="2.5" stroke-linecap="round" stroke-linejoin="round"/>
<path d="M50.6064 36.4646L39.9998 47.0712L32.9287 40.0002L43.5353 29.3936C47.5516 25.3773 51.5679 25.4165 53.2807 25.672C53.5444 25.7113 53.7885 25.8343 53.9771 26.0229C54.1656 26.2114 54.2886 26.4555 54.3279 26.7193C54.5835 28.4321 54.6226 32.4484 50.6064 36.4646Z" stroke="#E64545" stroke-width="2.5" stroke-linecap="round" stroke-linejoin="round"/>
<path d="M48.8388 38.2324V48.3213C48.8388 48.4854 48.8065 48.648 48.7437 48.7996C48.6809 48.9513 48.5888 49.0891 48.4727 49.2051L43.4193 54.2585C43.2593 54.4185 43.0589 54.5321 42.8395 54.5871C42.62 54.6422 42.3897 54.6366 42.1732 54.571C41.9567 54.5055 41.762 54.3824 41.6099 54.2148C41.4578 54.0473 41.3541 53.8417 41.3097 53.6198L40 47.0713" stroke="#E64545" stroke-width="2.5" stroke-linecap="round" stroke-linejoin="round"/>
<path d="M41.7677 31.1611H31.6789C31.5147 31.1611 31.3522 31.1935 31.2005 31.2563C31.0489 31.3191 30.9111 31.4112 30.795 31.5272L25.7416 36.5806C25.5816 36.7406 25.4681 36.941 25.413 37.1605C25.358 37.3799 25.3636 37.6102 25.4291 37.8268C25.4947 38.0433 25.6178 38.238 25.7853 38.3901C25.9528 38.5421 26.1585 38.6459 26.3803 38.6903L32.9289 40" stroke="#E64545" stroke-width="2.5" stroke-linecap="round" stroke-linejoin="round"/>
</svg>
