<svg width="80" height="80" viewBox="0 0 80 80" fill="none" xmlns="http://www.w3.org/2000/svg">
<rect width="80" height="80" rx="8" fill="#FEEDFA"/>
<path opacity="0.2" d="M25.1731 31.6587C25.0597 31.851 25 32.0701 25 32.2933V47.7062C25 47.928 25.059 48.1458 25.171 48.3373C25.283 48.5287 25.4439 48.687 25.6372 48.7957L39.3872 56.5301C39.5743 56.6353 39.7853 56.6906 40 56.6906L40.0016 56.6906L40.1483 39.9998L25.1731 31.6587L25.1731 31.6587Z" fill="#F249C8"/>
<path d="M55 47.7063V32.2935C55 32.0717 54.941 31.8539 54.829 31.6624C54.717 31.4709 54.5561 31.3127 54.3628 31.204L40.6128 23.4696C40.4257 23.3644 40.2147 23.3091 40 23.3091C39.7853 23.3091 39.5743 23.3644 39.3872 23.4696L25.6372 31.204C25.4439 31.3127 25.283 31.4709 25.171 31.6624C25.059 31.8539 25 32.0717 25 32.2935V47.7063C25 47.9281 25.059 48.1459 25.171 48.3374C25.283 48.5288 25.4439 48.6871 25.6372 48.7958L39.3872 56.5302C39.5743 56.6354 39.7853 56.6907 40 56.6907C40.2147 56.6907 40.4257 56.6354 40.6128 56.5302L54.3628 48.7958C54.5561 48.6871 54.717 48.5288 54.829 48.3374C54.941 48.1459 55 47.9281 55 47.7063Z" stroke="#F249C8" stroke-width="2.5" stroke-linecap="round" stroke-linejoin="round"/>
<path d="M47.6597 43.8298V35.7048L32.5 27.3438" stroke="#F249C8" stroke-width="2.5" stroke-linecap="round" stroke-linejoin="round"/>
<path d="M54.8274 31.6603L40.148 39.9998L25.1729 31.6587" stroke="#F249C8" stroke-width="2.5" stroke-linecap="round" stroke-linejoin="round"/>
<path d="M40.1481 40L40.0015 56.6908" stroke="#F249C8" stroke-width="2.5" stroke-linecap="round" stroke-linejoin="round"/>
</svg>
