<svg width="24" height="24" viewBox="0 0 24 24" fill="none" xmlns="http://www.w3.org/2000/svg">
<path opacity="0.2" d="M12.0044 16.0213L12.0044 16.0212C10.2592 15.1774 8.84769 13.7723 7.99593 12.0309L8.66965 11.7014L7.99341 12.0257C7.8817 11.7928 7.83232 11.5349 7.85009 11.2772C7.8678 11.0203 7.95165 10.7724 8.09347 10.5575L9.65222 8.17576L7.76874 3.78096L7.76854 3.78051C6.86615 3.89751 6.03696 4.3386 5.43557 5.0217C4.83267 5.70651 4.50006 6.58759 4.5 7.49997L12.0044 16.0213ZM12.0044 16.0213L12.0097 16.0238M12.0044 16.0213L12.0097 16.0238M12.0097 16.0238C12.2441 16.1348 12.5033 16.1829 12.7618 16.1634C13.0195 16.1439 13.2678 16.0578 13.4823 15.9136C13.483 15.9131 13.4836 15.9127 13.4843 15.9122L15.828 14.3494L20.219 16.2312L20.2195 16.2314M12.0097 16.0238L20.2195 16.2314M20.2195 16.2314C20.1025 17.1338 19.6614 17.963 18.9783 18.5644C18.2935 19.1673 17.4124 19.4999 16.5 19.5L20.2195 16.2314ZM7.7678 3.77876L7.76779 3.77876C7.76779 3.77876 7.7678 3.77876 7.7678 3.77876ZM16.5 19.5C13.3174 19.5 10.2651 18.2357 8.01472 15.9853C5.76429 13.7348 4.50001 10.6826 4.5 7.50001L16.5 19.5Z" fill="#0B63E5" stroke="#0B63E5" stroke-width="1.5"/>
<path d="M8.66965 11.7014C9.44762 13.2919 10.7369 14.5753 12.3309 15.346C12.4475 15.4013 12.5765 15.4252 12.7052 15.4155C12.8339 15.4058 12.9579 15.3627 13.0648 15.2905L15.4119 13.7254C15.5157 13.6562 15.6352 13.6139 15.7594 13.6025C15.8837 13.5911 16.0088 13.6109 16.1235 13.66L20.5144 15.5419C20.6636 15.6052 20.7881 15.7154 20.8693 15.8556C20.9504 15.9959 20.9838 16.1588 20.9643 16.3197C20.8255 17.4057 20.2956 18.4039 19.4739 19.1273C18.6521 19.8508 17.5948 20.2499 16.5 20.25C13.1185 20.25 9.87548 18.9067 7.48439 16.5156C5.0933 14.1245 3.75 10.8815 3.75 7.49997C3.75006 6.40513 4.14918 5.34786 4.87264 4.5261C5.5961 3.70435 6.59428 3.17448 7.68028 3.03569C7.84117 3.01622 8.00403 3.04956 8.14432 3.1307C8.28461 3.21183 8.39473 3.33636 8.4581 3.48552L10.3416 7.88032C10.3903 7.994 10.4101 8.11796 10.3994 8.24116C10.3886 8.36436 10.3475 8.48299 10.2798 8.58647L8.72011 10.9696C8.64912 11.0768 8.60716 11.2006 8.59831 11.3288C8.58947 11.4571 8.61405 11.5855 8.66965 11.7014V11.7014Z" stroke="#0B63E5" stroke-width="1.5" stroke-linecap="round" stroke-linejoin="round"/>
<path d="M14.9453 3.75C16.2167 4.09194 17.376 4.76196 18.307 5.69294C19.238 6.62392 19.908 7.78319 20.2499 9.05462" stroke="#0B63E5" stroke-width="1.5" stroke-linecap="round" stroke-linejoin="round"/>
<path d="M14.168 6.64844C14.9308 6.8536 15.6264 7.25561 16.185 7.8142C16.7436 8.37279 17.1456 9.06835 17.3507 9.83121" stroke="#0B63E5" stroke-width="1.5" stroke-linecap="round" stroke-linejoin="round"/>
</svg>
