<svg width="88" height="63" viewBox="0 0 88 63" fill="none" xmlns="http://www.w3.org/2000/svg">
<path opacity="0.2" d="M35.875 36.5H8.25C7.38805 36.5 6.5614 36.1576 5.9519 35.5481C5.34241 34.9386 5 34.112 5 33.25V7.25C5 6.38805 5.34241 5.5614 5.9519 4.9519C6.5614 4.34241 7.38805 4 8.25 4H32.625C33.487 4 34.3136 4.34241 34.9231 4.9519C35.5326 5.5614 35.875 6.38805 35.875 7.25V36.5Z" fill="#FFE7CC"/>
<path opacity="0.2" d="M83 36.5H55.375C54.513 36.5 53.6864 36.1576 53.0769 35.5481C52.4674 34.9386 52.125 34.112 52.125 33.25V7.25C52.125 6.38805 52.4674 5.5614 53.0769 4.9519C53.6864 4.34241 54.513 4 55.375 4H79.75C80.612 4 81.4386 4.34241 82.0481 4.9519C82.6576 5.5614 83 6.38805 83 7.25V36.5Z" fill="#FFE7CC"/>
<path d="M35.875 36.5H8.25C7.38805 36.5 6.5614 36.1576 5.9519 35.5481C5.34241 34.9386 5 34.112 5 33.25V7.25C5 6.38805 5.34241 5.5614 5.9519 4.9519C6.5614 4.34241 7.38805 4 8.25 4H32.625C33.487 4 34.3136 4.34241 34.9231 4.9519C35.5326 5.5614 35.875 6.38805 35.875 7.25V43C35.875 47.3098 34.163 51.443 31.1155 54.4905C28.068 57.538 23.9348 59.25 19.625 59.25" stroke="#FFE7CC" stroke-width="6.70968" stroke-linecap="round" stroke-linejoin="round"/>
<path d="M83 36.5H55.375C54.513 36.5 53.6864 36.1576 53.0769 35.5481C52.4674 34.9386 52.125 34.112 52.125 33.25V7.25C52.125 6.38805 52.4674 5.5614 53.0769 4.9519C53.6864 4.34241 54.513 4 55.375 4H79.75C80.612 4 81.4386 4.34241 82.0481 4.9519C82.6576 5.5614 83 6.38805 83 7.25V43C83 47.3098 81.288 51.443 78.2405 54.4905C75.193 57.538 71.0598 59.25 66.75 59.25" stroke="#FFE7CC" stroke-width="6.70968" stroke-linecap="round" stroke-linejoin="round"/>
</svg>
