<svg width="64" height="64" viewBox="0 0 64 64" fill="none" xmlns="http://www.w3.org/2000/svg">
<rect width="64" height="64" rx="7" fill="#F0F5FF"/>
<path d="M33.2928 41.7071C33.1054 41.5196 33.0001 41.2652 33.0001 41C33.0001 40.7348 33.1054 40.4805 33.2928 40.2929L40.5858 33H21C20.7348 33 20.4804 32.8947 20.2929 32.7071C20.1054 32.5196 20 32.2652 20 32C20 31.7348 20.1054 31.4805 20.2929 31.2929C20.4804 31.1054 20.7348 31 21 31H40.5858L33.2928 23.7071C33.2 23.6143 33.1263 23.504 33.0761 23.3827C33.0258 23.2613 33 23.1313 33 23C33 22.8687 33.0259 22.7386 33.0761 22.6173C33.1264 22.496 33.2 22.3857 33.2929 22.2929C33.3858 22.2 33.496 22.1264 33.6173 22.0761C33.7387 22.0259 33.8687 22 34 22C34.1314 22 34.2614 22.0259 34.3827 22.0761C34.5041 22.1264 34.6143 22.2001 34.7072 22.2929L43.7072 31.2929C43.7104 31.2962 43.7131 31.2998 43.7163 31.3031C43.7361 31.3233 43.7552 31.3441 43.7732 31.366C43.7832 31.3782 43.792 31.3911 43.8014 31.4037C43.8115 31.4173 43.822 31.4306 43.8315 31.4447C43.8412 31.4592 43.8497 31.4743 43.8586 31.4893C43.8664 31.5023 43.8746 31.5151 43.8818 31.5286C43.8898 31.5436 43.8967 31.5591 43.9039 31.5744C43.9107 31.5887 43.9178 31.6027 43.9238 31.6173C43.9299 31.6321 43.9349 31.6472 43.9403 31.6623C43.9459 31.678 43.952 31.6936 43.9569 31.7097C43.9614 31.7247 43.9647 31.7399 43.9685 31.755C43.9727 31.7715 43.9773 31.7879 43.9806 31.8047C43.9841 31.8221 43.9861 31.8397 43.9887 31.8572C43.9908 31.872 43.9936 31.8864 43.995 31.9013C43.9983 31.9342 44 31.9671 44 32C44 32.033 43.9983 32.0659 43.995 32.0987C43.9936 32.1136 43.9908 32.1281 43.9887 32.1428C43.9862 32.1604 43.9841 32.1779 43.9806 32.1954C43.9773 32.2122 43.9727 32.2285 43.9685 32.245C43.9647 32.2602 43.9614 32.2754 43.9569 32.2903C43.952 32.3064 43.9459 32.322 43.9403 32.3378C43.9349 32.3528 43.9299 32.3679 43.9238 32.3827C43.9178 32.3973 43.9106 32.4113 43.9039 32.4256C43.8967 32.4409 43.8898 32.4564 43.8818 32.4715C43.8746 32.4849 43.8664 32.4977 43.8586 32.5108C43.8497 32.5257 43.8412 32.5409 43.8315 32.5554C43.822 32.5695 43.8115 32.5828 43.8014 32.5963C43.792 32.6089 43.7832 32.6219 43.7732 32.6341C43.7549 32.6563 43.7354 32.6775 43.7153 32.6981C43.7124 32.701 43.7101 32.7042 43.7072 32.7071L34.7072 41.7071C34.6143 41.8 34.504 41.8736 34.3827 41.9239C34.2614 41.9742 34.1313 42 34 42C33.8687 42 33.7386 41.9742 33.6173 41.9239C33.496 41.8736 33.3857 41.8 33.2928 41.7071Z" fill="#0B63E5"/>
</svg>
