<svg width="156" height="88" viewBox="0 0 156 88" fill="none" xmlns="http://www.w3.org/2000/svg">
<rect x="0.5" width="155" height="88" rx="8" fill="white"/>
<path d="M89.2681 44.6785C87.1952 42.9561 84.516 41.8421 82.1523 40.8638C78.8913 39.5072 76.0729 38.3439 76.0729 36.1776C76.0729 35.2321 76.5153 34.3647 77.3182 33.7358C78.1621 33.0781 79.342 32.7081 80.6365 32.7081C84.7167 32.7081 87.9694 35.6062 87.9981 35.6267L88.7929 36.3584L92.4061 29.5593L91.9923 29.1195C91.8326 28.955 88.0309 25.0088 80.6857 25.0088C77.1667 25.0088 73.9262 26.1392 71.5666 28.1905C70.396 29.1853 69.4563 30.4247 68.813 31.8221C68.1698 33.2195 67.8387 34.7411 67.8428 36.2803C67.8428 39.3346 69.0267 41.8051 71.4519 43.8317C73.492 45.5335 76.036 46.6311 78.4981 47.6958C81.8491 49.1469 84.7495 50.4006 84.7495 52.6286C84.7495 54.3305 83.6025 56.1474 80.3866 56.1474C75.7738 56.1474 72.0705 52.6245 72.0377 52.5875L71.3413 51.9134L66.8514 58.1617L67.302 58.6632C67.3512 58.7125 68.5105 59.9991 70.694 61.2817C73.6075 62.9753 76.9171 63.8619 80.2842 63.8509C84.049 63.8509 87.2566 62.6917 89.563 60.5006C91.7342 58.4412 92.9264 55.5925 92.9264 52.4848C92.9264 49.2784 91.7301 46.7298 89.2681 44.6785ZM127.236 63.2877H135.654V25.5719H127.24L127.236 63.2877ZM110.788 56.2255H104.376V32.63H110.026C112.557 32.63 114.008 34.0523 114.008 36.5311C114.008 39.0345 112.705 40.3006 110.124 40.3006H108.178V47.2477H110.784C112.205 47.2477 113.393 47.6917 114.212 48.5385C114.618 48.9282 114.936 49.4007 115.144 49.9239C115.353 50.4472 115.447 51.0092 115.421 51.5722C115.421 54.4497 113.647 56.2296 110.784 56.2296M121.959 46.3434C121.14 45.043 119.989 43.9868 118.624 43.285C120.816 41.5215 122.057 38.8166 122.057 35.7213C122.057 32.5971 120.869 29.9909 118.624 28.1781C116.511 26.4722 113.573 25.5719 110.124 25.5719H96.429V63.2877H110.276C113.95 63.2877 117.129 62.3587 119.468 60.5952C122.119 58.5933 123.524 55.613 123.524 51.975C123.524 49.9032 122.983 47.9548 121.959 46.3434Z" fill="#292075"/>
<path d="M41.6817 24.8937C39.1265 24.8964 36.5969 25.4041 34.2373 26.3879C31.8777 27.3718 29.7343 28.8123 27.9296 30.6275C26.1249 32.4426 24.6942 34.5966 23.7193 36.9666C22.7443 39.3366 22.2441 41.8761 22.2474 44.4401C22.2417 49.2725 24.0221 53.9353 27.2441 57.5268C30.4661 61.1182 34.9009 63.3833 39.6908 63.8838V49.6813C38.6313 49.276 37.7195 48.5575 37.0758 47.6209C36.4321 46.6843 36.0868 45.5737 36.0857 44.436C36.0857 41.3406 38.597 38.8208 41.6817 38.8208C44.7665 38.8208 47.2777 41.3406 47.2777 44.436C47.2777 46.8284 45.7742 48.8756 43.6686 49.6813V63.8756C48.4585 63.375 52.8932 61.11 56.1153 57.5185C59.3373 53.927 61.1176 49.2643 61.112 44.4319C61.1153 39.2565 59.0704 34.2917 55.4268 30.6287C51.7833 26.9657 46.8393 24.9043 41.6817 24.8978" fill="#00B5EF"/>
</svg>
