<svg width="32" height="32" viewBox="0 0 32 32" fill="none" xmlns="http://www.w3.org/2000/svg">
<path opacity="0.2" d="M16 20C18.2091 20 20 18.2091 20 16C20 13.7909 18.2091 12 16 12C13.7909 12 12 13.7909 12 16C12 18.2091 13.7909 20 16 20Z" fill="white"/>
<path opacity="0.2" d="M29 12.7962L24.6614 9L29 8.99999V12.7962Z" stroke="#0B63E5" stroke-width="2"/>
<path opacity="0.2" d="M29 19.2038L29 23H24.6614L29 19.2038Z" stroke="#0B63E5" stroke-width="2"/>
<path opacity="0.2" d="M2.99999 9H2L3 8.99999L2.99999 9L2.99999 9ZM3 12.7962V9H7.33855L3 12.7962Z" fill="white" stroke="#0B63E5" stroke-width="2"/>
<path opacity="0.2" d="M2 23C2 23.1313 2.02586 23.2614 2.07612 23.3827C2.12637 23.504 2.20003 23.6143 2.29289 23.7071C2.38575 23.8 2.49599 23.8736 2.61732 23.9239C2.73864 23.9741 2.86868 24 3 24H10L2 17V23Z" fill="white"/>
<path d="M29 8H3C2.44772 8 2 8.44772 2 9V23C2 23.5523 2.44772 24 3 24H29C29.5523 24 30 23.5523 30 23V9C30 8.44772 29.5523 8 29 8Z" stroke="#0B63E5" stroke-width="1.5" stroke-linecap="round" stroke-linejoin="round"/>
<path d="M16 20C18.2091 20 20 18.2091 20 16C20 13.7909 18.2091 12 16 12C13.7909 12 12 13.7909 12 16C12 18.2091 13.7909 20 16 20Z" stroke="#0B63E5" stroke-width="1.5" stroke-linecap="round" stroke-linejoin="round"/>
<path d="M22 8L30 15" stroke="#0B63E5" stroke-width="1.5" stroke-linecap="round" stroke-linejoin="round"/>
<path d="M22 24L30 17" stroke="#0B63E5" stroke-width="1.5" stroke-linecap="round" stroke-linejoin="round"/>
<path d="M10 8L2 15" stroke="#0B63E5" stroke-width="1.5" stroke-linecap="round" stroke-linejoin="round"/>
<path d="M10 24L2 17" stroke="#0B63E5" stroke-width="1.5" stroke-linecap="round" stroke-linejoin="round"/>
</svg>
