<svg width="32" height="32" viewBox="0 0 32 32" fill="none" xmlns="http://www.w3.org/2000/svg">
<path opacity="0.2" d="M26.9921 9.21315L16.4921 3.27838C16.342 3.19352 16.1724 3.14893 16 3.14893C15.8276 3.14893 15.6581 3.19352 15.5079 3.27838L5.00794 9.21315C4.85378 9.30029 4.72552 9.42681 4.63627 9.57976C4.54703 9.73271 4.5 9.90662 4.5 10.0837V21.9168C4.50001 22.0939 4.54703 22.2678 4.63628 22.4207C4.72552 22.5737 4.85377 22.7002 5.00794 22.7874L15.5079 28.7221C15.6581 28.807 15.8276 28.8516 16 28.8516C16.1724 28.8516 16.3419 28.807 16.4921 28.7221L26.9921 22.7874C27.1462 22.7002 27.2745 22.5737 27.3637 22.4207C27.453 22.2678 27.5 22.0939 27.5 21.9168V10.0837C27.5 9.90662 27.453 9.73272 27.3637 9.57976C27.2745 9.42681 27.1462 9.30029 26.9921 9.21315V9.21315ZM16 20.5002C15.11 20.5002 14.24 20.2363 13.4999 19.7419C12.7599 19.2474 12.1831 18.5446 11.8425 17.7223C11.5019 16.9001 11.4128 15.9953 11.5865 15.1223C11.7601 14.2494 12.1887 13.4476 12.818 12.8183C13.4474 12.1889 14.2492 11.7603 15.1221 11.5867C15.995 11.4131 16.8998 11.5022 17.7221 11.8428C18.5443 12.1834 19.2471 12.7602 19.7416 13.5002C20.2361 14.2402 20.5 15.1102 20.5 16.0002C20.5 16.5912 20.3836 17.1764 20.1575 17.7223C19.9313 18.2683 19.5998 18.7644 19.182 19.1822C18.7641 19.6001 18.268 19.9316 17.7221 20.1577C17.1761 20.3839 16.5909 20.5002 16 20.5002V20.5002Z" fill="#0B63E5"/>
<path d="M27.5 21.9168V10.0837C27.5 9.90662 27.453 9.73271 27.3637 9.57975C27.2745 9.4268 27.1462 9.30028 26.9921 9.21314L16.4921 3.27836C16.3419 3.19351 16.1724 3.14893 16 3.14893C15.8276 3.14893 15.6581 3.19351 15.5079 3.27836L5.00794 9.21314C4.85378 9.30028 4.72552 9.4268 4.63627 9.57975C4.54703 9.73271 4.5 9.90662 4.5 10.0837V21.9168C4.5 22.0939 4.54703 22.2678 4.63627 22.4207C4.72552 22.5737 4.85378 22.7002 5.00794 22.7873L15.5079 28.7221C15.6581 28.807 15.8276 28.8516 16 28.8516C16.1724 28.8516 16.3419 28.807 16.4921 28.7221L26.9921 22.7873C27.1462 22.7002 27.2745 22.5737 27.3637 22.4207C27.453 22.2678 27.5 22.0939 27.5 21.9168V21.9168Z" stroke="#0B63E5" stroke-width="2" stroke-linecap="round" stroke-linejoin="round"/>
<path d="M16 20.5C18.4853 20.5 20.5 18.4853 20.5 16C20.5 13.5147 18.4853 11.5 16 11.5C13.5147 11.5 11.5 13.5147 11.5 16C11.5 18.4853 13.5147 20.5 16 20.5Z" stroke="#0B63E5" stroke-width="2" stroke-linecap="round" stroke-linejoin="round"/>
</svg>
