<svg width="156" height="88" viewBox="0 0 156 88" fill="none" xmlns="http://www.w3.org/2000/svg">
<rect x="0.5" width="155" height="88" rx="8" fill="white"/>
<g clip-path="url(#clip0_5629_7920)">
<path d="M95.9944 72H60.0056V16H95.9944V60.184V72Z" fill="#ED2028"/>
<path d="M93.3654 18.6264V69.3736H62.6346V18.6264H93.3654ZM94.4842 17.5064H61.5159V70.4936H94.4842V17.5064Z" fill="white"/>
<path d="M77.9944 26.4384H78.0336C84.6451 26.4608 89.9422 31.7808 89.9254 38.3776C89.9087 44.9128 84.5668 50.216 78.0056 50.216H77.9832C71.3996 50.2048 66.0578 44.868 66.069 38.3272C66.0858 31.7416 71.4108 26.4384 77.9944 26.4384ZM77.9944 25.4304C76.2492 25.4304 74.56 25.772 72.9658 26.444C71.4276 27.0936 70.046 28.0232 68.8602 29.2048C67.6743 30.3864 66.7402 31.7696 66.0914 33.304C65.4146 34.8944 65.0733 36.5856 65.0678 38.3328C65.0622 40.0688 65.4034 41.7544 66.0802 43.3448C66.729 44.8792 67.6632 46.2568 68.849 47.444C70.0348 48.6256 71.4164 49.5608 72.9546 50.2104C74.5488 50.888 76.2436 51.2296 77.9832 51.2352H78.0112C85.1206 51.2352 90.9211 45.4728 90.9379 38.3888C90.9435 36.6416 90.6078 34.9448 89.9366 33.3488C89.2934 31.8088 88.3648 30.4256 87.179 29.2384C85.9988 28.0512 84.6172 27.116 83.0789 26.4664C81.4848 25.7888 79.7899 25.4472 78.0392 25.4416L77.9944 25.4304Z" fill="white"/>
<path d="M75.1137 33.2032C74.532 37.952 73.9503 42.6784 73.3686 47.4048H79.0348C79.6501 42.6672 80.271 37.9408 80.8863 33.1976H84.7961C85.0031 32.268 85.2045 31.3496 85.417 30.4144H83.9403C79.7564 30.4144 75.5724 30.4144 71.3884 30.4088C71.243 30.4088 71.1871 30.448 71.1535 30.5936C71.0193 31.2544 70.8682 31.9096 70.7228 32.5648C70.6781 32.772 70.6333 32.9792 70.583 33.1976C72.11 33.2032 73.6035 33.2032 75.1137 33.2032ZM89.2262 58.7392C88.6613 59.3832 87.9229 59.7136 87.0615 59.7416C86.5581 59.7584 86.0547 59.3776 85.8981 58.9016C86.2561 58.7392 86.614 58.5712 86.9832 58.4032C87.0951 58.5992 87.2181 58.7616 87.4531 58.8008C87.7272 58.8456 88.1746 58.644 88.3089 58.4088C88.4096 58.2352 88.376 58.0728 88.2753 57.916C88.1858 57.7704 88.0404 57.7312 87.8838 57.7592C87.481 57.8208 87.0783 57.9104 86.6756 57.9608C86.4462 57.9888 86.2001 58.0056 85.982 57.9552C85.2157 57.776 84.88 56.8128 85.3275 56.1184C85.6072 55.6872 86.0267 55.4408 86.4854 55.256C86.7371 55.1552 87.0056 55.0768 87.2741 55.0432C87.8558 54.976 88.2753 55.2504 88.527 55.8384C88.1579 56.0064 87.7999 56.1744 87.4307 56.3424C87.3244 56.1184 87.1734 55.9672 86.9217 55.9672C86.6756 55.9728 86.4798 56.0904 86.3456 56.292C86.2505 56.432 86.2561 56.5832 86.34 56.7288C86.4183 56.8688 86.5413 56.9416 86.6979 56.9248C87.0503 56.8744 87.4027 56.8016 87.7607 56.7624C88.046 56.7288 88.3369 56.7008 88.6221 56.7232C88.7843 56.7344 88.9577 56.8296 89.0864 56.9416C89.4947 57.2944 89.8135 58.0728 89.2262 58.7392ZM70.7228 60.6264C71.808 60.8952 72.8707 61.1584 73.9447 61.4272C74.0118 61.1472 74.0789 60.8784 74.1461 60.604C73.4469 60.4304 72.77 60.2624 72.0876 60.0888C72.1659 59.7864 72.2387 59.4952 72.3114 59.1872C72.949 59.344 73.5699 59.5008 74.202 59.6576C74.2691 59.3832 74.3362 59.1256 74.4034 58.8512C73.7657 58.6888 73.1448 58.5376 72.5071 58.3752C72.5799 58.0784 72.6526 57.7984 72.7253 57.5016C73.3965 57.6696 74.0621 57.832 74.739 58C74.8061 57.7312 74.8732 57.468 74.9403 57.1936C73.8832 56.9304 72.8316 56.6672 71.7688 56.404C71.4164 57.8208 71.0696 59.2208 70.7228 60.6264ZM69.5649 56.9136C69.9285 57.0816 70.2921 57.2496 70.6501 57.4176C70.9298 56.9304 70.8738 56.4152 70.5103 56.0176C70.2362 55.7152 69.8894 55.5192 69.5146 55.368C69.1175 55.2 68.7147 55.0992 68.2784 55.1832C67.596 55.312 67.1206 56.0512 67.3163 56.6952C67.4114 56.9976 67.624 57.216 67.8589 57.412C68.1554 57.6584 68.4574 57.8992 68.7483 58.1456C68.9329 58.3024 68.972 58.4592 68.8881 58.6496C68.7986 58.8568 68.6196 58.9632 68.3959 58.9296C68.161 58.896 67.954 58.7952 67.7862 58.6328C67.6576 58.504 67.596 58.3416 67.6352 58.1512C67.652 58.0728 67.6743 58 67.6967 57.9104C67.3387 57.7424 66.9751 57.5744 66.6172 57.412C66.3487 57.8768 66.4158 58.4872 66.7682 58.8904C67.0814 59.2432 67.4786 59.4672 67.9093 59.6408C68.3288 59.8088 68.7595 59.9096 69.207 59.8088C69.6992 59.6968 69.9789 59.3552 70.1299 58.896C70.2697 58.4648 70.1411 58.1008 69.8334 57.7872C69.688 57.636 69.5146 57.5128 69.3692 57.3616C69.1119 57.0984 68.8546 56.8296 68.6308 56.544C68.4966 56.3704 68.5581 56.208 68.7483 56.1128C68.9832 55.9896 69.207 56.0624 69.4139 56.1968C69.6041 56.32 69.6656 56.5104 69.6265 56.7344C69.6097 56.7904 69.5873 56.8464 69.5649 56.9136ZM83.1796 60.24C83.1069 59.932 83.0342 59.6352 82.9615 59.3384C83.6047 59.1816 84.2256 59.0248 84.8577 58.8736C84.7906 58.5936 84.7234 58.3304 84.6563 58.0672C84.0131 58.224 83.3922 58.3752 82.7601 58.532C82.6874 58.2296 82.6147 57.9496 82.5475 57.6584C83.2244 57.4904 83.89 57.328 84.5612 57.16C84.4941 56.88 84.427 56.6224 84.3598 56.3536C83.2971 56.6168 82.2511 56.8744 81.1883 57.132C81.5351 58.5432 81.8763 59.9432 82.2231 61.3544C83.3027 61.0912 84.371 60.828 85.445 60.5648C85.3779 60.2792 85.3108 60.0216 85.2436 59.7472C84.5444 59.904 83.8676 60.072 83.1796 60.24ZM79.4264 57.2608C79.6389 58.7056 79.8459 60.1392 80.0528 61.5728C80.4779 61.5112 80.8751 61.4496 81.2834 61.3936C81.0708 59.9432 80.8639 58.5152 80.6569 57.0816C80.2374 57.1432 79.8459 57.1992 79.4264 57.2608ZM78.3804 59.4056C78.2293 59.456 78.0727 59.4896 77.9105 59.5344C77.9441 59.5456 77.9776 59.5568 78.0112 59.5624C78.5314 59.6408 78.7216 59.8424 78.7719 60.38C78.7943 60.604 78.8055 60.828 78.8334 61.052C78.8614 61.276 78.9006 61.4944 78.9397 61.7464C78.509 61.724 78.0783 61.7072 77.6196 61.6848C77.5917 61.304 77.5581 60.9344 77.5357 60.5704C77.5134 60.0832 77.4071 59.9656 76.9204 59.9432C76.775 59.9376 76.624 59.9432 76.4618 59.9432C76.4506 60.2232 76.4338 60.5032 76.4226 60.7776C76.4058 61.052 76.3891 61.3264 76.3723 61.6232C75.9751 61.6008 75.5836 61.5784 75.1641 61.556C75.2368 60.1112 75.3151 58.6664 75.3878 57.2048C75.6731 57.216 75.9416 57.2272 76.2157 57.244C76.6855 57.272 77.1554 57.2944 77.6196 57.328C77.8266 57.3448 78.0392 57.3672 78.2405 57.4176C78.6321 57.5072 78.9341 57.8488 78.9677 58.252C78.9845 58.4368 78.9733 58.6328 78.9341 58.8176C78.8838 59.1144 78.6656 59.3048 78.3804 59.4056ZM77.519 58.1624C77.2113 58.056 76.8925 58.0784 76.5681 58.0616C76.5513 58.4256 76.5345 58.7672 76.5177 59.148C76.8198 59.148 77.105 59.1592 77.3847 59.1424C77.6085 59.1312 77.7763 58.9464 77.8098 58.7112C77.8434 58.4536 77.7371 58.2408 77.519 58.1624Z" fill="white"/>
</g>
<defs>
<clipPath id="clip0_5629_7920">
<rect width="36" height="56" fill="white" transform="translate(60 16)"/>
</clipPath>
</defs>
</svg>
