<svg width="560" height="688" viewBox="0 0 560 688" fill="none" xmlns="http://www.w3.org/2000/svg">
<rect width="560" height="688" fill="#073B89"/>
<path opacity="0.05" d="M504.5 -2.19548e-06H547.456C549.65 -2.19548e-06 551.68 1.16599 552.785 3.06203V3.06203C554.197 5.48276 553.799 8.55061 551.818 10.532L516.192 46.1583C509.035 53.3148 505.457 56.8931 501.01 56.8931C496.564 56.8931 492.986 53.3148 485.829 46.1583L451.605 11.9341C448.946 9.27488 448.867 4.98846 451.426 2.233V2.233C452.749 0.808903 454.605 -0.000239704 456.548 -0.000230453L504.5 -2.19548e-06Z" fill="white"/>
<path opacity="0.05" d="M526.551 55.496C532.427 49.62 535.365 46.682 538.937 46.1886C539.912 46.054 540.9 46.054 541.875 46.1886C545.447 46.682 548.385 49.62 554.261 55.496V55.496C556.818 58.053 558.097 59.3315 558.878 60.9029C559.097 61.3429 559.285 61.7973 559.441 62.2631C560 63.9266 560 65.7347 560 69.3509L560 98L559.915 122.459C559.903 126.023 559.897 127.805 559.347 129.446C559.185 129.931 558.988 130.403 558.759 130.86C557.982 132.406 556.721 133.666 554.201 136.186V136.186C548.383 142.005 545.473 144.914 541.941 145.424C540.923 145.571 539.889 145.571 538.872 145.424C535.339 144.914 532.43 142.005 526.611 136.186L501.418 110.992C494.261 103.836 490.683 100.258 490.683 95.811C490.683 91.3645 494.261 87.7862 501.418 80.6296L526.551 55.496Z" fill="white"/>
<rect opacity="0.05" x="476.387" y="105.66" width="76.6078" height="76.6078" rx="10.7349" transform="rotate(45 476.387 105.66)" fill="white"/>
<rect opacity="0.05" x="436.99" y="17.0183" width="76.6078" height="76.6078" rx="10.7349" transform="rotate(45 436.99 17.0183)" fill="white"/>
</svg>
