<svg width="31" height="35" viewBox="0 0 31 35" fill="none" xmlns="http://www.w3.org/2000/svg">
<path d="M29.125 17.0625C29.125 18.2625 27.6508 19.2516 27.3555 20.3578C27.0508 21.5016 27.8219 23.0953 27.243 24.0961C26.6547 25.1133 24.8852 25.2352 24.0602 26.0602C23.2352 26.8852 23.1133 28.6547 22.0961 29.243C21.0953 29.8219 19.5016 29.0508 18.3578 29.3555C17.2516 29.6508 16.2625 31.125 15.0625 31.125C13.8625 31.125 12.8734 29.6508 11.7672 29.3555C10.6234 29.0508 9.02969 29.8219 8.02891 29.243C7.01172 28.6547 6.88984 26.8852 6.06484 26.0602C5.23984 25.2352 3.47031 25.1133 2.88203 24.0961C2.30312 23.0953 3.07422 21.5016 2.76953 20.3578C2.47422 19.2516 1 18.2625 1 17.0625C1 15.8625 2.47422 14.8734 2.76953 13.7672C3.07422 12.6234 2.30312 11.0297 2.88203 10.0289C3.47031 9.01172 5.23984 8.88984 6.06484 8.06484C6.88984 7.23984 7.01172 5.47031 8.02891 4.88203C9.02969 4.30312 10.6234 5.07422 11.7672 4.76953C12.8734 4.47422 13.8625 3 15.0625 3C16.2625 3 17.2516 4.47422 18.3578 4.76953C19.5016 5.07422 21.0953 4.30312 22.0961 4.88203C23.1133 5.47031 23.2352 7.23984 24.0602 8.06484C24.8852 8.88984 26.6547 9.01172 27.243 10.0289C27.8219 11.0297 27.0508 12.6234 27.3555 13.7672C27.6508 14.8734 29.125 15.8625 29.125 17.0625Z" fill="#0B63E5"/>
<path d="M19.1271 12.8719L13.774 18.225L10.999 15.4524C10.3967 14.85 9.41934 14.85 8.81699 15.4524C8.21465 16.0547 8.21465 17.0321 8.81699 17.6344L12.71 21.5274C13.2959 22.1133 14.2475 22.1133 14.8334 21.5274L21.3068 15.054C21.9092 14.4516 21.9092 13.4743 21.3068 12.8719C20.7045 12.2696 19.7295 12.2696 19.1271 12.8719Z" fill="white"/>
</svg>
