<svg width="156" height="88" viewBox="0 0 156 88" fill="none" xmlns="http://www.w3.org/2000/svg">
<rect x="0.5" width="155" height="88" rx="8" fill="white"/>
<g clip-path="url(#clip0_5629_7935)">
<path fill-rule="evenodd" clip-rule="evenodd" d="M87.9519 37.2511C87.9425 37.2595 87.7109 37.2758 87.4372 37.2871C87.1635 37.2985 86.9284 37.3142 86.9148 37.322C86.9013 37.3297 86.7501 37.3466 86.5788 37.3596C86.4078 37.3726 86.257 37.3898 86.2438 37.3979C86.2309 37.406 86.1121 37.4221 85.9805 37.4339C85.308 37.4936 84.2793 37.7253 83.6863 37.9506C83.5522 38.0015 83.4143 38.0516 83.3802 38.062C83.2374 38.1052 83.2245 38.2093 83.2008 39.5094C83.1754 40.9034 83.1702 40.8699 83.4136 40.8995C83.4937 40.9093 83.6441 40.8866 83.7907 40.8426C84.3305 40.6807 84.5471 40.6212 85.1151 40.4786C85.8384 40.2971 86.638 40.1267 87.0817 40.0596C87.8436 39.9443 89.5768 39.9663 89.9317 40.0958C90.0017 40.1214 90.1751 40.1684 90.3172 40.2004C90.6139 40.2672 90.8493 40.3778 91.1077 40.5716C91.2965 40.7134 91.4124 40.9232 91.5068 41.2929C91.5681 41.5339 91.5726 41.5646 91.597 41.9306L91.62 42.2738L91.3097 42.2485C90.0797 42.148 88.6815 42.1075 88.0738 42.1548L87.0991 42.2308C86.1156 42.3075 84.8968 42.5602 84.288 42.8137C83.4878 43.1469 82.7174 43.7591 82.497 44.2369C82.0439 45.2191 81.9489 46.4758 82.2383 47.6483C82.349 48.0961 82.443 48.3492 82.5966 48.6109C82.6499 48.7022 82.6938 48.7919 82.6938 48.8102C82.6938 48.9101 83.51 49.6274 83.913 49.8816C84.0181 49.9479 84.1094 50.0141 84.1156 50.0287C84.1219 50.0434 84.148 50.0553 84.1735 50.0553C84.1989 50.0553 84.3267 50.1032 84.4576 50.1618C84.5889 50.2203 84.8215 50.3047 84.9748 50.3492C85.128 50.3937 85.3237 50.4537 85.4101 50.4824C85.4961 50.5112 85.8252 50.5787 86.1414 50.6324C86.7143 50.7299 86.7202 50.7301 88.3179 50.7304C89.9317 50.7307 90.3583 50.7076 90.9298 50.5893C91.7262 50.4243 92.0905 50.3257 92.3924 50.1931C93.0252 49.9154 93.1857 49.8205 93.5037 49.5364C93.706 49.3558 93.9835 49.0714 94.0734 48.9524C94.2402 48.7316 94.6017 47.9867 94.6727 47.7176C94.7128 47.5652 94.7598 47.4147 94.7772 47.3831C94.8489 47.2539 94.9719 46.3817 95.0084 45.7434C95.0359 45.2645 95.0331 43.4495 95.0039 42.9381C94.9691 42.3206 94.8886 41.7089 94.7942 41.345C94.6215 40.678 94.5244 40.406 94.3001 39.9609C93.7352 38.8402 92.5641 37.917 91.2084 37.5238C90.9841 37.4587 90.5307 37.3738 90.1462 37.3249C90.0598 37.3139 89.9502 37.2976 89.9024 37.2887C89.7844 37.2667 87.9732 37.2318 87.9519 37.2511ZM103.676 37.453C103.168 37.4786 103.045 37.4927 102.474 37.5902C101.952 37.6793 101.624 37.7696 101.257 37.9242C100.998 38.0337 100.884 38.094 100.539 38.3037C100.502 38.3264 100.375 38.402 100.258 38.4719C100.007 38.6206 99.5419 39.0872 99.2375 39.4947C98.9969 39.817 98.5738 40.6439 98.5738 40.7922C98.5738 40.8219 98.5515 40.8891 98.5243 40.9414C98.4233 41.1351 98.2259 42.0514 98.1538 42.6591C98.0887 43.2077 98.0817 43.4131 98.0956 44.4081C98.1162 45.8777 98.1855 46.3208 98.5818 47.5206C98.7301 47.9709 98.9224 48.3158 99.2932 48.7993C99.5433 49.125 100.046 49.6186 100.245 49.7337C100.331 49.7835 100.41 49.8334 100.419 49.8445C100.452 49.8825 100.575 49.9504 100.89 50.1027C101.226 50.2661 101.42 50.3353 101.819 50.4349C101.959 50.4698 102.16 50.522 102.265 50.5509C102.853 50.712 103.736 50.7742 105.295 50.764C106.324 50.7573 106.559 50.7458 106.932 50.6841C107.694 50.5581 108.499 50.323 108.951 50.0949C109.293 49.9225 109.456 49.831 109.491 49.7912C109.51 49.7698 109.659 49.6443 109.822 49.5124C110.191 49.2137 110.344 49.0688 110.344 49.0198C110.344 48.9988 110.358 48.9817 110.374 48.9817C110.404 48.9817 110.742 48.5011 110.744 48.4563C110.744 48.4436 110.776 48.3968 110.815 48.3524C110.854 48.308 110.917 48.2172 110.956 48.1505C111.045 47.9995 111.285 47.4134 111.285 47.3474C111.285 47.3205 111.299 47.2837 111.316 47.2656C111.407 47.1691 111.627 46.0015 111.706 45.1978C111.744 44.8067 111.733 43.013 111.692 42.8169C111.682 42.7693 111.664 42.629 111.651 42.5052C111.561 41.5809 111.277 40.6016 110.947 40.0729C110.903 40.0018 110.867 39.9327 110.867 39.9194C110.867 39.906 110.784 39.785 110.682 39.6503C110.581 39.5157 110.451 39.3431 110.395 39.2669C110.339 39.1908 110.201 39.0427 110.088 38.9379C109.889 38.7526 109.463 38.4184 109.426 38.4184C109.416 38.4184 109.337 38.3709 109.25 38.3129C109.01 38.1515 108.482 37.9136 108.071 37.7811C107.708 37.6638 107.114 37.5548 106.427 37.4794C106.026 37.4354 104.345 37.4193 103.676 37.453ZM119.603 37.4646C119.596 37.4714 119.465 37.4868 119.312 37.4989C119.159 37.5109 118.931 37.5353 118.807 37.5531C118.682 37.5708 118.518 37.594 118.442 37.6046C118.12 37.6496 117.476 37.8492 117.187 37.9936C116.878 38.1486 116.298 38.5666 116.122 38.7606C115.946 38.9551 115.574 39.6569 115.504 39.925C115.431 40.2087 115.354 40.692 115.325 41.0475C115.289 41.5137 115.297 50.4903 115.335 50.5277C115.37 50.5628 118.443 50.5668 118.478 50.5319C118.493 50.5178 118.516 48.4917 118.53 46.0295C118.544 43.5673 118.566 41.4982 118.578 41.4316C118.629 41.1617 118.748 40.8242 118.831 40.7162C118.945 40.5671 119.202 40.3848 119.399 40.3131C119.801 40.167 120.248 40.1216 121.123 40.1382C122.185 40.1582 122.468 40.2175 122.8 40.4902C123.116 40.7494 123.21 40.9583 123.253 41.5008C123.271 41.7199 123.289 43.7927 123.293 46.1071C123.298 48.4215 123.31 50.3643 123.321 50.4244C123.339 50.5256 123.352 50.535 123.503 50.5496C123.773 50.576 126.461 50.5595 126.489 50.5313C126.503 50.5168 126.52 48.5141 126.525 46.0808C126.531 43.6476 126.543 41.5698 126.553 41.4638C126.562 41.3576 126.596 41.1784 126.627 41.0655C126.658 40.9525 126.692 40.8255 126.702 40.7833C126.731 40.656 127.038 40.3796 127.223 40.3136C127.778 40.1156 129.204 40.067 130.05 40.2174C130.553 40.3068 130.972 40.5942 131.075 40.9211C131.245 41.4587 131.25 41.5821 131.272 46.1822C131.282 48.5569 131.304 50.5124 131.319 50.5277C131.365 50.5727 134.269 50.5879 134.384 50.5437L134.481 50.506L134.466 45.8735C134.457 43.3257 134.441 41.1553 134.429 41.0506C134.33 40.1663 134.231 39.7962 133.973 39.3358C133.745 38.9303 133.414 38.5843 132.994 38.3138C131.929 37.6275 130.998 37.4315 128.941 37.4604C128.356 37.4686 127.824 37.4842 127.757 37.4951C127.69 37.5059 127.557 37.5228 127.461 37.5327C127.045 37.5756 126.524 37.6841 126.067 37.823C126.009 37.8407 125.797 37.937 125.597 38.0371C125.258 38.2058 125.213 38.2193 124.971 38.2228C124.726 38.2263 124.687 38.2158 124.361 38.0593C123.823 37.8007 123.447 37.6888 122.759 37.5826C121.964 37.4598 121.789 37.4485 120.717 37.4503C120.111 37.4514 119.61 37.4579 119.603 37.4646ZM67.6137 37.6266C67.4817 37.6536 67.3758 37.7487 67.2842 37.923C67.2459 37.9955 67.2055 38.0626 67.194 38.0721C67.1825 38.0816 67.1195 38.1673 67.0537 38.2626C66.9879 38.3578 66.9029 38.473 66.8653 38.5186C66.8273 38.5642 66.7337 38.6766 66.657 38.7684C66.4554 39.0098 66.3833 39.11 66.291 39.2756C66.2458 39.3565 66.196 39.4228 66.1803 39.4228C66.1646 39.4228 66.1521 39.4427 66.1521 39.4671C66.1521 39.4915 66.1207 39.5339 66.0824 39.5613C66.0441 39.5888 66.0128 39.6295 66.0128 39.6519C66.0128 39.6742 65.9891 39.7014 65.9606 39.7124C65.9317 39.7233 65.9083 39.7549 65.9083 39.7825C65.9083 39.8101 65.8965 39.8378 65.8822 39.8442C65.8286 39.8678 65.2118 40.641 65.2118 40.6843C65.2118 40.6953 65.1843 40.7343 65.1509 40.771C65.1175 40.8075 65.0852 40.8451 65.0541 40.8836C64.8347 41.1648 64.6518 41.409 64.5529 41.5521C64.4126 41.7553 64.1932 41.9769 64.1775 41.931C64.1716 41.9134 64.0407 41.7277 63.8867 41.5181C63.5653 41.0804 63.3369 40.7647 63.2617 40.6543C63.2327 40.612 63.145 40.5008 63.0666 40.4071C62.9883 40.3134 62.8476 40.1198 62.7543 39.9769C62.6609 39.8341 62.5672 39.7016 62.546 39.6826C62.5248 39.6635 62.3837 39.4765 62.2329 39.2669C62.0821 39.0574 61.8784 38.7847 61.7799 38.6609C61.6817 38.537 61.5483 38.3578 61.4839 38.2626C61.4198 38.1673 61.3466 38.0688 61.3216 38.0435C61.2363 37.9571 61.0642 37.6911 61.0921 37.6887C61.1074 37.6873 61.0886 37.6729 61.0503 37.6565C61.012 37.6401 60.1334 37.6256 59.098 37.6243C57.6027 37.6223 57.2025 37.6311 57.1534 37.667C57.098 37.7071 57.096 37.7294 57.1329 37.8658C57.182 38.0476 57.2175 38.1002 57.6587 38.6435C57.8443 38.8721 58.0644 39.1474 58.1477 39.2553C58.2309 39.3632 58.4245 39.6069 58.5777 39.797C58.731 39.9871 58.8877 40.186 58.926 40.239C58.9643 40.292 59.02 40.3599 59.0496 40.3899C59.1558 40.4968 59.4609 40.8639 59.6448 41.1064C59.7472 41.2418 59.9617 41.5067 60.1212 41.6952C60.4673 42.1043 60.4712 42.1088 60.5788 42.2628C60.6254 42.3294 60.6724 42.3918 60.6832 42.4013C60.6937 42.4108 60.7487 42.481 60.8055 42.5571C60.8619 42.6333 60.9246 42.713 60.9444 42.7342C60.9643 42.7553 61.0266 42.8307 61.0827 42.9017C61.1387 42.9726 61.231 43.08 61.2878 43.1403C61.3449 43.2005 61.4553 43.3355 61.534 43.4403C61.6124 43.5451 61.6848 43.6386 61.6949 43.6481C61.705 43.6576 61.7952 43.7642 61.8951 43.8848C62.0515 44.0731 62.0713 44.1127 62.0341 44.1637C61.8255 44.4488 61.5626 44.7772 61.4309 44.9167C61.3435 45.0095 61.2457 45.1244 61.2133 45.172C61.1812 45.2196 61.129 45.2897 61.0973 45.3278C60.8897 45.579 60.7195 45.7968 60.7195 45.8106C60.7195 45.8196 60.6839 45.8632 60.6411 45.9077C60.5533 45.9979 60.3089 46.2909 60.2378 46.3905C60.2124 46.4261 60.1382 46.5133 60.0728 46.5843C60.0073 46.6551 59.9533 46.726 59.9533 46.7416C59.9533 46.7573 59.9338 46.7896 59.9098 46.8135C59.8858 46.8373 59.8192 46.9168 59.7618 46.9902C59.6131 47.1798 59.4578 47.3626 59.394 47.4232C59.3641 47.4518 59.2565 47.5842 59.1555 47.7176C58.9584 47.9772 58.7613 48.2168 58.6457 48.3365C58.6063 48.3772 58.5638 48.4377 58.5509 48.471C58.538 48.5042 58.5116 48.5315 58.4917 48.5315C58.4719 48.5315 58.4559 48.5548 58.4559 48.5834C58.4559 48.612 58.4433 48.6354 58.4283 48.6354C58.4134 48.6354 58.373 48.6825 58.3388 48.7402C58.3047 48.7978 58.2424 48.8818 58.2009 48.9269C58.1592 48.972 58.0791 49.0665 58.023 49.1369C57.9669 49.2072 57.8806 49.3099 57.8315 49.365C57.782 49.42 57.6793 49.5532 57.6027 49.6608C57.526 49.7684 57.4278 49.8942 57.385 49.9402C57.3418 49.9862 57.3066 50.0387 57.3066 50.0569C57.3066 50.0751 57.2941 50.09 57.2791 50.09C57.2279 50.09 57.1325 50.2911 57.1325 50.3995C57.1325 50.4795 57.1531 50.5159 57.2109 50.539C57.2544 50.5563 58.1181 50.5673 59.1638 50.5638C60.9893 50.5577 61.0398 50.5557 61.0889 50.4888C61.1168 50.451 61.2119 50.3392 61.3007 50.2403C61.3891 50.1413 61.51 49.9915 61.5692 49.9073C61.6698 49.7646 61.9289 49.4192 62.0285 49.2957C62.0525 49.2658 62.1487 49.1479 62.2427 49.0336C62.3364 48.9194 62.5206 48.6778 62.6519 48.4968C62.7832 48.3159 62.9106 48.1522 62.935 48.1332C62.974 48.1028 63.0607 47.9963 63.2453 47.7522C63.5044 47.41 63.6973 47.1605 63.714 47.1461C63.7252 47.1366 63.8216 47.0041 63.9285 46.8517C64.1441 46.5442 64.345 46.3149 64.3987 46.3149C64.4182 46.3149 64.4861 46.3949 64.5498 46.4926C64.6135 46.5904 64.7581 46.7863 64.8712 46.928C64.9844 47.0696 65.1801 47.3364 65.3062 47.5208C65.5385 47.8604 65.6478 48.0077 65.7614 48.1332C65.8536 48.2358 66.1173 48.5946 66.1173 48.618C66.1173 48.6292 66.1838 48.7273 66.2649 48.836C66.3461 48.9447 66.445 49.0808 66.485 49.1384C66.5247 49.196 66.5825 49.274 66.6135 49.3116C66.7559 49.4838 66.9081 49.6808 66.9879 49.7956C67.0356 49.8645 67.0913 49.9395 67.1115 49.9622C67.1899 50.051 67.3709 50.3294 67.3709 50.3615C67.3709 50.3802 67.419 50.4359 67.4779 50.4852L67.5851 50.5748L69.4193 50.5744C70.4282 50.5741 71.2877 50.5649 71.3288 50.5539C71.3866 50.5384 71.4068 50.5018 71.4172 50.3937C71.4252 50.3088 71.413 50.2359 71.3859 50.2089C71.3611 50.1843 71.341 50.156 71.341 50.1461C71.341 50.1361 71.2894 50.0765 71.2267 50.0137C71.164 49.9509 71.0899 49.8541 71.0613 49.7986C71.0331 49.7431 70.9077 49.5794 70.7827 49.435C70.6577 49.2904 70.509 49.1098 70.4519 49.0336C70.2328 48.74 69.8275 48.2366 69.8014 48.2255C69.786 48.2192 69.7738 48.1943 69.7738 48.1703C69.7738 48.1463 69.7408 48.0969 69.7004 48.0606C69.66 48.0243 69.5374 47.8777 69.428 47.7349C69.1118 47.3224 68.9206 47.0786 68.6953 46.7998C68.5572 46.6282 68.4212 46.455 68.2872 46.2803C68.1785 46.1374 68.0796 46.0127 68.0678 46.0032C68.041 45.9814 67.644 45.4623 67.5973 45.3875C67.5782 45.3569 67.5287 45.2968 67.4876 45.2539C67.3911 45.1534 67.0924 44.7673 67.0924 44.7433C67.0924 44.7332 67.0568 44.6872 67.014 44.6411C66.7354 44.3429 66.5352 44.0571 66.5352 43.9573C66.5352 43.9181 66.5721 43.8723 66.6222 43.8496C66.6699 43.8279 66.7093 43.797 66.7093 43.7809C66.7093 43.7648 66.7479 43.718 66.7953 43.6771C66.8427 43.6362 66.9245 43.5388 66.9774 43.4609C67.1185 43.2524 67.2919 43.0341 67.5029 42.7996C67.7258 42.552 67.7422 42.5326 67.8958 42.332C67.9612 42.2463 68.0253 42.1684 68.0378 42.1589C68.05 42.1493 68.1298 42.048 68.2144 41.9337C68.299 41.8195 68.43 41.6539 68.5052 41.566C68.657 41.3885 68.6762 41.365 68.9119 41.0679C69.0028 40.9536 69.0982 40.8367 69.124 40.8081C69.1494 40.7796 69.255 40.6471 69.358 40.5138C69.4611 40.3804 69.6293 40.17 69.7321 40.0462C69.8344 39.9224 69.9431 39.7899 69.9734 39.7518C70.0033 39.7137 70.0925 39.61 70.1708 39.5213C70.2492 39.4327 70.3293 39.3392 70.3485 39.3135C70.3676 39.2879 70.4296 39.2046 70.4864 39.1284C70.6023 38.9731 70.8795 38.6407 71.1456 38.3387C71.3302 38.1292 71.4402 37.9131 71.4433 37.7533C71.4451 37.674 71.428 37.6567 71.3322 37.6405C71.1693 37.6131 67.7425 37.6003 67.6137 37.6266ZM75.0341 37.6879C74.9888 37.772 74.9986 50.4836 75.0438 50.5287C75.0818 50.5664 78.1864 50.5664 78.2244 50.5286C78.2588 50.4946 78.2533 37.6967 78.2192 37.6625C78.2063 37.6497 77.4927 37.6345 76.6336 37.6288C75.1013 37.6187 75.0707 37.6199 75.0341 37.6879ZM138.939 37.6532C138.859 37.667 138.814 37.6965 138.803 37.7431C138.794 37.7812 138.785 40.6522 138.783 44.1231C138.779 49.9434 138.783 50.4383 138.836 50.491C138.887 50.5413 139.049 50.5502 140.212 50.5664C140.937 50.5765 141.636 50.5735 141.765 50.5597L142 50.5347V37.666L141.805 37.6432C141.568 37.6155 139.106 37.6241 138.939 37.6532ZM105.72 40.1178C106.722 40.221 107.381 40.4814 107.806 40.9417C108.316 41.495 108.456 42.0049 108.499 43.4749C108.554 45.3368 108.439 46.3831 108.12 46.9037C107.917 47.2337 107.424 47.6518 107.019 47.8369C106.442 48.1005 106.01 48.1678 104.894 48.1678C104.017 48.1678 103.772 48.1409 103.193 47.9817C102.74 47.8568 102.324 47.6219 102.022 47.3198C101.839 47.1368 101.602 46.7027 101.513 46.3842C101.356 45.8304 101.255 45.0207 101.256 44.3369C101.259 42.8293 101.39 41.9978 101.721 41.3911C101.871 41.1163 102.228 40.7021 102.392 40.6146C102.58 40.5132 102.859 40.3734 102.962 40.3278C103.074 40.278 103.621 40.1503 103.867 40.1164C104.162 40.0756 105.32 40.0765 105.72 40.1178ZM90.3203 44.7606C90.5404 44.7757 90.7598 44.7965 90.8079 44.8069C90.8556 44.8173 91.028 44.8352 91.191 44.8467C91.3536 44.8582 91.5183 44.8726 91.5566 44.8787C91.5949 44.8848 91.6381 44.8909 91.6531 44.8924C91.6865 44.8956 91.6538 45.8664 91.6036 46.3445C91.5646 46.7202 91.4469 47.1485 91.3327 47.3326C91.1836 47.5721 90.7574 47.8691 90.4865 47.9218C90.4429 47.9303 90.3367 47.963 90.2507 47.9945C89.9575 48.1018 89.292 48.1457 88.1264 48.1346C87.5229 48.1288 86.9667 48.1139 86.8901 48.1013C86.4513 48.0294 86.0171 47.8939 85.7743 47.7529C85.6054 47.6548 85.3345 47.3214 85.2189 47.0694C85.0681 46.7402 85.0291 46.0266 85.1496 45.7931C85.2018 45.6917 85.4062 45.4234 85.5347 45.2877C85.6566 45.1592 86.211 44.9448 86.5534 44.894C86.8536 44.8494 87.6068 44.7618 87.8304 44.7454C88.1487 44.722 89.9136 44.7328 90.3203 44.7606Z" fill="black"/>
<path fill-rule="evenodd" clip-rule="evenodd" d="M87.9519 37.2511C87.9425 37.2595 87.7109 37.2758 87.4372 37.2871C87.1635 37.2985 86.9284 37.3142 86.9148 37.322C86.9013 37.3297 86.7501 37.3466 86.5788 37.3596C86.4078 37.3726 86.257 37.3898 86.2438 37.3979C86.2309 37.406 86.1121 37.4221 85.9805 37.4339C85.308 37.4936 84.2793 37.7253 83.6863 37.9506C83.5522 38.0015 83.4143 38.0516 83.3802 38.062C83.2374 38.1052 83.2245 38.2093 83.2008 39.5094C83.1754 40.9034 83.1702 40.8699 83.4136 40.8995C83.4937 40.9093 83.6441 40.8866 83.7907 40.8426C84.3305 40.6807 84.5471 40.6212 85.1151 40.4786C85.8384 40.2971 86.638 40.1267 87.0817 40.0596C87.8436 39.9443 89.5768 39.9663 89.9317 40.0958C90.0017 40.1214 90.1751 40.1684 90.3172 40.2004C90.6139 40.2672 90.8493 40.3778 91.1077 40.5716C91.2965 40.7134 91.4124 40.9232 91.5068 41.2929C91.5681 41.5339 91.5726 41.5646 91.597 41.9306L91.62 42.2738L91.3097 42.2485C90.0797 42.148 88.6815 42.1075 88.0738 42.1548L87.0991 42.2308C86.1156 42.3075 84.8968 42.5602 84.288 42.8137C83.4878 43.1469 82.7174 43.7591 82.497 44.2369C82.0439 45.2191 81.9489 46.4758 82.2383 47.6483C82.349 48.0961 82.443 48.3492 82.5966 48.6109C82.6499 48.7022 82.6938 48.7919 82.6938 48.8102C82.6938 48.9101 83.51 49.6274 83.913 49.8816C84.0181 49.9479 84.1094 50.0141 84.1156 50.0287C84.1219 50.0434 84.148 50.0553 84.1735 50.0553C84.1989 50.0553 84.3267 50.1032 84.4576 50.1618C84.5889 50.2203 84.8215 50.3047 84.9748 50.3492C85.128 50.3937 85.3237 50.4537 85.4101 50.4824C85.4961 50.5112 85.8252 50.5787 86.1414 50.6324C86.7143 50.7299 86.7202 50.7301 88.3179 50.7304C89.9317 50.7307 90.3583 50.7076 90.9298 50.5893C91.7262 50.4243 92.0905 50.3257 92.3924 50.1931C93.0252 49.9154 93.1857 49.8205 93.5037 49.5364C93.706 49.3558 93.9835 49.0714 94.0734 48.9524C94.2402 48.7316 94.6017 47.9867 94.6727 47.7176C94.7128 47.5652 94.7598 47.4147 94.7772 47.3831C94.8489 47.2539 94.9719 46.3817 95.0084 45.7434C95.0359 45.2645 95.0331 43.4495 95.0039 42.9381C94.9691 42.3206 94.8886 41.7089 94.7942 41.345C94.6215 40.678 94.5244 40.406 94.3001 39.9609C93.7352 38.8402 92.5641 37.917 91.2084 37.5238C90.9841 37.4587 90.5307 37.3738 90.1462 37.3249C90.0598 37.3139 89.9502 37.2976 89.9024 37.2887C89.7844 37.2667 87.9732 37.2318 87.9519 37.2511ZM103.676 37.453C103.168 37.4786 103.045 37.4927 102.474 37.5902C101.952 37.6793 101.624 37.7696 101.257 37.9242C100.998 38.0337 100.884 38.094 100.539 38.3037C100.502 38.3264 100.375 38.402 100.258 38.4719C100.007 38.6206 99.5419 39.0872 99.2375 39.4947C98.9969 39.817 98.5738 40.6439 98.5738 40.7922C98.5738 40.8219 98.5515 40.8891 98.5243 40.9414C98.4233 41.1351 98.2259 42.0514 98.1538 42.6591C98.0887 43.2077 98.0817 43.4131 98.0956 44.4081C98.1162 45.8777 98.1855 46.3208 98.5818 47.5206C98.7301 47.9709 98.9224 48.3158 99.2932 48.7993C99.5433 49.125 100.046 49.6186 100.245 49.7337C100.331 49.7835 100.41 49.8334 100.419 49.8445C100.452 49.8825 100.575 49.9504 100.89 50.1027C101.226 50.2661 101.42 50.3353 101.819 50.4349C101.959 50.4698 102.16 50.522 102.265 50.5509C102.853 50.712 103.736 50.7742 105.295 50.764C106.324 50.7573 106.559 50.7458 106.932 50.6841C107.694 50.5581 108.499 50.323 108.951 50.0949C109.293 49.9225 109.456 49.831 109.491 49.7912C109.51 49.7698 109.659 49.6443 109.822 49.5124C110.191 49.2137 110.344 49.0688 110.344 49.0198C110.344 48.9988 110.358 48.9817 110.374 48.9817C110.404 48.9817 110.742 48.5011 110.744 48.4563C110.744 48.4436 110.776 48.3968 110.815 48.3524C110.854 48.308 110.917 48.2172 110.956 48.1505C111.045 47.9995 111.285 47.4134 111.285 47.3474C111.285 47.3205 111.299 47.2837 111.316 47.2656C111.407 47.1691 111.627 46.0015 111.706 45.1978C111.744 44.8067 111.733 43.013 111.692 42.8169C111.682 42.7693 111.664 42.629 111.651 42.5052C111.561 41.5809 111.277 40.6016 110.947 40.0729C110.903 40.0018 110.867 39.9327 110.867 39.9194C110.867 39.906 110.784 39.785 110.682 39.6503C110.581 39.5157 110.451 39.3431 110.395 39.2669C110.339 39.1908 110.201 39.0427 110.088 38.9379C109.889 38.7526 109.463 38.4184 109.426 38.4184C109.416 38.4184 109.337 38.3709 109.25 38.3129C109.01 38.1515 108.482 37.9136 108.071 37.7811C107.708 37.6638 107.114 37.5548 106.427 37.4794C106.026 37.4354 104.345 37.4193 103.676 37.453ZM119.603 37.4646C119.596 37.4714 119.465 37.4868 119.312 37.4989C119.159 37.5109 118.931 37.5353 118.807 37.5531C118.682 37.5708 118.518 37.594 118.442 37.6046C118.12 37.6496 117.476 37.8492 117.187 37.9936C116.878 38.1486 116.298 38.5666 116.122 38.7606C115.946 38.9551 115.574 39.6569 115.504 39.925C115.431 40.2087 115.354 40.692 115.325 41.0475C115.289 41.5137 115.297 50.4903 115.335 50.5277C115.37 50.5628 118.443 50.5668 118.478 50.5319C118.493 50.5178 118.516 48.4917 118.53 46.0295C118.544 43.5673 118.566 41.4982 118.578 41.4316C118.629 41.1617 118.748 40.8242 118.831 40.7162C118.945 40.5671 119.202 40.3848 119.399 40.3131C119.801 40.167 120.248 40.1216 121.123 40.1382C122.185 40.1582 122.468 40.2175 122.8 40.4902C123.116 40.7494 123.21 40.9583 123.253 41.5008C123.271 41.7199 123.289 43.7927 123.293 46.1071C123.298 48.4215 123.31 50.3643 123.321 50.4244C123.339 50.5256 123.352 50.535 123.503 50.5496C123.773 50.576 126.461 50.5595 126.489 50.5313C126.503 50.5168 126.52 48.5141 126.525 46.0808C126.531 43.6476 126.543 41.5698 126.553 41.4638C126.562 41.3576 126.596 41.1784 126.627 41.0655C126.658 40.9525 126.692 40.8255 126.702 40.7833C126.731 40.656 127.038 40.3796 127.223 40.3136C127.778 40.1156 129.204 40.067 130.05 40.2174C130.553 40.3068 130.972 40.5942 131.075 40.9211C131.245 41.4587 131.25 41.5821 131.272 46.1822C131.282 48.5569 131.304 50.5124 131.319 50.5277C131.365 50.5727 134.269 50.5879 134.384 50.5437L134.481 50.506L134.466 45.8735C134.457 43.3257 134.441 41.1553 134.429 41.0506C134.33 40.1663 134.231 39.7962 133.973 39.3358C133.745 38.9303 133.414 38.5843 132.994 38.3138C131.929 37.6275 130.998 37.4315 128.941 37.4604C128.356 37.4686 127.824 37.4842 127.757 37.4951C127.69 37.5059 127.557 37.5228 127.461 37.5327C127.045 37.5756 126.524 37.6841 126.067 37.823C126.009 37.8407 125.797 37.937 125.597 38.0371C125.258 38.2058 125.213 38.2193 124.971 38.2228C124.726 38.2263 124.687 38.2158 124.361 38.0593C123.823 37.8007 123.447 37.6888 122.759 37.5826C121.964 37.4598 121.789 37.4485 120.717 37.4503C120.111 37.4514 119.61 37.4579 119.603 37.4646ZM67.6137 37.6266C67.4817 37.6536 67.3758 37.7487 67.2842 37.923C67.2459 37.9955 67.2055 38.0626 67.194 38.0721C67.1825 38.0816 67.1195 38.1673 67.0537 38.2626C66.9879 38.3578 66.9029 38.473 66.8653 38.5186C66.8273 38.5642 66.7337 38.6766 66.657 38.7684C66.4554 39.0098 66.3833 39.11 66.291 39.2756C66.2458 39.3565 66.196 39.4228 66.1803 39.4228C66.1646 39.4228 66.1521 39.4427 66.1521 39.4671C66.1521 39.4915 66.1207 39.5339 66.0824 39.5613C66.0441 39.5888 66.0128 39.6295 66.0128 39.6519C66.0128 39.6742 65.9891 39.7014 65.9606 39.7124C65.9317 39.7233 65.9083 39.7549 65.9083 39.7825C65.9083 39.8101 65.8965 39.8378 65.8822 39.8442C65.8286 39.8678 65.2118 40.641 65.2118 40.6843C65.2118 40.6953 65.1843 40.7343 65.1509 40.771C65.1175 40.8075 65.0852 40.8451 65.0541 40.8836C64.8347 41.1648 64.6518 41.409 64.5529 41.5521C64.4126 41.7553 64.1932 41.9769 64.1775 41.931C64.1716 41.9134 64.0407 41.7277 63.8867 41.5181C63.5653 41.0804 63.3369 40.7647 63.2617 40.6543C63.2327 40.612 63.145 40.5008 63.0666 40.4071C62.9883 40.3134 62.8476 40.1198 62.7543 39.9769C62.6609 39.8341 62.5672 39.7016 62.546 39.6826C62.5248 39.6635 62.3837 39.4765 62.2329 39.2669C62.0821 39.0574 61.8784 38.7847 61.7799 38.6609C61.6817 38.537 61.5483 38.3578 61.4839 38.2626C61.4198 38.1673 61.3466 38.0688 61.3216 38.0435C61.2363 37.9571 61.0642 37.6911 61.0921 37.6887C61.1074 37.6873 61.0886 37.6729 61.0503 37.6565C61.012 37.6401 60.1334 37.6256 59.098 37.6243C57.6027 37.6223 57.2025 37.6311 57.1534 37.667C57.098 37.7071 57.096 37.7294 57.1329 37.8658C57.182 38.0476 57.2175 38.1002 57.6587 38.6435C57.8443 38.8721 58.0644 39.1474 58.1477 39.2553C58.2309 39.3632 58.4245 39.6069 58.5777 39.797C58.731 39.9871 58.8877 40.186 58.926 40.239C58.9643 40.292 59.02 40.3599 59.0496 40.3899C59.1558 40.4968 59.4609 40.8639 59.6448 41.1064C59.7472 41.2418 59.9617 41.5067 60.1212 41.6952C60.4673 42.1043 60.4712 42.1088 60.5788 42.2628C60.6254 42.3294 60.6724 42.3918 60.6832 42.4013C60.6937 42.4108 60.7487 42.481 60.8055 42.5571C60.8619 42.6333 60.9246 42.713 60.9444 42.7342C60.9643 42.7553 61.0266 42.8307 61.0827 42.9017C61.1387 42.9726 61.231 43.08 61.2878 43.1403C61.3449 43.2005 61.4553 43.3355 61.534 43.4403C61.6124 43.5451 61.6848 43.6386 61.6949 43.6481C61.705 43.6576 61.7952 43.7642 61.8951 43.8848C62.0515 44.0731 62.0713 44.1127 62.0341 44.1637C61.8255 44.4488 61.5626 44.7772 61.4309 44.9167C61.3435 45.0095 61.2457 45.1244 61.2133 45.172C61.1812 45.2196 61.129 45.2897 61.0973 45.3278C60.8897 45.579 60.7195 45.7968 60.7195 45.8106C60.7195 45.8196 60.6839 45.8632 60.6411 45.9077C60.5533 45.9979 60.3089 46.2909 60.2378 46.3905C60.2124 46.4261 60.1382 46.5133 60.0728 46.5843C60.0073 46.6551 59.9533 46.726 59.9533 46.7416C59.9533 46.7573 59.9338 46.7896 59.9098 46.8135C59.8858 46.8373 59.8192 46.9168 59.7618 46.9902C59.6131 47.1798 59.4578 47.3626 59.394 47.4232C59.3641 47.4518 59.2565 47.5842 59.1555 47.7176C58.9584 47.9772 58.7613 48.2168 58.6457 48.3365C58.6063 48.3772 58.5638 48.4377 58.5509 48.471C58.538 48.5042 58.5116 48.5315 58.4917 48.5315C58.4719 48.5315 58.4559 48.5548 58.4559 48.5834C58.4559 48.612 58.4433 48.6354 58.4283 48.6354C58.4134 48.6354 58.373 48.6825 58.3388 48.7402C58.3047 48.7978 58.2424 48.8818 58.2009 48.9269C58.1592 48.972 58.0791 49.0665 58.023 49.1369C57.9669 49.2072 57.8806 49.3099 57.8315 49.365C57.782 49.42 57.6793 49.5532 57.6027 49.6608C57.526 49.7684 57.4278 49.8942 57.385 49.9402C57.3418 49.9862 57.3066 50.0387 57.3066 50.0569C57.3066 50.0751 57.2941 50.09 57.2791 50.09C57.2279 50.09 57.1325 50.2911 57.1325 50.3995C57.1325 50.4795 57.1531 50.5159 57.2109 50.539C57.2544 50.5563 58.1181 50.5673 59.1638 50.5638C60.9893 50.5577 61.0398 50.5557 61.0889 50.4888C61.1168 50.451 61.2119 50.3392 61.3007 50.2403C61.3891 50.1413 61.51 49.9915 61.5692 49.9073C61.6698 49.7646 61.9289 49.4192 62.0285 49.2957C62.0525 49.2658 62.1487 49.1479 62.2427 49.0336C62.3364 48.9194 62.5206 48.6778 62.6519 48.4968C62.7832 48.3159 62.9106 48.1522 62.935 48.1332C62.974 48.1028 63.0607 47.9963 63.2453 47.7522C63.5044 47.41 63.6973 47.1605 63.714 47.1461C63.7252 47.1366 63.8216 47.0041 63.9285 46.8517C64.1441 46.5442 64.345 46.3149 64.3987 46.3149C64.4182 46.3149 64.4861 46.3949 64.5498 46.4926C64.6135 46.5904 64.7581 46.7863 64.8712 46.928C64.9844 47.0696 65.1801 47.3364 65.3062 47.5208C65.5385 47.8604 65.6478 48.0077 65.7614 48.1332C65.8536 48.2358 66.1173 48.5946 66.1173 48.618C66.1173 48.6292 66.1838 48.7273 66.2649 48.836C66.3461 48.9447 66.445 49.0808 66.485 49.1384C66.5247 49.196 66.5825 49.274 66.6135 49.3116C66.7559 49.4838 66.9081 49.6808 66.9879 49.7956C67.0356 49.8645 67.0913 49.9395 67.1115 49.9622C67.1899 50.051 67.3709 50.3294 67.3709 50.3615C67.3709 50.3802 67.419 50.4359 67.4779 50.4852L67.5851 50.5748L69.4193 50.5744C70.4282 50.5741 71.2877 50.5649 71.3288 50.5539C71.3866 50.5384 71.4068 50.5018 71.4172 50.3937C71.4252 50.3088 71.413 50.2359 71.3859 50.2089C71.3611 50.1843 71.341 50.156 71.341 50.1461C71.341 50.1361 71.2894 50.0765 71.2267 50.0137C71.164 49.9509 71.0899 49.8541 71.0613 49.7986C71.0331 49.7431 70.9077 49.5794 70.7827 49.435C70.6577 49.2904 70.509 49.1098 70.4519 49.0336C70.2328 48.74 69.8275 48.2366 69.8014 48.2255C69.786 48.2192 69.7738 48.1943 69.7738 48.1703C69.7738 48.1463 69.7408 48.0969 69.7004 48.0606C69.66 48.0243 69.5374 47.8777 69.428 47.7349C69.1118 47.3224 68.9206 47.0786 68.6953 46.7998C68.5572 46.6282 68.4212 46.455 68.2872 46.2803C68.1785 46.1374 68.0796 46.0127 68.0678 46.0032C68.041 45.9814 67.644 45.4623 67.5973 45.3875C67.5782 45.3569 67.5287 45.2968 67.4876 45.2539C67.3911 45.1534 67.0924 44.7673 67.0924 44.7433C67.0924 44.7332 67.0568 44.6872 67.014 44.6411C66.7354 44.3429 66.5352 44.0571 66.5352 43.9573C66.5352 43.9181 66.5721 43.8723 66.6222 43.8496C66.6699 43.8279 66.7093 43.797 66.7093 43.7809C66.7093 43.7648 66.7479 43.718 66.7953 43.6771C66.8427 43.6362 66.9245 43.5388 66.9774 43.4609C67.1185 43.2524 67.2919 43.0341 67.5029 42.7996C67.7258 42.552 67.7422 42.5326 67.8958 42.332C67.9612 42.2463 68.0253 42.1684 68.0378 42.1589C68.05 42.1493 68.1298 42.048 68.2144 41.9337C68.299 41.8195 68.43 41.6539 68.5052 41.566C68.657 41.3885 68.6762 41.365 68.9119 41.0679C69.0028 40.9536 69.0982 40.8367 69.124 40.8081C69.1494 40.7796 69.255 40.6471 69.358 40.5138C69.4611 40.3804 69.6293 40.17 69.7321 40.0462C69.8344 39.9224 69.9431 39.7899 69.9734 39.7518C70.0033 39.7137 70.0925 39.61 70.1708 39.5213C70.2492 39.4327 70.3293 39.3392 70.3485 39.3135C70.3676 39.2879 70.4296 39.2046 70.4864 39.1284C70.6023 38.9731 70.8795 38.6407 71.1456 38.3387C71.3302 38.1292 71.4402 37.9131 71.4433 37.7533C71.4451 37.674 71.428 37.6567 71.3322 37.6405C71.1693 37.6131 67.7425 37.6003 67.6137 37.6266ZM75.0341 37.6879C74.9888 37.772 74.9986 50.4836 75.0438 50.5287C75.0818 50.5664 78.1864 50.5664 78.2244 50.5286C78.2588 50.4946 78.2533 37.6967 78.2192 37.6625C78.2063 37.6497 77.4927 37.6345 76.6336 37.6288C75.1013 37.6187 75.0707 37.6199 75.0341 37.6879ZM138.939 37.6532C138.859 37.667 138.814 37.6965 138.803 37.7431C138.794 37.7812 138.785 40.6522 138.783 44.1231C138.779 49.9434 138.783 50.4383 138.836 50.491C138.887 50.5413 139.049 50.5502 140.212 50.5664C140.937 50.5765 141.636 50.5735 141.765 50.5597L142 50.5347V37.666L141.805 37.6432C141.568 37.6155 139.106 37.6241 138.939 37.6532ZM105.72 40.1178C106.722 40.221 107.381 40.4814 107.806 40.9417C108.316 41.495 108.456 42.0049 108.499 43.4749C108.554 45.3368 108.439 46.3831 108.12 46.9037C107.917 47.2337 107.424 47.6518 107.019 47.8369C106.442 48.1005 106.01 48.1678 104.894 48.1678C104.017 48.1678 103.772 48.1409 103.193 47.9817C102.74 47.8568 102.324 47.6219 102.022 47.3198C101.839 47.1368 101.602 46.7027 101.513 46.3842C101.356 45.8304 101.255 45.0207 101.256 44.3369C101.259 42.8293 101.39 41.9978 101.721 41.3911C101.871 41.1163 102.228 40.7021 102.392 40.6146C102.58 40.5132 102.859 40.3734 102.962 40.3278C103.074 40.278 103.621 40.1503 103.867 40.1164C104.162 40.0756 105.32 40.0765 105.72 40.1178ZM90.3203 44.7606C90.5404 44.7757 90.7598 44.7965 90.8079 44.8069C90.8556 44.8173 91.028 44.8352 91.191 44.8467C91.3536 44.8582 91.5183 44.8726 91.5566 44.8787C91.5949 44.8848 91.6381 44.8909 91.6531 44.8924C91.6865 44.8956 91.6538 45.8664 91.6036 46.3445C91.5646 46.7202 91.4469 47.1485 91.3327 47.3326C91.1836 47.5721 90.7574 47.8691 90.4865 47.9218C90.4429 47.9303 90.3367 47.963 90.2507 47.9945C89.9575 48.1018 89.292 48.1457 88.1264 48.1346C87.5229 48.1288 86.9667 48.1139 86.8901 48.1013C86.4513 48.0294 86.0171 47.8939 85.7743 47.7529C85.6054 47.6548 85.3345 47.3214 85.2189 47.0694C85.0681 46.7402 85.0291 46.0266 85.1496 45.7931C85.2018 45.6917 85.4062 45.4234 85.5347 45.2877C85.6566 45.1592 86.211 44.9448 86.5534 44.894C86.8536 44.8494 87.6068 44.7618 87.8304 44.7454C88.1487 44.722 89.9136 44.7328 90.3203 44.7606Z" fill="#243752"/>
<path fill-rule="evenodd" clip-rule="evenodd" d="M30.3156 26.0312C30.3071 26.0386 29.9476 26.0545 29.5166 26.0665C26.7611 26.1434 23.8763 26.5881 22.0642 27.2153C20.2719 27.8356 18.8644 28.7029 17.6752 29.9196C16.9373 30.6746 16.395 31.4307 15.9072 32.3845C15.1205 33.9225 14.723 35.4623 14.3539 38.4011C14.0898 40.5039 14.0001 42.0256 14.0058 44.3062C14.0126 47.0386 14.2392 49.5404 14.7195 52.1853C15.0846 54.1954 15.7891 55.8007 16.9558 57.2802C17.3273 57.7514 17.3603 57.7888 17.7737 58.2077C19.2513 59.7052 21.0163 60.7053 23.0915 61.2206C24.1473 61.4828 25.7684 61.7197 27.253 61.8288C28.6802 61.9337 30.6379 61.9867 33.0861 61.9867C38.0106 61.9867 41.1036 61.4811 43.5683 60.273C44.6545 59.7406 45.5046 59.1332 46.3754 58.2672C47.6363 57.0131 48.4207 55.7279 49.0195 53.9343C49.6875 51.935 49.9723 50.1709 50.049 47.5617C50.0618 47.1331 50.0768 46.774 50.0827 46.7636C50.1033 46.7266 50.1503 44.3413 50.1503 43.3191C50.1503 41.0191 50.0455 39.3134 49.801 37.6313C49.4855 35.4598 49.0815 34.014 48.41 32.6519C47.8336 31.4827 47.2067 30.6203 46.292 29.738C45.4681 28.9432 44.5693 28.3227 43.4639 27.7854C41.5832 26.8711 39.5404 26.3817 36.9691 26.2292C35.8821 26.1648 35.779 26.1595 34.9144 26.1244C34.4452 26.1054 33.8967 26.0814 33.6956 26.0711C33.2322 26.0474 30.3362 26.0133 30.3156 26.0312ZM33.5613 37.3287C34.4597 37.4764 35.2328 37.8906 35.8811 38.5717C36.3179 39.0306 36.6014 39.5 36.7928 40.0808C36.9728 40.6275 36.9691 40.4988 36.9691 46.1116C36.9691 51.2906 36.9685 51.3374 36.8994 51.4061C36.8318 51.4733 36.7834 51.4753 35.2491 51.4753C33.7949 51.4753 33.6626 51.4705 33.5951 51.4147L33.5217 51.3541L33.5117 46.7132C33.5024 42.3553 33.498 42.0596 33.439 41.8645C33.2076 41.0998 32.6027 40.5055 31.8499 40.3029C31.6415 40.2468 31.3464 40.2416 28.1411 40.2375C26.2257 40.2351 24.6177 40.2463 24.5676 40.2626C24.5176 40.2788 24.4588 40.331 24.437 40.3786C24.408 40.442 24.3974 41.9118 24.3974 45.9009C24.3974 51.2906 24.3968 51.3374 24.3278 51.4061C24.2602 51.4733 24.2117 51.4753 22.6814 51.4753C21.3106 51.4753 21.0945 51.4683 21.0272 51.4214L20.9498 51.3675V44.3908C20.9498 37.4538 20.9502 37.4137 21.0196 37.3446C21.089 37.2756 21.1289 37.2751 27.1749 37.2772C32.2773 37.2789 33.3089 37.2873 33.5613 37.3287ZM43.1172 37.3605L43.2027 37.4455V51.2928L43.1305 51.3841L43.0583 51.4753H39.8646L39.7924 51.3841L39.7202 51.2928V37.4455L39.8057 37.3605L39.8912 37.2755H43.0317L43.1172 37.3605ZM30.7066 42.805C30.7677 42.8599 30.7703 43.0385 30.7703 47.0995C30.7703 51.2906 30.7695 51.3376 30.7007 51.4061C30.633 51.4734 30.5846 51.4753 28.9594 51.4753C27.3343 51.4753 27.2859 51.4734 27.2182 51.4061C27.1493 51.3376 27.1486 51.2906 27.1486 47.1115C27.1486 42.9323 27.1493 42.8854 27.2182 42.8169C27.2859 42.7495 27.3343 42.7476 28.9654 42.7476C30.4775 42.7476 30.6492 42.7533 30.7066 42.805Z" fill="black"/>
<path fill-rule="evenodd" clip-rule="evenodd" d="M30.3156 26.0312C30.3071 26.0386 29.9476 26.0545 29.5166 26.0665C26.7611 26.1434 23.8763 26.5881 22.0642 27.2153C20.2719 27.8356 18.8644 28.7029 17.6752 29.9196C16.9373 30.6746 16.395 31.4307 15.9072 32.3845C15.1205 33.9225 14.723 35.4623 14.3539 38.4011C14.0898 40.5039 14.0001 42.0256 14.0058 44.3062C14.0126 47.0386 14.2392 49.5404 14.7195 52.1853C15.0846 54.1954 15.7891 55.8007 16.9558 57.2802C17.3273 57.7514 17.3603 57.7888 17.7737 58.2077C19.2513 59.7052 21.0163 60.7053 23.0915 61.2206C24.1473 61.4828 25.7684 61.7197 27.253 61.8288C28.6802 61.9337 30.6379 61.9867 33.0861 61.9867C38.0106 61.9867 41.1036 61.4811 43.5683 60.273C44.6545 59.7406 45.5046 59.1332 46.3754 58.2672C47.6363 57.0131 48.4207 55.7279 49.0195 53.9343C49.6875 51.935 49.9723 50.1709 50.049 47.5617C50.0618 47.1331 50.0768 46.774 50.0827 46.7636C50.1033 46.7266 50.1503 44.3413 50.1503 43.3191C50.1503 41.0191 50.0455 39.3134 49.801 37.6313C49.4855 35.4598 49.0815 34.014 48.41 32.6519C47.8336 31.4827 47.2067 30.6203 46.292 29.738C45.4681 28.9432 44.5693 28.3227 43.4639 27.7854C41.5832 26.8711 39.5404 26.3817 36.9691 26.2292C35.8821 26.1648 35.779 26.1595 34.9144 26.1244C34.4452 26.1054 33.8967 26.0814 33.6956 26.0711C33.2322 26.0474 30.3362 26.0133 30.3156 26.0312ZM33.5613 37.3287C34.4597 37.4764 35.2328 37.8906 35.8811 38.5717C36.3179 39.0306 36.6014 39.5 36.7928 40.0808C36.9728 40.6275 36.9691 40.4988 36.9691 46.1116C36.9691 51.2906 36.9685 51.3374 36.8994 51.4061C36.8318 51.4733 36.7834 51.4753 35.2491 51.4753C33.7949 51.4753 33.6626 51.4705 33.5951 51.4147L33.5217 51.3541L33.5117 46.7132C33.5024 42.3553 33.498 42.0596 33.439 41.8645C33.2076 41.0998 32.6027 40.5055 31.8499 40.3029C31.6415 40.2468 31.3464 40.2416 28.1411 40.2375C26.2257 40.2351 24.6177 40.2463 24.5676 40.2626C24.5176 40.2788 24.4588 40.331 24.437 40.3786C24.408 40.442 24.3974 41.9118 24.3974 45.9009C24.3974 51.2906 24.3968 51.3374 24.3278 51.4061C24.2602 51.4733 24.2117 51.4753 22.6814 51.4753C21.3106 51.4753 21.0945 51.4683 21.0272 51.4214L20.9498 51.3675V44.3908C20.9498 37.4538 20.9502 37.4137 21.0196 37.3446C21.089 37.2756 21.1289 37.2751 27.1749 37.2772C32.2773 37.2789 33.3089 37.2873 33.5613 37.3287ZM43.1172 37.3605L43.2027 37.4455V51.2928L43.1305 51.3841L43.0583 51.4753H39.8646L39.7924 51.3841L39.7202 51.2928V37.4455L39.8057 37.3605L39.8912 37.2755H43.0317L43.1172 37.3605ZM30.7066 42.805C30.7677 42.8599 30.7703 43.0385 30.7703 47.0995C30.7703 51.2906 30.7695 51.3376 30.7007 51.4061C30.633 51.4734 30.5846 51.4753 28.9594 51.4753C27.3343 51.4753 27.2859 51.4734 27.2182 51.4061C27.1493 51.3376 27.1486 51.2906 27.1486 47.1115C27.1486 42.9323 27.1493 42.8854 27.2182 42.8169C27.2859 42.7495 27.3343 42.7476 28.9654 42.7476C30.4775 42.7476 30.6492 42.7533 30.7066 42.805Z" fill="#FF6200"/>
<path d="M42.9547 37.1783H39.9387C39.8096 37.1783 39.7051 37.2844 39.7051 37.4153V51.6391C39.7051 51.7688 39.8096 51.875 39.9387 51.875H42.9547C43.0828 51.875 43.1888 51.7688 43.1888 51.6391V37.4153C43.1888 37.2844 43.0828 37.1783 42.9547 37.1783ZM32.6568 37.1783H21.1685C21.0393 37.1783 20.9355 37.2844 20.9355 37.4153V51.6391C20.9355 51.7688 21.0393 51.875 21.1685 51.875H24.1852C24.3136 51.875 24.42 51.7688 24.42 51.6391V40.4755C24.42 40.3465 24.5238 40.2396 24.653 40.2396H31.1512C32.9786 40.2396 33.4973 41.6863 33.4973 42.6196V51.6391C33.4973 51.7688 33.6023 51.875 33.7314 51.875H36.7463C36.8747 51.875 36.98 51.7688 36.98 51.6391V41.5487C36.98 40.7163 36.8831 39.5195 35.8442 38.466C34.7571 37.3663 33.7655 37.1783 32.6568 37.1783Z" fill="white"/>
<path d="M30.544 42.7432H27.3766C27.2474 42.7432 27.1414 42.8493 27.1414 42.9794V51.6403C27.1414 51.7695 27.2474 51.8757 27.3766 51.8757H30.544C30.6721 51.8757 30.777 51.7695 30.777 51.6403V42.9794C30.777 42.8493 30.6721 42.7432 30.544 42.7432Z" fill="white"/>
</g>
<defs>
<clipPath id="clip0_5629_7935">
<rect width="128" height="36" fill="white" transform="translate(14 26)"/>
</clipPath>
</defs>
</svg>
