<svg width="32" height="32" viewBox="0 0 32 32" fill="none" xmlns="http://www.w3.org/2000/svg">
<path d="M5.6786 22.125C4.18768 19.6116 3.66554 16.6405 4.21024 13.7694C4.75494 10.8984 6.329 8.32491 8.63685 6.53228C10.9447 4.73965 13.8276 3.85117 16.7442 4.03368C19.6607 4.2162 22.4103 5.45714 24.4767 7.52349C26.5431 9.58985 27.784 12.3395 27.9666 15.256C28.1491 18.1726 27.2606 21.0555 25.468 23.3633C23.6754 25.6712 21.1019 27.2453 18.2309 27.79C15.3598 28.3347 12.3887 27.8126 9.87532 26.3217L9.87534 26.3215L5.73077 27.5057C5.5593 27.5547 5.37784 27.557 5.20521 27.5122C5.03257 27.4675 4.87504 27.3774 4.74894 27.2513C4.62283 27.1252 4.53275 26.9677 4.48802 26.795C4.44328 26.6224 4.44553 26.4409 4.49452 26.2695L5.67869 22.1249L5.6786 22.125Z" fill="#CEE0FA" stroke="#0B63E5" stroke-width="2" stroke-linecap="round" stroke-linejoin="round"/>
</svg>
